<svg width="32" height="32" viewBox="0 0 32 32" fill="none" xmlns="http://www.w3.org/2000/svg">
<path d="M6.67 8.09L6.65 13.81C6.65004 13.8958 6.61665 13.9783 6.55691 14.0399C6.49717 14.1015 6.41577 14.1374 6.33 14.14L5.37 14.16C5.32583 14.1613 5.28184 14.1538 5.24064 14.1378C5.19944 14.1218 5.16187 14.0977 5.13016 14.067C5.09845 14.0362 5.07325 13.9993 5.05604 13.9586C5.03884 13.9179 5.02998 13.8742 5.03 13.83L5 6.33C5 6.24248 5.03477 6.15854 5.09665 6.09666C5.15854 6.03477 5.24248 6 5.33 6L12.79 6.06C12.8351 6.05991 12.8797 6.06907 12.9211 6.08689C12.9625 6.10471 12.9998 6.13083 13.0307 6.16362C13.0616 6.19641 13.0855 6.23519 13.1009 6.27757C13.1162 6.31994 13.1227 6.36501 13.12 6.41L13.04 7.45C13.0325 7.53223 12.9944 7.60865 12.9333 7.66418C12.8723 7.71972 12.7926 7.75034 12.71 7.75L7 7.76C6.91248 7.76 6.82854 7.79477 6.76665 7.85666C6.70477 7.91855 6.67 8.00248 6.67 8.09Z" fill="#222222"/>
<path d="M24.58 7.76001L18.88 7.73001C18.7916 7.73005 18.7066 7.6956 18.6431 7.63399C18.5796 7.57237 18.5427 7.48844 18.54 7.40001L18.52 6.40001C18.5187 6.35453 18.5265 6.30923 18.543 6.26682C18.5595 6.22441 18.5843 6.18574 18.616 6.1531C18.6477 6.12046 18.6857 6.09452 18.7276 6.07681C18.7695 6.0591 18.8145 6.04999 18.86 6.05001L26.29 6.01001C26.3802 6.01001 26.4667 6.04583 26.5305 6.1096C26.5942 6.17336 26.63 6.25983 26.63 6.35001L26.6201 13.78C26.6201 13.8685 26.5856 13.9535 26.524 14.017C26.4624 14.0804 26.3785 14.1174 26.29 14.12L25.26 14.14C25.2146 14.1413 25.1693 14.1335 25.1269 14.1171C25.0845 14.1006 25.0458 14.0757 25.0131 14.044C24.9805 14.0123 24.9546 13.9744 24.9369 13.9325C24.9191 13.8906 24.91 13.8455 24.91 13.8L24.92 8.10001C24.92 8.00983 24.8842 7.92336 24.8205 7.8596C24.7567 7.79583 24.6702 7.76001 24.58 7.76001Z" fill="#222222"/>
<path d="M7 25.94L12.82 26C12.866 25.9998 12.9115 26.0093 12.9536 26.0277C12.9957 26.0461 13.0336 26.0731 13.0646 26.107C13.0957 26.1409 13.1193 26.1809 13.134 26.2245C13.1487 26.2681 13.1542 26.3142 13.15 26.36L13.06 27.39C13.0525 27.4722 13.0144 27.5487 12.9533 27.6042C12.8923 27.6597 12.8126 27.6904 12.73 27.69L5.34 27.73C5.25248 27.73 5.16854 27.6953 5.10666 27.6334C5.04477 27.5715 5.01 27.4875 5.01 27.4L5 19.82C4.99998 19.7758 5.00883 19.7321 5.02604 19.6914C5.04325 19.6507 5.06845 19.6138 5.10016 19.5831C5.13187 19.5523 5.16944 19.5282 5.21064 19.5122C5.25184 19.4962 5.29583 19.4887 5.34 19.49L6.32 19.5C6.40578 19.5026 6.48716 19.5385 6.54691 19.6001C6.60665 19.6617 6.64004 19.7442 6.64 19.83L6.67 25.61C6.67 25.6975 6.70477 25.7815 6.76665 25.8434C6.82854 25.9053 6.91248 25.94 7 25.94Z" fill="#222222"/>
<path d="M24.92 25.61L24.91 19.86C24.91 19.7716 24.9444 19.6866 25.006 19.6231C25.0677 19.5596 25.1516 19.5226 25.24 19.52L26.27 19.51C26.3155 19.5087 26.3608 19.5165 26.4032 19.533C26.4456 19.5495 26.4843 19.5743 26.5169 19.606C26.5496 19.6377 26.5755 19.6757 26.5932 19.7176C26.6109 19.7595 26.62 19.8045 26.62 19.85L26.63 27.39C26.63 27.4802 26.5942 27.5667 26.5304 27.6304C26.4667 27.6942 26.3802 27.73 26.29 27.73L18.87 27.69C18.7816 27.6901 18.6965 27.6556 18.6331 27.594C18.5696 27.5324 18.5326 27.4485 18.53 27.36L18.49 26.32C18.4887 26.2745 18.4965 26.2293 18.513 26.1868C18.5295 26.1444 18.5543 26.1058 18.586 26.0731C18.6177 26.0405 18.6556 26.0145 18.6975 25.9968C18.7395 25.9791 18.7845 25.97 18.83 25.97L24.58 25.95C24.6702 25.95 24.7567 25.9142 24.8204 25.8505C24.8842 25.7867 24.92 25.7002 24.92 25.61Z" fill="#222222"/>
</svg>
