<svg width="32" height="32" viewBox="0 0 32 32" fill="none" xmlns="http://www.w3.org/2000/svg">
<path d="M23.3767 8.66674L24.2867 8.72674C24.6 8.75341 24.76 8.9234 24.7667 9.23674V9.69674C24.768 9.79082 24.7506 9.88422 24.7155 9.97152C24.6804 10.0588 24.6283 10.1383 24.5623 10.2053C24.4962 10.2723 24.4175 10.3254 24.3307 10.3618C24.2439 10.3981 24.1508 10.4167 24.0567 10.4167L20.1467 10.4267C19.8 10.4334 19.55 10.2767 19.3967 9.95674C19.3233 9.79674 19.3033 9.6234 19.3367 9.43674C19.4033 9.07674 19.6167 8.85341 19.9767 8.76674L20.5767 8.63674C20.99 8.54341 21.2333 8.28674 21.3067 7.86674C22.0967 3.51674 28.5067 4.27674 28.3367 9.06674C28.2833 10.5001 28.29 11.9334 28.3567 13.3667C28.37 13.6734 28.5033 13.9201 28.7567 14.1067C28.9033 14.2067 29.0133 14.3367 29.0867 14.4967C29.2333 14.7967 29.2067 15.0801 29.0067 15.3467C28 16.7067 27.4167 18.5001 27.2567 20.7267C27.1367 22.4334 26.5367 23.7601 25.4567 24.7067C25.3601 24.7947 25.2887 24.9061 25.25 25.0293C25.2113 25.1524 25.2067 25.2828 25.2367 25.4067C25.3233 25.7534 25.33 26.0867 25.2567 26.4067C25.1567 26.9001 24.8833 27.0301 24.4367 26.7967C23.8967 26.5101 23.5767 26.0834 23.4767 25.5167C23.4033 25.1167 23.1667 24.9167 22.7667 24.9167L8.84667 24.9367C8.47333 24.9367 8.19334 25.1001 8.00667 25.4267L7.36667 26.5667C7.30511 26.6758 7.2146 26.7658 7.10515 26.8267C6.99569 26.8877 6.87153 26.9172 6.74637 26.912C6.6212 26.9068 6.4999 26.8672 6.39585 26.7974C6.29179 26.7277 6.20902 26.6305 6.15667 26.5167C5.99 26.1567 5.98667 25.7967 6.14667 25.4367C6.31333 25.0501 6.22333 24.7367 5.87667 24.4967C5.20333 24.0501 4.78333 23.4501 4.61667 22.6967C4.19 20.7434 3.76667 18.7001 3.34667 16.5667C3.27333 16.1867 3.06 15.9234 2.70667 15.7767C2.56667 15.7167 2.43667 15.6401 2.31667 15.5467C2.19667 15.4401 2.11 15.3101 2.05667 15.1567C1.94333 14.8234 2 14.5334 2.22667 14.2867C2.39333 14.1001 2.6 14.0101 2.84667 14.0167C10.6867 14.0301 18.41 14.0334 26.0167 14.0267C26.41 14.0267 26.6033 13.8334 26.5967 13.4467L26.5767 8.71674C26.5633 7.23674 25.8267 6.61007 24.3667 6.83674C23.6933 6.93674 23.22 7.31674 22.9467 7.97674C22.7667 8.41007 22.91 8.64007 23.3767 8.66674ZM5.42667 15.7667C5.36389 15.7668 5.30192 15.7809 5.24531 15.808C5.18871 15.8352 5.13891 15.8747 5.09957 15.9236C5.06024 15.9725 5.03237 16.0296 5.01803 16.0907C5.00368 16.1519 5.00322 16.2154 5.01667 16.2767L6.49667 22.8367C6.51718 22.9302 6.56901 23.0139 6.64357 23.0739C6.71813 23.1339 6.81095 23.1667 6.90667 23.1667L24.5967 23.1567C24.6924 23.1567 24.7852 23.1239 24.8598 23.0639C24.9343 23.0039 24.9862 22.9202 25.0067 22.8267L26.3867 16.2667C26.4001 16.2054 26.3997 16.1419 26.3853 16.0808C26.371 16.0196 26.3431 15.9625 26.3038 15.9136C26.2644 15.8647 26.2146 15.8252 26.158 15.798C26.1014 15.7709 26.0394 15.7568 25.9767 15.7567L5.42667 15.7667Z" fill="#222222"/>
</svg>
