<svg width="32" height="32" viewBox="0 0 32 32" fill="none" xmlns="http://www.w3.org/2000/svg">
<path d="M23.3216 24.1956L8.35161 24.2056C7.89828 24.2056 7.64495 24.4256 7.59161 24.8656L7.52161 25.3756C7.46828 25.7822 7.24161 25.9822 6.84161 25.9756L3.72161 25.9656C3.25495 25.9656 3.02495 25.7322 3.03161 25.2656C3.05828 23.1989 3.04828 21.1022 3.00161 18.9756C2.95161 17.0956 4.08161 15.9656 4.03161 14.1856C3.98495 12.5522 3.98495 10.9822 4.03161 9.47556C4.05224 8.82998 4.32094 8.21745 4.78139 7.76632C5.24184 7.31519 5.85831 7.06048 6.50161 7.05556C12.9816 6.98889 19.0883 6.98222 24.8216 7.03556C26.8916 7.05556 27.7316 9.15556 27.5016 10.9056C27.2616 12.7456 27.3683 14.4622 27.8216 16.0556C28.6616 19.0456 28.4216 22.4156 28.3016 25.4456C28.2883 25.7922 28.1049 25.9656 27.7516 25.9656H24.5316C24.1649 25.9656 23.9316 25.7856 23.8316 25.4256C23.7916 25.2789 23.7983 25.1322 23.8516 24.9856C24.0649 24.4589 23.8883 24.1956 23.3216 24.1956ZM7.71161 13.5256C7.80352 13.073 8.02727 12.6578 8.35469 12.3321C8.68211 12.0065 9.09857 11.785 9.55161 11.6956C12.2416 11.1756 14.5816 12.0756 17.1616 11.6856C19.8016 11.2856 24.0216 10.8056 23.8116 14.8756C23.8049 15.0489 23.8883 15.1389 24.0616 15.1456L25.3816 15.1956C25.6416 15.2089 25.7716 15.0856 25.7716 14.8256L25.7416 9.53556C25.7416 9.08222 25.5116 8.85556 25.0516 8.85556L6.42161 8.83556C5.94828 8.83556 5.70828 9.07222 5.70161 9.54556L5.64161 14.6156C5.63495 15.0022 5.82495 15.1922 6.21161 15.1856L6.70161 15.1756C7.14828 15.1756 7.41828 14.9556 7.51161 14.5156L7.71161 13.5256ZM14.7898 13.9412C14.789 13.79 14.7282 13.6453 14.6208 13.539C14.5133 13.4327 14.3681 13.3734 14.2169 13.3742L9.85691 13.397C9.78206 13.3973 9.70802 13.4125 9.63901 13.4415C9.57 13.4705 9.50739 13.5128 9.45474 13.566C9.40209 13.6192 9.36043 13.6823 9.33215 13.7516C9.30387 13.8209 9.28952 13.8951 9.28991 13.97L9.29341 14.63C9.29421 14.7811 9.35501 14.9258 9.46245 15.0321C9.56988 15.1384 9.71516 15.1977 9.86631 15.197L14.2263 15.1742C14.3012 15.1738 14.3752 15.1586 14.4442 15.1296C14.5132 15.1006 14.5758 15.0583 14.6285 15.0051C14.6811 14.9519 14.7228 14.8888 14.7511 14.8195C14.7794 14.7502 14.7937 14.676 14.7933 14.6012L14.7898 13.9412ZM22.02 13.9713C22.0192 13.8121 21.9552 13.6599 21.8421 13.548C21.729 13.436 21.576 13.3736 21.4169 13.3745L17.1569 13.3968C16.9978 13.3976 16.8455 13.4616 16.7336 13.5747C16.6217 13.6878 16.5593 13.8407 16.5601 13.9999L16.5632 14.5999C16.5641 14.759 16.6281 14.9112 16.7412 15.0232C16.8543 15.1351 17.0072 15.1975 17.1663 15.1967L21.4263 15.1744C21.5854 15.1735 21.7377 15.1095 21.8496 14.9964C21.9615 14.8833 22.0239 14.7304 22.0231 14.5713L22.02 13.9713ZM25.7116 23.2456C25.6583 23.5456 25.6983 23.8289 25.8316 24.0956C25.8726 24.1829 25.9425 24.2534 26.0294 24.2953C26.1163 24.3372 26.215 24.3479 26.3088 24.3256C26.4027 24.3033 26.486 24.2494 26.5448 24.1729C26.6036 24.0964 26.6342 24.002 26.6316 23.9056L26.5816 17.7056C26.5749 17.1922 26.3149 16.9356 25.8016 16.9356H5.77161C5.63766 16.9356 5.50503 16.9619 5.38128 17.0132C5.25752 17.0645 5.14508 17.1396 5.05036 17.2343C4.95565 17.329 4.88051 17.4415 4.82926 17.5652C4.778 17.689 4.75161 17.8216 4.75161 17.9556L4.77161 24.0556C4.77161 24.2089 4.84828 24.2922 5.00161 24.3056L5.36161 24.3156C5.64828 24.3356 5.77828 24.2022 5.75161 23.9156L5.68161 23.0756C5.67465 22.9939 5.68449 22.9117 5.7105 22.8342C5.73652 22.7566 5.77813 22.6855 5.8327 22.6253C5.88727 22.5651 5.95359 22.5171 6.02744 22.4844C6.10129 22.4518 6.18104 22.4351 6.26161 22.4356H25.0216C25.5683 22.4356 25.7983 22.7056 25.7116 23.2456Z" fill="#222222"/>
</svg>
