<svg width="32" height="32" viewBox="0 0 32 32" fill="none" xmlns="http://www.w3.org/2000/svg">
<path d="M10.2113 15.6016C6.54459 13.7482 6.01792 10.8382 8.63125 6.87157C12.8813 0.401573 20.4213 12.6316 12.9213 15.6516C12.6146 15.7716 12.4613 15.9949 12.4613 16.3216V25.3016C12.4613 25.6282 12.2979 25.7949 11.9713 25.8016L11.2313 25.8116C10.8979 25.8182 10.7313 25.6516 10.7313 25.3116L10.7513 16.4916C10.7513 16.0849 10.5713 15.7882 10.2113 15.6016ZM9.47125 8.72157C8.91125 10.0016 8.40125 12.3216 9.66125 13.3516C10.6546 14.1649 11.7479 14.2949 12.9413 13.7416C15.5213 12.5316 14.0913 8.91158 12.7713 7.31158C12.5726 7.07414 12.2892 6.92348 11.9813 6.89157C10.8813 6.79824 10.0446 7.40824 9.47125 8.72157Z" fill="#222222"/>
<path d="M20.0912 14.4815C17.0212 13.3615 17.9912 7.96153 17.9612 5.49153C17.9612 5.1782 18.1145 5.02487 18.4212 5.03153H19.1912C19.5179 5.0382 19.6812 5.20153 19.6812 5.52153L19.6912 11.0715C19.6912 12.0715 20.1579 12.7515 21.0912 13.1115C21.3312 13.2049 21.5745 13.2215 21.8212 13.1615C22.9012 12.8682 23.4412 12.1615 23.4412 11.0415V5.53153C23.4412 5.1582 23.6279 4.98153 24.0012 5.00153L24.7412 5.04153C24.8121 5.04536 24.8816 5.06315 24.9457 5.09389C25.0098 5.12464 25.0671 5.16772 25.1145 5.22067C25.1619 5.27362 25.1983 5.33541 25.2218 5.40248C25.2453 5.46955 25.2552 5.54059 25.2512 5.61153C25.0912 8.60153 26.2812 13.0315 22.9312 14.5915C22.6179 14.7382 22.4612 14.9849 22.4612 15.3315V25.3015C22.4612 25.6282 22.2979 25.7949 21.9712 25.8015L21.2212 25.8215C20.8679 25.8215 20.6912 25.6482 20.6912 25.3015L20.7112 15.3515C20.7112 15.1612 20.6516 14.9753 20.5405 14.8195C20.4295 14.6637 20.2725 14.5456 20.0912 14.4815Z" fill="#222222"/>
<path d="M22.2112 5.03149C22.2828 5.03149 22.3515 5.05994 22.4021 5.11057C22.4527 5.16121 22.4812 5.22988 22.4812 5.30149L22.4712 10.7315C22.4709 10.9377 22.4507 11.1419 22.4118 11.3323C22.3728 11.5226 22.3159 11.6953 22.2443 11.8404C22.1727 11.9854 22.0878 12.1 21.9946 12.1774C21.9014 12.2549 21.8016 12.2936 21.7012 12.2915H21.4412C21.241 12.2872 21.0499 12.121 20.9095 11.8289C20.7691 11.5368 20.6906 11.1424 20.6912 10.7315L20.7012 5.30149C20.7012 5.22988 20.7296 5.16121 20.7802 5.11057C20.8309 5.05994 20.8996 5.03149 20.9712 5.03149H22.2112Z" fill="#222222"/>
</svg>
