<svg width="95" height="47" viewBox="0 0 95 47" fill="none" xmlns="http://www.w3.org/2000/svg">
<path d="M0.4 11.5V11.212L1.12 11.068C1.488 11.004 1.616 10.908 1.616 10.108V1.804C1.616 1.004 1.488 0.924 1.12 0.844L0.4 0.7V0.412H4.72C7.072 0.412 8.576 1.148 8.576 3.02C8.576 4.524 7.616 5.308 5.92 5.612V5.676C8.048 5.852 9.168 6.732 9.168 8.38C9.168 10.412 7.552 11.5 5.12 11.5H0.4ZM4.96 10.956C6.432 10.956 7.344 10.188 7.344 8.604C7.344 6.86 6.656 6.012 4.896 6.012H3.328V9.708C3.328 10.828 3.504 10.956 4.96 10.956ZM3.328 5.484H4.672C6.048 5.484 6.848 4.636 6.848 3.34C6.848 1.58 6.144 0.955999 4.576 0.955999C4.096 0.955999 3.6 0.988 3.328 1.052V5.484ZM14.1173 11.692C11.5093 11.692 10.2293 9.932 10.2293 7.34C10.2293 4.78 12.0373 3.1 14.1173 3.1C16.1013 3.1 17.3173 4.188 17.3173 7.084H11.8932C11.9093 9.724 13.0133 10.748 14.6293 10.748C15.8293 10.748 16.5653 10.364 17.1573 10.076V10.524C16.7253 10.876 15.6213 11.692 14.1173 11.692ZM14.0533 3.58C12.8853 3.58 12.0053 4.524 11.8932 6.604L15.5573 6.412C15.5573 4.492 15.2533 3.58 14.0533 3.58ZM20.7398 11.692C19.8438 11.692 18.9958 11.532 18.3558 11.308L18.3078 8.956H18.6278C18.8838 9.58 19.1398 9.98 19.4598 10.492C19.7958 11.036 20.0678 11.212 20.8998 11.212C21.8598 11.212 22.5638 10.668 22.5638 9.788C22.5638 8.924 21.9718 8.492 20.6758 7.964C19.3158 7.42 18.3558 6.748 18.3558 5.5C18.3558 4.012 19.6678 3.1 21.3158 3.1C22.1798 3.1 22.8198 3.228 23.3638 3.436L23.4278 5.468H23.1398C22.8838 4.924 22.6438 4.524 22.3398 4.124C21.9557 3.644 21.6038 3.58 21.1238 3.58C20.0838 3.58 19.5878 4.044 19.5878 4.828C19.5878 5.548 20.1478 6.092 21.4598 6.604C22.9478 7.18 23.9078 7.804 23.9078 9.036C23.9078 10.54 22.7078 11.692 20.7398 11.692ZM27.3514 11.692C26.3594 11.692 25.5434 11.228 25.5434 10.012V4.012H24.4394V3.74C25.5114 3.404 26.2954 2.652 26.7274 1.436H27.1114V3.356H29.3514L29.1914 4.012H27.1114V9.852C27.1114 10.54 27.4474 10.844 28.1674 10.844C28.6314 10.844 29.0954 10.732 29.4154 10.636V10.956C29.1274 11.18 28.4074 11.692 27.3514 11.692ZM33.3531 11.5V11.212L34.0731 11.068C34.4411 11.004 34.5691 10.908 34.5691 10.108V1.804C34.5691 1.004 34.4411 0.924 34.0731 0.844L33.3531 0.7V0.412H37.5931V0.7L36.7771 0.86C36.3771 0.94 36.2811 1.004 36.2811 1.804V9.436C36.2811 10.764 36.3291 10.956 38.0251 10.956C39.4331 10.956 39.7531 10.844 40.2011 10.204C40.4411 9.868 40.8251 9.1 41.1451 8.044H41.5291L41.3371 11.5H33.3531ZM45.19 11.692C43.862 11.692 43.062 10.956 43.062 9.596V4.7C43.062 4.108 42.998 4.092 42.646 3.932L42.006 3.644V3.404L44.47 3.132L44.63 3.26V9.276C44.63 10.204 45.046 10.716 45.99 10.716C46.758 10.716 47.574 10.412 48.15 10.204V4.7C48.15 4.108 48.102 4.092 47.734 3.932L47.094 3.644V3.404L49.558 3.132L49.718 3.26V9.868C49.718 10.588 49.814 10.684 50.182 10.86L50.774 11.132V11.356L48.278 11.692L48.166 11.596L48.198 10.604H48.134C47.302 11.164 46.278 11.692 45.19 11.692ZM51.2408 11.5V11.228L51.6888 11.1C52.2488 10.94 52.4728 10.668 52.9848 9.932L54.5048 7.708L52.5848 4.892C51.9288 3.948 51.8488 3.804 51.3848 3.692L51.1288 3.628V3.356H54.7928V3.628L54.4088 3.708C54.1368 3.772 54.0568 3.9 54.0568 4.108C54.0568 4.284 54.1688 4.54 54.3928 4.892L55.5448 6.7H55.5928L56.4888 5.116C56.7928 4.572 56.8888 4.3 56.8888 4.076C56.8888 3.9 56.7608 3.788 56.5528 3.74L56.0728 3.628V3.356H58.9528V3.628L58.5048 3.756C57.8808 3.932 57.7208 4.156 57.2248 4.956L55.8968 7.068L57.9128 9.964C58.4568 10.748 58.6648 11.052 59.1768 11.18L59.3688 11.228V11.5H55.7048V11.228L56.1208 11.148C56.4248 11.084 56.4888 10.956 56.4888 10.78C56.4888 10.572 56.3128 10.284 56.1048 9.964L54.8408 8.06H54.7928L53.7528 9.772C53.4328 10.3 53.3048 10.572 53.3048 10.796C53.3048 10.956 53.4008 11.068 53.8328 11.164L54.1208 11.228V11.5H51.2408ZM62.7369 11.692C61.4089 11.692 60.6089 10.956 60.6089 9.596V4.7C60.6089 4.108 60.5449 4.092 60.1929 3.932L59.5529 3.644V3.404L62.0169 3.132L62.1769 3.26V9.276C62.1769 10.204 62.5929 10.716 63.5369 10.716C64.3049 10.716 65.1209 10.412 65.6969 10.204V4.7C65.6969 4.108 65.6489 4.092 65.2809 3.932L64.6409 3.644V3.404L67.1049 3.132L67.2649 3.26V9.868C67.2649 10.588 67.3609 10.684 67.7289 10.86L68.3209 11.132V11.356L65.8249 11.692L65.7129 11.596L65.7449 10.604H65.6809C64.8489 11.164 63.8249 11.692 62.7369 11.692ZM68.8356 11.5V11.228L69.4756 11.052C69.7796 10.972 69.8916 10.844 69.8916 10.22V4.86C69.8916 4.22 69.8116 4.188 69.4276 3.996L68.8356 3.692V3.468L71.3316 3.132L71.4436 3.228L71.4116 4.188H71.4756C72.0356 3.628 72.9636 3.1 73.7476 3.1C74.4036 3.1 74.7876 3.436 74.7876 4.044C74.7876 4.636 74.4036 4.956 73.9396 4.956C73.3636 4.956 73.1876 4.684 73.0596 4.348C72.9796 4.124 72.9316 4.076 72.7876 4.076C72.4676 4.076 71.7476 4.412 71.4596 4.732V10.22C71.4596 10.892 71.5556 10.988 71.8756 11.052L72.6756 11.228V11.5H68.8356ZM76.661 14.796C75.749 14.796 75.301 14.364 75.301 13.836C75.301 13.34 75.653 13.052 76.149 13.052C76.645 13.052 76.885 13.34 76.997 13.708C77.077 13.948 77.109 13.996 77.317 13.996C77.653 13.996 78.117 13.468 78.645 12.156L78.885 11.564L76.261 4.828C75.925 3.98 75.861 3.9 75.445 3.756L75.061 3.628V3.356H78.645V3.628L78.213 3.74C77.861 3.836 77.765 3.932 77.765 4.22C77.765 4.428 77.845 4.7 77.989 5.084L79.685 9.596H79.749L81.365 5.084C81.509 4.668 81.589 4.348 81.589 4.156C81.589 3.884 81.429 3.82 81.141 3.74L80.709 3.628V3.356H83.301V3.628L82.853 3.756C82.485 3.868 82.405 4.076 82.053 4.988L79.333 12.124C78.821 13.484 78.245 14.796 76.661 14.796ZM5.504 27.692C2.72 27.692 0.56 26.06 0.56 22.044C0.56 17.772 3.056 16.22 6.032 16.22C7.248 16.22 8.32 16.396 9.008 16.604L9.152 19.772H8.784C8.528 18.972 8.08 18.092 7.744 17.548C7.44 17.052 6.96 16.796 5.856 16.796C3.6 16.796 2.384 18.092 2.384 21.74C2.384 25.644 3.488 27.116 5.632 27.116C7.056 27.116 7.488 26.812 7.856 26.252C8.304 25.564 8.576 24.956 8.88 24.108H9.2L9.04 26.988C8.32 27.34 7.024 27.692 5.504 27.692ZM14.3379 27.708C12.0979 27.708 10.3699 26.252 10.3699 23.42C10.3699 20.62 12.2899 19.1 14.3379 19.1C16.5779 19.1 18.3059 20.492 18.3059 23.324C18.3059 26.124 16.3859 27.708 14.3379 27.708ZM14.4019 27.228C15.8259 27.228 16.5779 26.092 16.5779 23.548C16.5779 20.684 15.8259 19.58 14.2899 19.58C12.8659 19.58 12.0979 20.652 12.0979 23.196C12.0979 26.06 12.8659 27.228 14.4019 27.228ZM19.07 27.5V27.228L19.71 27.052C20.014 26.972 20.126 26.844 20.126 26.22V20.86C20.126 20.22 20.046 20.188 19.662 19.996L19.07 19.692V19.468L21.566 19.132L21.678 19.196L21.646 20.124H21.71C22.494 19.612 23.646 19.116 24.654 19.116C26.238 19.116 26.782 19.804 26.782 21.244V26.22C26.782 26.844 26.91 26.972 27.198 27.052L27.838 27.228V27.5H24.158V27.228L24.798 27.052C25.118 26.972 25.214 26.892 25.214 26.22V21.596C25.214 20.476 24.846 20.108 23.854 20.108C23.086 20.108 22.158 20.38 21.694 20.524V26.22C21.694 26.892 21.79 26.972 22.11 27.052L22.75 27.228V27.5H19.07ZM31.7421 27.692C30.2221 27.692 28.5901 26.716 28.5901 23.676C28.5901 20.556 30.7501 19.116 33.0221 19.116C33.6781 19.116 34.1581 19.212 34.4781 19.308C34.4781 19.308 34.4621 18.668 34.4621 18.092V17.1C34.4621 16.46 34.3501 16.428 33.9981 16.252L33.3261 15.932V15.676L35.9661 15.42L36.0781 15.516C36.0781 15.516 36.0301 16.188 36.0301 17.42V25.868C36.0301 26.588 36.1261 26.684 36.4941 26.86L37.0861 27.132V27.356L34.5901 27.692L34.4781 27.596L34.5101 26.748H34.4461C33.7741 27.26 32.7821 27.692 31.7421 27.692ZM32.6061 26.812C33.5661 26.812 34.0941 26.46 34.4621 26.284V20.3C34.1101 19.964 33.6301 19.628 32.9101 19.628C31.2621 19.628 30.2381 20.62 30.2381 23.356C30.2381 25.788 31.0861 26.812 32.6061 26.812ZM41.6973 27.708C39.4573 27.708 37.7293 26.252 37.7293 23.42C37.7293 20.62 39.6493 19.1 41.6973 19.1C43.9373 19.1 45.6653 20.492 45.6653 23.324C45.6653 26.124 43.7453 27.708 41.6973 27.708ZM41.7613 27.228C43.1853 27.228 43.9373 26.092 43.9373 23.548C43.9373 20.684 43.1853 19.58 41.6493 19.58C40.2253 19.58 39.4573 20.652 39.4573 23.196C39.4573 26.06 40.2253 27.228 41.7613 27.228ZM49.9313 27.5V27.212L50.6513 27.068C51.0193 27.004 51.1473 26.908 51.1473 26.108V17.804C51.1473 17.004 51.0193 16.924 50.6513 16.844L49.9313 16.7V16.412H54.6033C57.5953 16.412 59.9473 17.772 59.9473 21.852C59.9473 25.596 57.7073 27.5 54.5073 27.5H49.9313ZM54.3953 26.988C57.3233 26.988 58.1553 24.924 58.1553 22.156C58.1553 18.62 57.1153 16.924 54.3633 16.924C53.5953 16.924 53.1313 16.988 52.8593 17.068V25.484C52.8593 26.764 52.9553 26.988 54.3953 26.988ZM64.836 27.692C62.228 27.692 60.948 25.932 60.948 23.34C60.948 20.78 62.756 19.1 64.836 19.1C66.82 19.1 68.036 20.188 68.036 23.084H62.612C62.628 25.724 63.732 26.748 65.348 26.748C66.548 26.748 67.284 26.364 67.876 26.076V26.524C67.444 26.876 66.34 27.692 64.836 27.692ZM64.772 19.58C63.604 19.58 62.724 20.524 62.612 22.604L66.276 22.412C66.276 20.492 65.972 19.58 64.772 19.58ZM72.1023 27.5L69.5103 20.828C69.2383 20.14 69.1263 19.916 68.6623 19.756L68.2782 19.628V19.356H71.9263V19.628L71.4943 19.74C71.0943 19.852 71.0623 19.996 71.0623 20.252C71.0623 20.444 71.1423 20.732 71.2703 21.084L72.9343 25.58H72.9983L74.6463 21.084C74.7903 20.668 74.8383 20.396 74.8383 20.22C74.8383 19.98 74.7423 19.82 74.4223 19.74L73.9903 19.628V19.356H76.5983V19.628L76.1503 19.756C75.7343 19.868 75.6383 20.204 75.3503 20.988L72.8543 27.5H72.1023ZM76.9609 27.58C76.4169 27.58 75.9689 27.148 75.9689 26.604C75.9689 26.06 76.4169 25.628 76.9609 25.628C77.5049 25.628 77.9529 26.06 77.9529 26.604C77.9529 27.148 77.5049 27.58 76.9609 27.58ZM0.256 43.5V42.652C1.536 41.596 2.864 40.348 3.616 39.5C4.88 38.076 5.648 37.148 5.648 35.276C5.648 33.34 4.688 32.764 3.696 32.764C2.736 32.764 2.528 33.004 2.464 33.532C2.384 34.236 2.08 34.652 1.488 34.652C0.864 34.652 0.624 34.22 0.624 33.82C0.624 32.988 1.856 32.22 3.856 32.22C5.872 32.22 7.408 33.26 7.408 35.388C7.408 37.74 4.576 39.916 1.728 42.028V42.092H5.712C6.576 42.092 6.72 41.964 7.264 40.844H7.552L7.296 43.5H0.256ZM13.037 43.692C11.069 43.692 8.669 42.156 8.669 38.14C8.669 33.932 11.165 32.22 13.133 32.22C15.085 32.22 17.485 33.788 17.485 37.836C17.485 42.012 14.989 43.692 13.037 43.692ZM13.085 43.148C14.813 43.148 15.709 41.628 15.709 38.14C15.709 34.444 14.813 32.764 13.085 32.764C11.373 32.764 10.461 34.284 10.461 37.836C10.461 41.468 11.373 43.148 13.085 43.148ZM17.881 43.5V42.652C19.161 41.596 20.489 40.348 21.241 39.5C22.505 38.076 23.273 37.148 23.273 35.276C23.273 33.34 22.313 32.764 21.321 32.764C20.361 32.764 20.153 33.004 20.089 33.532C20.009 34.236 19.705 34.652 19.113 34.652C18.489 34.652 18.249 34.22 18.249 33.82C18.249 32.988 19.481 32.22 21.481 32.22C23.497 32.22 25.033 33.26 25.033 35.388C25.033 37.74 22.201 39.916 19.353 42.028V42.092H23.337C24.201 42.092 24.345 41.964 24.889 40.844H25.177L24.921 43.5H17.881ZM26.1839 43.5V43.212L27.0959 43.068C27.4799 43.004 27.6399 42.908 27.6399 42.108V34.092H26.1519V33.804C27.6239 33.5 28.3759 33.132 29.1119 32.3L29.3519 32.348V42.108C29.3519 42.908 29.4319 42.988 29.8479 43.068L30.6799 43.212V43.5H26.1839ZM39.0901 45.756C37.3461 44.348 35.2821 42.108 35.2821 38.668C35.2821 35.532 37.3461 32.988 39.0901 31.58L39.4101 31.868C37.9381 33.436 36.8341 35.82 36.8341 38.348C36.8341 41.692 37.9381 43.9 39.4101 45.468L39.0901 45.756ZM41.9279 46.108C40.7279 46.108 40.1359 45.66 40.1359 45.068C40.1359 44.636 40.4079 44.268 40.9839 44.268C41.6239 44.268 41.8159 44.62 41.9759 45.212C42.0719 45.532 42.0879 45.548 42.4079 45.548C42.8719 45.548 43.2879 45.084 43.2879 43.916V33.804C43.2879 33.004 43.2079 32.94 42.7919 32.844L42.0399 32.7V32.412H46.2159V32.7L45.4959 32.844C45.1119 32.924 44.9999 33.004 44.9999 33.804V42.556C44.9999 44.62 43.9759 46.108 41.9279 46.108ZM49.1891 43.708C47.7171 43.708 46.8051 42.956 46.8051 41.58C46.8051 40.268 48.0531 39.708 49.0931 39.468L51.3811 38.924V37.276C51.3811 36.204 51.2211 35.58 49.8931 35.58C49.2051 35.58 49.0131 35.74 48.9491 36.204C48.8691 36.78 48.7891 37.244 48.1011 37.244C47.4931 37.244 47.2531 36.86 47.2531 36.46C47.2531 35.468 48.9011 35.1 50.2131 35.1C52.1011 35.1 52.9491 35.804 52.9491 37.18V42.108C52.9491 42.524 53.0611 42.78 53.3651 42.94C53.5411 43.036 53.7971 43.068 54.1331 43.084V43.324C53.8931 43.5 53.3011 43.692 52.7571 43.692C51.9571 43.692 51.5411 43.292 51.4451 42.764H51.3651C50.9811 43.292 50.1011 43.708 49.1891 43.708ZM49.8611 42.924C50.6131 42.924 51.1571 42.572 51.3811 42.172V39.58L50.1651 39.708C49.1251 39.82 48.4051 40.252 48.4051 41.452C48.4051 42.38 48.9491 42.924 49.8611 42.924ZM60.6169 43.5C59.4009 42.172 58.5369 40.988 57.5129 39.468V39.356L59.3689 37.244C59.9929 36.524 60.1049 36.236 60.1049 36.044C60.1049 35.884 59.9929 35.804 59.6729 35.708L59.4489 35.628V35.356H62.2649V35.628L61.7849 35.788C61.3369 35.932 61.0969 36.108 60.4729 36.78L58.7289 38.652C59.6409 40.028 60.8729 41.66 61.9449 42.812C62.0889 42.972 62.2009 43.036 62.3769 43.084L62.8249 43.228V43.5H60.6169ZM54.6169 43.5V43.228L55.2569 43.052C55.5609 42.972 55.6729 42.844 55.6729 42.22V33.1C55.6729 32.46 55.5609 32.428 55.2089 32.252L54.5369 31.932V31.676L57.1929 31.42L57.3049 31.516C57.3049 31.516 57.2409 32.348 57.2409 33.42V42.22C57.2409 42.892 57.3369 42.972 57.6569 43.052L58.2969 43.228V43.5H54.6169ZM65.3923 43.708C63.9203 43.708 63.0083 42.956 63.0083 41.58C63.0083 40.268 64.2563 39.708 65.2963 39.468L67.5843 38.924V37.276C67.5843 36.204 67.4243 35.58 66.0963 35.58C65.4083 35.58 65.2163 35.74 65.1523 36.204C65.0723 36.78 64.9923 37.244 64.3043 37.244C63.6963 37.244 63.4563 36.86 63.4563 36.46C63.4563 35.468 65.1043 35.1 66.4163 35.1C68.3043 35.1 69.1523 35.804 69.1523 37.18V42.108C69.1523 42.524 69.2643 42.78 69.5683 42.94C69.7443 43.036 70.0003 43.068 70.3363 43.084V43.324C70.0963 43.5 69.5043 43.692 68.9603 43.692C68.1603 43.692 67.7443 43.292 67.6483 42.764H67.5683C67.1843 43.292 66.3043 43.708 65.3923 43.708ZM66.0643 42.924C66.8163 42.924 67.3602 42.572 67.5843 42.172V39.58L66.3683 39.708C65.3283 39.82 64.6083 40.252 64.6083 41.452C64.6083 42.38 65.1523 42.924 66.0643 42.924ZM70.82 43.5V43.228L71.46 43.052C71.764 42.972 71.876 42.844 71.876 42.22V36.86C71.876 36.22 71.796 36.188 71.412 35.996L70.82 35.692V35.468L73.316 35.132L73.428 35.228L73.396 36.188H73.46C74.02 35.628 74.948 35.1 75.732 35.1C76.388 35.1 76.772 35.436 76.772 36.044C76.772 36.636 76.388 36.956 75.924 36.956C75.348 36.956 75.172 36.684 75.044 36.348C74.964 36.124 74.916 36.076 74.772 36.076C74.452 36.076 73.732 36.412 73.444 36.732V42.22C73.444 42.892 73.54 42.988 73.86 43.052L74.66 43.228V43.5H70.82ZM80.1014 43.692C79.1094 43.692 78.2934 43.228 78.2934 42.012V36.012H77.1894V35.74C78.2614 35.404 79.0454 34.652 79.4774 33.436H79.8614V35.356H82.1014L81.9414 36.012H79.8614V41.852C79.8614 42.54 80.1974 42.844 80.9174 42.844C81.3814 42.844 81.8454 42.732 82.1654 42.636V42.956C81.8774 43.18 81.1574 43.692 80.1014 43.692ZM85.1735 43.708C83.7015 43.708 82.7895 42.956 82.7895 41.58C82.7895 40.268 84.0375 39.708 85.0775 39.468L87.3655 38.924V37.276C87.3655 36.204 87.2055 35.58 85.8775 35.58C85.1895 35.58 84.9975 35.74 84.9335 36.204C84.8535 36.78 84.7735 37.244 84.0855 37.244C83.4775 37.244 83.2375 36.86 83.2375 36.46C83.2375 35.468 84.8855 35.1 86.1975 35.1C88.0855 35.1 88.9335 35.804 88.9335 37.18V42.108C88.9335 42.524 89.0455 42.78 89.3495 42.94C89.5255 43.036 89.7815 43.068 90.1175 43.084V43.324C89.8775 43.5 89.2855 43.692 88.7415 43.692C87.9415 43.692 87.5255 43.292 87.4295 42.764H87.3495C86.9655 43.292 86.0855 43.708 85.1735 43.708ZM85.8455 42.924C86.5975 42.924 87.1415 42.572 87.3655 42.172V39.58L86.1495 39.708C85.1095 39.82 84.3895 40.252 84.3895 41.452C84.3895 42.38 84.9335 42.924 85.8455 42.924ZM90.7773 45.756L90.4573 45.468C91.9293 43.9 93.0333 41.516 93.0333 38.988C93.0333 35.644 91.9293 33.436 90.4573 31.868L90.7773 31.58C92.5213 32.988 94.5853 35.228 94.5853 38.668C94.5853 41.804 92.5213 44.348 90.7773 45.756Z" fill="black"/>
</svg>
