<svg width="113" height="46" viewBox="0 0 113 46" fill="none" xmlns="http://www.w3.org/2000/svg">
<path d="M0.4 11.5V11.212L1.12 11.068C1.488 11.004 1.616 10.908 1.616 10.108V1.804C1.616 1.004 1.488 0.924 1.12 0.844L0.4 0.7V0.412H4.72C7.072 0.412 8.576 1.148 8.576 3.02C8.576 4.524 7.616 5.308 5.92 5.612V5.676C8.048 5.852 9.168 6.732 9.168 8.38C9.168 10.412 7.552 11.5 5.12 11.5H0.4ZM4.96 10.956C6.432 10.956 7.344 10.188 7.344 8.604C7.344 6.86 6.656 6.012 4.896 6.012H3.328V9.708C3.328 10.828 3.504 10.956 4.96 10.956ZM3.328 5.484H4.672C6.048 5.484 6.848 4.636 6.848 3.34C6.848 1.58 6.144 0.955999 4.576 0.955999C4.096 0.955999 3.6 0.988 3.328 1.052V5.484ZM14.1173 11.692C11.5093 11.692 10.2293 9.932 10.2293 7.34C10.2293 4.78 12.0373 3.1 14.1173 3.1C16.1013 3.1 17.3173 4.188 17.3173 7.084H11.8932C11.9093 9.724 13.0133 10.748 14.6293 10.748C15.8293 10.748 16.5653 10.364 17.1573 10.076V10.524C16.7253 10.876 15.6213 11.692 14.1173 11.692ZM14.0533 3.58C12.8853 3.58 12.0053 4.524 11.8932 6.604L15.5573 6.412C15.5573 4.492 15.2533 3.58 14.0533 3.58ZM20.7398 11.692C19.8438 11.692 18.9958 11.532 18.3558 11.308L18.3078 8.956H18.6278C18.8838 9.58 19.1398 9.98 19.4598 10.492C19.7958 11.036 20.0678 11.212 20.8998 11.212C21.8598 11.212 22.5638 10.668 22.5638 9.788C22.5638 8.924 21.9718 8.492 20.6758 7.964C19.3158 7.42 18.3558 6.748 18.3558 5.5C18.3558 4.012 19.6678 3.1 21.3158 3.1C22.1798 3.1 22.8198 3.228 23.3638 3.436L23.4278 5.468H23.1398C22.8838 4.924 22.6438 4.524 22.3398 4.124C21.9557 3.644 21.6038 3.58 21.1238 3.58C20.0838 3.58 19.5878 4.044 19.5878 4.828C19.5878 5.548 20.1478 6.092 21.4598 6.604C22.9478 7.18 23.9078 7.804 23.9078 9.036C23.9078 10.54 22.7078 11.692 20.7398 11.692ZM27.3514 11.692C26.3594 11.692 25.5434 11.228 25.5434 10.012V4.012H24.4394V3.74C25.5114 3.404 26.2954 2.652 26.7274 1.436H27.1114V3.356H29.3514L29.1914 4.012H27.1114V9.852C27.1114 10.54 27.4474 10.844 28.1674 10.844C28.6314 10.844 29.0954 10.732 29.4154 10.636V10.956C29.1274 11.18 28.4074 11.692 27.3514 11.692ZM5.504 27.692C2.72 27.692 0.56 26.06 0.56 22.044C0.56 17.772 3.056 16.22 6.032 16.22C7.248 16.22 8.32 16.396 9.008 16.604L9.152 19.772H8.784C8.528 18.972 8.08 18.092 7.744 17.548C7.44 17.052 6.96 16.796 5.856 16.796C3.6 16.796 2.384 18.092 2.384 21.74C2.384 25.644 3.488 27.116 5.632 27.116C7.056 27.116 7.488 26.812 7.856 26.252C8.304 25.564 8.576 24.956 8.88 24.108H9.2L9.04 26.988C8.32 27.34 7.024 27.692 5.504 27.692ZM14.3379 27.708C12.0979 27.708 10.3699 26.252 10.3699 23.42C10.3699 20.62 12.2899 19.1 14.3379 19.1C16.5779 19.1 18.3059 20.492 18.3059 23.324C18.3059 26.124 16.3859 27.708 14.3379 27.708ZM14.4019 27.228C15.8259 27.228 16.5779 26.092 16.5779 23.548C16.5779 20.684 15.8259 19.58 14.2899 19.58C12.8659 19.58 12.0979 20.652 12.0979 23.196C12.0979 26.06 12.8659 27.228 14.4019 27.228ZM19.07 27.5V27.228L19.71 27.052C20.014 26.972 20.126 26.844 20.126 26.22V20.86C20.126 20.22 20.046 20.188 19.662 19.996L19.07 19.692V19.468L21.566 19.132L21.678 19.196L21.646 20.124H21.71C22.494 19.612 23.646 19.116 24.654 19.116C26.238 19.116 26.782 19.804 26.782 21.244V26.22C26.782 26.844 26.91 26.972 27.198 27.052L27.838 27.228V27.5H24.158V27.228L24.798 27.052C25.118 26.972 25.214 26.892 25.214 26.22V21.596C25.214 20.476 24.846 20.108 23.854 20.108C23.086 20.108 22.158 20.38 21.694 20.524V26.22C21.694 26.892 21.79 26.972 22.11 27.052L22.75 27.228V27.5H19.07ZM31.7421 27.692C30.2221 27.692 28.5901 26.716 28.5901 23.676C28.5901 20.556 30.7501 19.116 33.0221 19.116C33.6781 19.116 34.1581 19.212 34.4781 19.308C34.4781 19.308 34.4621 18.668 34.4621 18.092V17.1C34.4621 16.46 34.3501 16.428 33.9981 16.252L33.3261 15.932V15.676L35.9661 15.42L36.0781 15.516C36.0781 15.516 36.0301 16.188 36.0301 17.42V25.868C36.0301 26.588 36.1261 26.684 36.4941 26.86L37.0861 27.132V27.356L34.5901 27.692L34.4781 27.596L34.5101 26.748H34.4461C33.7741 27.26 32.7821 27.692 31.7421 27.692ZM32.6061 26.812C33.5661 26.812 34.0941 26.46 34.4621 26.284V20.3C34.1101 19.964 33.6301 19.628 32.9101 19.628C31.2621 19.628 30.2381 20.62 30.2381 23.356C30.2381 25.788 31.0861 26.812 32.6061 26.812ZM41.6973 27.708C39.4573 27.708 37.7293 26.252 37.7293 23.42C37.7293 20.62 39.6493 19.1 41.6973 19.1C43.9373 19.1 45.6653 20.492 45.6653 23.324C45.6653 26.124 43.7453 27.708 41.6973 27.708ZM41.7613 27.228C43.1853 27.228 43.9373 26.092 43.9373 23.548C43.9373 20.684 43.1853 19.58 41.6493 19.58C40.2253 19.58 39.4573 20.652 39.4573 23.196C39.4573 26.06 40.2253 27.228 41.7613 27.228ZM49.9313 27.5V27.212L50.6513 27.068C51.0193 27.004 51.1473 26.908 51.1473 26.108V17.804C51.1473 17.004 51.0193 16.924 50.6513 16.844L49.9313 16.7V16.412H54.6033C57.5953 16.412 59.9473 17.772 59.9473 21.852C59.9473 25.596 57.7073 27.5 54.5073 27.5H49.9313ZM54.3953 26.988C57.3233 26.988 58.1553 24.924 58.1553 22.156C58.1553 18.62 57.1153 16.924 54.3633 16.924C53.5953 16.924 53.1313 16.988 52.8593 17.068V25.484C52.8593 26.764 52.9553 26.988 54.3953 26.988ZM64.836 27.692C62.228 27.692 60.948 25.932 60.948 23.34C60.948 20.78 62.756 19.1 64.836 19.1C66.82 19.1 68.036 20.188 68.036 23.084H62.612C62.628 25.724 63.732 26.748 65.348 26.748C66.548 26.748 67.284 26.364 67.876 26.076V26.524C67.444 26.876 66.34 27.692 64.836 27.692ZM64.772 19.58C63.604 19.58 62.724 20.524 62.612 22.604L66.276 22.412C66.276 20.492 65.972 19.58 64.772 19.58ZM72.1023 27.5L69.5103 20.828C69.2383 20.14 69.1263 19.916 68.6623 19.756L68.2782 19.628V19.356H71.9263V19.628L71.4943 19.74C71.0943 19.852 71.0623 19.996 71.0623 20.252C71.0623 20.444 71.1423 20.732 71.2703 21.084L72.9343 25.58H72.9983L74.6463 21.084C74.7903 20.668 74.8383 20.396 74.8383 20.22C74.8383 19.98 74.7423 19.82 74.4223 19.74L73.9903 19.628V19.356H76.5983V19.628L76.1503 19.756C75.7343 19.868 75.6383 20.204 75.3503 20.988L72.8543 27.5H72.1023ZM76.9609 27.58C76.4169 27.58 75.9689 27.148 75.9689 26.604C75.9689 26.06 76.4169 25.628 76.9609 25.628C77.5049 25.628 77.9529 26.06 77.9529 26.604C77.9529 27.148 77.5049 27.58 76.9609 27.58ZM0.256 43.5V42.652C1.536 41.596 2.864 40.348 3.616 39.5C4.88 38.076 5.648 37.148 5.648 35.276C5.648 33.34 4.688 32.764 3.696 32.764C2.736 32.764 2.528 33.004 2.464 33.532C2.384 34.236 2.08 34.652 1.488 34.652C0.864 34.652 0.624 34.22 0.624 33.82C0.624 32.988 1.856 32.22 3.856 32.22C5.872 32.22 7.408 33.26 7.408 35.388C7.408 37.74 4.576 39.916 1.728 42.028V42.092H5.712C6.576 42.092 6.72 41.964 7.264 40.844H7.552L7.296 43.5H0.256ZM13.037 43.692C11.069 43.692 8.669 42.156 8.669 38.14C8.669 33.932 11.165 32.22 13.133 32.22C15.085 32.22 17.485 33.788 17.485 37.836C17.485 42.012 14.989 43.692 13.037 43.692ZM13.085 43.148C14.813 43.148 15.709 41.628 15.709 38.14C15.709 34.444 14.813 32.764 13.085 32.764C11.373 32.764 10.461 34.284 10.461 37.836C10.461 41.468 11.373 43.148 13.085 43.148ZM17.881 43.5V42.652C19.161 41.596 20.489 40.348 21.241 39.5C22.505 38.076 23.273 37.148 23.273 35.276C23.273 33.34 22.313 32.764 21.321 32.764C20.361 32.764 20.153 33.004 20.089 33.532C20.009 34.236 19.705 34.652 19.113 34.652C18.489 34.652 18.249 34.22 18.249 33.82C18.249 32.988 19.481 32.22 21.481 32.22C23.497 32.22 25.033 33.26 25.033 35.388C25.033 37.74 22.201 39.916 19.353 42.028V42.092H23.337C24.201 42.092 24.345 41.964 24.889 40.844H25.177L24.921 43.5H17.881ZM26.1839 43.5V43.212L27.0959 43.068C27.4799 43.004 27.6399 42.908 27.6399 42.108V34.092H26.1519V33.804C27.6239 33.5 28.3759 33.132 29.1119 32.3L29.3519 32.348V42.108C29.3519 42.908 29.4319 42.988 29.8479 43.068L30.6799 43.212V43.5H26.1839ZM39.0901 45.756C37.3461 44.348 35.2821 42.108 35.2821 38.668C35.2821 35.532 37.3461 32.988 39.0901 31.58L39.4101 31.868C37.9381 33.436 36.8341 35.82 36.8341 38.348C36.8341 41.692 37.9381 43.9 39.4101 45.468L39.0901 45.756ZM39.9938 43.5V43.212L40.7778 43.068C41.1618 43.004 41.2738 42.908 41.2738 42.108V33.804C41.2738 33.004 41.1618 32.908 40.7778 32.844L39.9938 32.7V32.412H44.2658V32.7L43.4818 32.844C43.0658 32.924 42.9858 33.004 42.9858 33.804V42.108C42.9858 42.908 43.0658 42.988 43.4818 43.068L44.2658 43.212V43.5H39.9938ZM44.9919 43.5V43.228L45.6319 43.052C45.9359 42.972 46.0479 42.844 46.0479 42.22V36.86C46.0479 36.22 45.9679 36.188 45.5839 35.996L44.9919 35.692V35.468L47.4879 35.132L47.5999 35.196L47.5679 36.124H47.6319C48.4159 35.612 49.5679 35.116 50.5759 35.116C52.1599 35.116 52.7039 35.804 52.7039 37.244V42.22C52.7039 42.844 52.8319 42.972 53.1199 43.052L53.7599 43.228V43.5H50.0799V43.228L50.7199 43.052C51.0399 42.972 51.1359 42.892 51.1359 42.22V37.596C51.1359 36.476 50.7679 36.108 49.7759 36.108C49.0079 36.108 48.0799 36.38 47.6159 36.524V42.22C47.6159 42.892 47.7119 42.972 48.0319 43.052L48.6719 43.228V43.5H44.9919ZM57.664 43.692C56.144 43.692 54.512 42.716 54.512 39.676C54.512 36.556 56.672 35.116 58.944 35.116C59.6 35.116 60.08 35.212 60.4 35.308C60.4 35.308 60.384 34.668 60.384 34.092V33.1C60.384 32.46 60.272 32.428 59.92 32.252L59.248 31.932V31.676L61.888 31.42L62 31.516C62 31.516 61.952 32.188 61.952 33.42V41.868C61.952 42.588 62.048 42.684 62.416 42.86L63.008 43.132V43.356L60.512 43.692L60.4 43.596L60.432 42.748H60.368C59.696 43.26 58.704 43.692 57.664 43.692ZM58.528 42.812C59.488 42.812 60.016 42.46 60.384 42.284V36.3C60.032 35.964 59.552 35.628 58.832 35.628C57.184 35.628 56.16 36.62 56.16 39.356C56.16 41.788 57.008 42.812 58.528 42.812ZM67.6191 43.708C65.3791 43.708 63.6511 42.252 63.6511 39.42C63.6511 36.62 65.5711 35.1 67.6191 35.1C69.8591 35.1 71.5871 36.492 71.5871 39.324C71.5871 42.124 69.6671 43.708 67.6191 43.708ZM67.6831 43.228C69.1071 43.228 69.8591 42.092 69.8591 39.548C69.8591 36.684 69.1071 35.58 67.5711 35.58C66.1471 35.58 65.3791 36.652 65.3791 39.196C65.3791 42.06 66.1471 43.228 67.6831 43.228ZM72.3513 43.5V43.228L72.9913 43.052C73.2953 42.972 73.4073 42.844 73.4073 42.22V36.86C73.4073 36.22 73.3273 36.188 72.9433 35.996L72.3513 35.692V35.468L74.8473 35.132L74.9593 35.196L74.9273 36.124H74.9913C75.7753 35.612 76.9273 35.116 77.9353 35.116C79.5193 35.116 80.0633 35.804 80.0633 37.244V42.22C80.0633 42.844 80.1913 42.972 80.4792 43.052L81.1193 43.228V43.5H77.4393V43.228L78.0793 43.052C78.3993 42.972 78.4953 42.892 78.4953 42.22V37.596C78.4953 36.476 78.1273 36.108 77.1353 36.108C76.3673 36.108 75.4393 36.38 74.9753 36.524V42.22C74.9753 42.892 75.0713 42.972 75.3913 43.052L76.0312 43.228V43.5H72.3513ZM85.6954 43.692C83.0874 43.692 81.8074 41.932 81.8074 39.34C81.8074 36.78 83.6154 35.1 85.6954 35.1C87.6794 35.1 88.8954 36.188 88.8954 39.084H83.4714C83.4874 41.724 84.5914 42.748 86.2074 42.748C87.4074 42.748 88.1434 42.364 88.7354 42.076V42.524C88.3034 42.876 87.1994 43.692 85.6954 43.692ZM85.6314 35.58C84.4634 35.58 83.5834 36.524 83.4714 38.604L87.1354 38.412C87.1354 36.492 86.8314 35.58 85.6314 35.58ZM92.3179 43.692C91.4219 43.692 90.5739 43.532 89.9339 43.308L89.8859 40.956H90.2059C90.4619 41.58 90.7179 41.98 91.0379 42.492C91.3739 43.036 91.6459 43.212 92.4779 43.212C93.4379 43.212 94.1419 42.668 94.1419 41.788C94.1419 40.924 93.5499 40.492 92.2539 39.964C90.8939 39.42 89.9339 38.748 89.9339 37.5C89.9339 36.012 91.2459 35.1 92.8939 35.1C93.7579 35.1 94.3979 35.228 94.9419 35.436L95.0059 37.468H94.7179C94.4619 36.924 94.2219 36.524 93.9179 36.124C93.5339 35.644 93.1819 35.58 92.7019 35.58C91.6619 35.58 91.1659 36.044 91.1659 36.828C91.1659 37.548 91.7259 38.092 93.0379 38.604C94.5259 39.18 95.4859 39.804 95.4859 41.036C95.4859 42.54 94.2859 43.692 92.3179 43.692ZM96.2575 43.5V43.228L96.8975 43.052C97.2015 42.972 97.3135 42.844 97.3135 42.22V36.86C97.3135 36.22 97.2335 36.188 96.8495 35.996L96.2575 35.692V35.468L98.8335 35.132L98.9455 35.196C98.9455 35.196 98.8815 35.884 98.8815 36.7V42.22C98.8815 42.892 98.9775 42.972 99.2975 43.052L99.9375 43.228V43.5H96.2575ZM98.0335 33.868C97.5055 33.868 97.0735 33.42 97.0735 32.924C97.0735 32.412 97.5055 31.98 98.0335 31.98C98.5615 31.98 98.9935 32.412 98.9935 32.924C98.9935 33.42 98.5615 33.868 98.0335 33.868ZM102.892 43.708C101.42 43.708 100.508 42.956 100.508 41.58C100.508 40.268 101.756 39.708 102.796 39.468L105.084 38.924V37.276C105.084 36.204 104.924 35.58 103.596 35.58C102.908 35.58 102.716 35.74 102.652 36.204C102.572 36.78 102.492 37.244 101.804 37.244C101.196 37.244 100.956 36.86 100.956 36.46C100.956 35.468 102.604 35.1 103.916 35.1C105.804 35.1 106.652 35.804 106.652 37.18V42.108C106.652 42.524 106.764 42.78 107.068 42.94C107.244 43.036 107.5 43.068 107.836 43.084V43.324C107.596 43.5 107.004 43.692 106.46 43.692C105.66 43.692 105.244 43.292 105.148 42.764H105.068C104.684 43.292 103.804 43.708 102.892 43.708ZM103.564 42.924C104.316 42.924 104.86 42.572 105.084 42.172V39.58L103.868 39.708C102.828 39.82 102.108 40.252 102.108 41.452C102.108 42.38 102.652 42.924 103.564 42.924ZM108.496 45.756L108.176 45.468C109.648 43.9 110.752 41.516 110.752 38.988C110.752 35.644 109.648 33.436 108.176 31.868L108.496 31.58C110.24 32.988 112.304 35.228 112.304 38.668C112.304 41.804 110.24 44.348 108.496 45.756Z" fill="black"/>
</svg>
