<svg width="158" height="45" viewBox="0 0 158 45" fill="none" xmlns="http://www.w3.org/2000/svg">
<path d="M1.4 12.5V12.212L2.12 12.068C2.488 12.004 2.616 11.908 2.616 11.108V2.804C2.616 2.004 2.488 1.924 2.12 1.844L1.4 1.7V1.412H5.72C8.072 1.412 9.576 2.148 9.576 4.02C9.576 5.524 8.616 6.308 6.92 6.612V6.676C9.048 6.852 10.168 7.732 10.168 9.38C10.168 11.412 8.552 12.5 6.12 12.5H1.4ZM5.96 11.956C7.432 11.956 8.344 11.188 8.344 9.604C8.344 7.86 7.656 7.012 5.896 7.012H4.328V10.708C4.328 11.828 4.504 11.956 5.96 11.956ZM4.328 6.484H5.672C7.048 6.484 7.848 5.636 7.848 4.34C7.848 2.58 7.144 1.956 5.576 1.956C5.096 1.956 4.6 1.988 4.328 2.052V6.484ZM15.1173 12.692C12.5093 12.692 11.2293 10.932 11.2293 8.34C11.2293 5.78 13.0373 4.1 15.1173 4.1C17.1013 4.1 18.3173 5.188 18.3173 8.084H12.8932C12.9093 10.724 14.0133 11.748 15.6293 11.748C16.8293 11.748 17.5653 11.364 18.1573 11.076V11.524C17.7253 11.876 16.6213 12.692 15.1173 12.692ZM15.0533 4.58C13.8853 4.58 13.0053 5.524 12.8932 7.604L16.5573 7.412C16.5573 5.492 16.2533 4.58 15.0533 4.58ZM21.7398 12.692C20.8438 12.692 19.9958 12.532 19.3558 12.308L19.3078 9.956H19.6278C19.8838 10.58 20.1398 10.98 20.4598 11.492C20.7958 12.036 21.0678 12.212 21.8998 12.212C22.8598 12.212 23.5638 11.668 23.5638 10.788C23.5638 9.924 22.9718 9.492 21.6758 8.964C20.3158 8.42 19.3558 7.748 19.3558 6.5C19.3558 5.012 20.6678 4.1 22.3158 4.1C23.1798 4.1 23.8198 4.228 24.3638 4.436L24.4278 6.468H24.1398C23.8838 5.924 23.6438 5.524 23.3398 5.124C22.9557 4.644 22.6038 4.58 22.1238 4.58C21.0838 4.58 20.5878 5.044 20.5878 5.828C20.5878 6.548 21.1478 7.092 22.4598 7.604C23.9478 8.18 24.9078 8.804 24.9078 10.036C24.9078 11.54 23.7078 12.692 21.7398 12.692ZM28.3514 12.692C27.3594 12.692 26.5434 12.228 26.5434 11.012V5.012H25.4394V4.74C26.5114 4.404 27.2954 3.652 27.7274 2.436H28.1114V4.356H30.3514L30.1914 5.012H28.1114V10.852C28.1114 11.54 28.4474 11.844 29.1674 11.844C29.6314 11.844 30.0954 11.732 30.4154 11.636V11.956C30.1274 12.18 29.4074 12.692 28.3514 12.692ZM39.4571 12.692C36.6731 12.692 34.5131 11.06 34.5131 7.044C34.5131 2.772 37.0091 1.22 39.9851 1.22C41.2011 1.22 42.2731 1.396 42.9611 1.604L43.1051 4.772H42.7371C42.4811 3.972 42.0331 3.092 41.6971 2.548C41.3931 2.052 40.9131 1.796 39.8091 1.796C37.5531 1.796 36.3371 3.092 36.3371 6.74C36.3371 10.644 37.4411 12.116 39.5851 12.116C41.0091 12.116 41.4411 11.812 41.8091 11.252C42.2571 10.564 42.5291 9.956 42.8331 9.108H43.1531L42.9931 11.988C42.2731 12.34 40.9771 12.692 39.4571 12.692ZM48.291 12.708C46.051 12.708 44.323 11.252 44.323 8.42C44.323 5.62 46.243 4.1 48.291 4.1C50.531 4.1 52.259 5.492 52.259 8.324C52.259 11.124 50.339 12.708 48.291 12.708ZM48.355 12.228C49.779 12.228 50.531 11.092 50.531 8.548C50.531 5.684 49.779 4.58 48.243 4.58C46.819 4.58 46.051 5.652 46.051 8.196C46.051 11.06 46.819 12.228 48.355 12.228ZM53.0231 12.5V12.228L53.6631 12.052C53.9671 11.972 54.0791 11.844 54.0791 11.22V5.86C54.0791 5.22 53.9991 5.188 53.6151 4.996L53.0231 4.692V4.468L55.5191 4.132L55.6311 4.196L55.5991 5.124H55.6631C56.4471 4.612 57.5991 4.116 58.6071 4.116C60.1911 4.116 60.7351 4.804 60.7351 6.244V11.22C60.7351 11.844 60.8631 11.972 61.1511 12.052L61.7911 12.228V12.5H58.1111V12.228L58.7511 12.052C59.0711 11.972 59.1671 11.892 59.1671 11.22V6.596C59.1671 5.476 58.7991 5.108 57.8071 5.108C57.0391 5.108 56.1111 5.38 55.6471 5.524V11.22C55.6471 11.892 55.7431 11.972 56.0631 12.052L56.7031 12.228V12.5H53.0231ZM65.6953 12.692C64.1753 12.692 62.5433 11.716 62.5433 8.676C62.5433 5.556 64.7033 4.116 66.9753 4.116C67.6313 4.116 68.1113 4.212 68.4313 4.308C68.4313 4.308 68.4153 3.668 68.4153 3.092V2.1C68.4153 1.46 68.3033 1.428 67.9513 1.252L67.2793 0.931999V0.676L69.9193 0.419999L70.0312 0.516C70.0312 0.516 69.9833 1.188 69.9833 2.42V10.868C69.9833 11.588 70.0793 11.684 70.4473 11.86L71.0393 12.132V12.356L68.5433 12.692L68.4313 12.596L68.4633 11.748H68.3993C67.7273 12.26 66.7352 12.692 65.6953 12.692ZM66.5593 11.812C67.5193 11.812 68.0473 11.46 68.4153 11.284V5.3C68.0633 4.964 67.5833 4.628 66.8633 4.628C65.2153 4.628 64.1913 5.62 64.1913 8.356C64.1913 10.788 65.0393 11.812 66.5593 11.812ZM75.6504 12.708C73.4104 12.708 71.6824 11.252 71.6824 8.42C71.6824 5.62 73.6024 4.1 75.6504 4.1C77.8904 4.1 79.6184 5.492 79.6184 8.324C79.6184 11.124 77.6984 12.708 75.6504 12.708ZM75.7144 12.228C77.1384 12.228 77.8904 11.092 77.8904 8.548C77.8904 5.684 77.1384 4.58 75.6024 4.58C74.1784 4.58 73.4104 5.652 73.4104 8.196C73.4104 11.06 74.1784 12.228 75.7144 12.228ZM83.8844 12.5V12.212L84.6044 12.068C84.9724 12.004 85.1004 11.908 85.1004 11.108V2.804C85.1004 2.004 84.9724 1.924 84.6044 1.844L83.8844 1.7V1.412H88.1244V1.7L87.3084 1.86C86.9084 1.94 86.8124 2.004 86.8124 2.804V10.436C86.8124 11.764 86.8604 11.956 88.5564 11.956C89.9644 11.956 90.2844 11.844 90.7324 11.204C90.9724 10.868 91.3564 10.1 91.6764 9.044H92.0604L91.8684 12.5H83.8844ZM95.3298 12.708C93.8578 12.708 92.9458 11.956 92.9458 10.58C92.9458 9.268 94.1938 8.708 95.2338 8.468L97.5218 7.924V6.276C97.5218 5.204 97.3618 4.58 96.0338 4.58C95.3458 4.58 95.1538 4.74 95.0898 5.204C95.0098 5.78 94.9298 6.244 94.2418 6.244C93.6338 6.244 93.3938 5.86 93.3938 5.46C93.3938 4.468 95.0418 4.1 96.3538 4.1C98.2418 4.1 99.0898 4.804 99.0898 6.18V11.108C99.0898 11.524 99.2018 11.78 99.5058 11.94C99.6818 12.036 99.9378 12.068 100.274 12.084V12.324C100.034 12.5 99.4418 12.692 98.8978 12.692C98.0978 12.692 97.6818 12.292 97.5858 11.764H97.5058C97.1218 12.292 96.2418 12.708 95.3298 12.708ZM96.0018 11.924C96.7538 11.924 97.2977 11.572 97.5218 11.172V8.58L96.3058 8.708C95.2658 8.82 94.5458 9.252 94.5458 10.452C94.5458 11.38 95.0898 11.924 96.0018 11.924ZM100.758 12.5V12.228L101.398 12.052C101.702 11.972 101.814 11.844 101.814 11.22V5.86C101.814 5.22 101.734 5.188 101.35 4.996L100.758 4.692V4.468L103.254 4.132L103.366 4.196L103.334 5.124H103.398C104.182 4.612 105.334 4.116 106.342 4.116C107.926 4.116 108.47 4.804 108.47 6.244V11.22C108.47 11.844 108.598 11.972 108.885 12.052L109.526 12.228V12.5H105.846V12.228L106.486 12.052C106.806 11.972 106.902 11.892 106.902 11.22V6.596C106.902 5.476 106.534 5.108 105.542 5.108C104.774 5.108 103.846 5.38 103.382 5.524V11.22C103.382 11.892 103.478 11.972 103.798 12.052L104.438 12.228V12.5H100.758ZM113.43 12.692C111.91 12.692 110.278 11.716 110.278 8.676C110.278 5.556 112.438 4.116 114.71 4.116C115.366 4.116 115.846 4.212 116.166 4.308C116.166 4.308 116.15 3.668 116.15 3.092V2.1C116.15 1.46 116.038 1.428 115.686 1.252L115.014 0.931999V0.676L117.654 0.419999L117.766 0.516C117.766 0.516 117.718 1.188 117.718 2.42V10.868C117.718 11.588 117.814 11.684 118.182 11.86L118.774 12.132V12.356L116.278 12.692L116.166 12.596L116.198 11.748H116.134C115.462 12.26 114.47 12.692 113.43 12.692ZM114.294 11.812C115.254 11.812 115.782 11.46 116.15 11.284V5.3C115.798 4.964 115.318 4.628 114.598 4.628C112.95 4.628 111.926 5.62 111.926 8.356C111.926 10.788 112.774 11.812 114.294 11.812ZM121.865 12.692C120.969 12.692 120.121 12.532 119.481 12.308L119.433 9.956H119.753C120.009 10.58 120.265 10.98 120.585 11.492C120.921 12.036 121.193 12.212 122.025 12.212C122.985 12.212 123.689 11.668 123.689 10.788C123.689 9.924 123.097 9.492 121.801 8.964C120.441 8.42 119.481 7.748 119.481 6.5C119.481 5.012 120.793 4.1 122.441 4.1C123.305 4.1 123.945 4.228 124.489 4.436L124.553 6.468H124.265C124.009 5.924 123.769 5.524 123.465 5.124C123.081 4.644 122.729 4.58 122.249 4.58C121.209 4.58 120.713 5.044 120.713 5.828C120.713 6.548 121.273 7.092 122.585 7.604C124.073 8.18 125.033 8.804 125.033 10.036C125.033 11.54 123.833 12.692 121.865 12.692ZM129.644 12.692C127.228 12.692 125.932 10.948 125.932 8.532C125.932 5.092 128.476 4.1 130.412 4.1C131.916 4.1 132.62 4.628 132.62 5.444C132.62 5.94 132.252 6.308 131.692 6.308C131.084 6.308 130.892 5.972 130.812 5.444C130.7 4.724 130.556 4.612 129.996 4.612C128.7 4.612 127.596 5.476 127.596 7.956C127.596 10.436 128.412 11.748 130.172 11.748C131.228 11.748 132.204 11.364 132.716 11.076V11.524C132.236 11.956 131.116 12.692 129.644 12.692ZM135.924 12.708C134.452 12.708 133.54 11.956 133.54 10.58C133.54 9.268 134.788 8.708 135.828 8.468L138.116 7.924V6.276C138.116 5.204 137.956 4.58 136.628 4.58C135.94 4.58 135.748 4.74 135.684 5.204C135.604 5.78 135.524 6.244 134.836 6.244C134.228 6.244 133.988 5.86 133.988 5.46C133.988 4.468 135.636 4.1 136.948 4.1C138.836 4.1 139.684 4.804 139.684 6.18V11.108C139.684 11.524 139.796 11.78 140.1 11.94C140.276 12.036 140.532 12.068 140.868 12.084V12.324C140.628 12.5 140.036 12.692 139.492 12.692C138.692 12.692 138.276 12.292 138.18 11.764H138.1C137.716 12.292 136.836 12.708 135.924 12.708ZM136.596 11.924C137.348 11.924 137.891 11.572 138.116 11.172V8.58L136.9 8.708C135.86 8.82 135.14 9.252 135.14 10.452C135.14 11.38 135.684 11.924 136.596 11.924ZM141.351 15.684V15.412L141.991 15.236C142.311 15.156 142.407 15.028 142.407 14.404V5.86C142.407 5.22 142.327 5.188 141.943 4.996L141.351 4.692V4.468L143.847 4.132L143.959 4.196L143.943 5.06H144.007C144.679 4.548 145.655 4.116 146.695 4.116C148.215 4.116 149.847 4.996 149.847 8.036C149.847 11.076 148.055 12.692 145.335 12.692C144.919 12.692 144.391 12.612 143.959 12.484C143.959 12.484 143.975 12.964 143.975 13.508V14.404C143.975 15.076 144.055 15.172 144.391 15.236L145.239 15.412V15.684H141.351ZM145.511 12.18C147.319 12.18 148.199 11.156 148.199 8.356C148.199 6.068 147.303 5.044 145.751 5.044C144.871 5.044 144.343 5.348 143.975 5.524V11.588C144.407 11.972 144.839 12.18 145.511 12.18ZM154.695 12.692C152.087 12.692 150.807 10.932 150.807 8.34C150.807 5.78 152.615 4.1 154.695 4.1C156.679 4.1 157.895 5.188 157.895 8.084H152.471C152.487 10.724 153.591 11.748 155.207 11.748C156.407 11.748 157.143 11.364 157.735 11.076V11.524C157.303 11.876 156.199 12.692 154.695 12.692ZM154.631 4.58C153.463 4.58 152.583 5.524 152.471 7.604L156.135 7.412C156.135 5.492 155.831 4.58 154.631 4.58ZM0.936 28.5V28.212L1.4 28.1C1.848 27.988 1.96 27.86 2.456 26.452L5.64 17.412H6.52L9.864 26.628C10.28 27.764 10.472 27.988 10.872 28.1L11.304 28.212V28.5H7.224V28.212L7.672 28.1C8.088 27.988 8.216 27.828 8.216 27.556C8.216 27.316 8.104 26.9 7.96 26.484L7.288 24.58H3.768L3.144 26.484C3 26.916 2.952 27.252 2.952 27.476C2.952 27.844 3.128 28.02 3.512 28.1L4.04 28.212V28.5H0.936ZM5.448 19.54L3.944 24.052H7.112L5.528 19.54H5.448ZM11.5544 28.5V28.228L12.1944 28.052C12.4984 27.972 12.6104 27.844 12.6104 27.22V21.86C12.6104 21.22 12.5304 21.188 12.1464 20.996L11.5544 20.692V20.468L14.0504 20.132L14.1624 20.228L14.1304 21.188H14.1944C14.7544 20.628 15.6824 20.1 16.4664 20.1C17.1224 20.1 17.5064 20.436 17.5064 21.044C17.5064 21.636 17.1224 21.956 16.6584 21.956C16.0824 21.956 15.9064 21.684 15.7784 21.348C15.6984 21.124 15.6504 21.076 15.5064 21.076C15.1864 21.076 14.4664 21.412 14.1784 21.732V27.22C14.1784 27.892 14.2744 27.988 14.5944 28.052L15.3944 28.228V28.5H11.5544ZM21.6131 28.692C19.1971 28.692 17.9011 26.948 17.9011 24.532C17.9011 21.092 20.4451 20.1 22.3811 20.1C23.8851 20.1 24.5891 20.628 24.5891 21.444C24.5891 21.94 24.2211 22.308 23.6611 22.308C23.0531 22.308 22.8611 21.972 22.7811 21.444C22.6691 20.724 22.5251 20.612 21.9651 20.612C20.6691 20.612 19.5651 21.476 19.5651 23.956C19.5651 26.436 20.3811 27.748 22.1411 27.748C23.1971 27.748 24.1731 27.364 24.6851 27.076V27.524C24.2051 27.956 23.0851 28.692 21.6131 28.692ZM25.2419 28.5V28.228L25.8819 28.052C26.1859 27.972 26.2979 27.844 26.2979 27.22V18.1C26.2979 17.46 26.1859 17.428 25.8339 17.252L25.1619 16.932V16.676L27.8179 16.42L27.9299 16.516C27.9299 16.516 27.8659 17.348 27.8659 18.42V19.716C27.8659 20.436 27.8179 21.124 27.8179 21.124H27.8819C28.6659 20.612 29.8179 20.116 30.8259 20.116C32.4099 20.116 32.9539 20.804 32.9539 22.244V27.22C32.9539 27.844 33.0819 27.972 33.3699 28.052L34.0099 28.228V28.5H30.3299V28.228L30.9699 28.052C31.2899 27.972 31.3859 27.892 31.3859 27.22V22.596C31.3859 21.476 31.0179 21.108 30.0259 21.108C29.2579 21.108 28.3299 21.38 27.8659 21.524V27.22C27.8659 27.892 27.9619 27.972 28.2819 28.052L28.9219 28.228V28.5H25.2419ZM34.57 28.5V28.228L35.21 28.052C35.514 27.972 35.626 27.844 35.626 27.22V21.86C35.626 21.22 35.546 21.188 35.162 20.996L34.57 20.692V20.468L37.146 20.132L37.258 20.196C37.258 20.196 37.194 20.884 37.194 21.7V27.22C37.194 27.892 37.29 27.972 37.61 28.052L38.25 28.228V28.5H34.57ZM36.346 18.868C35.818 18.868 35.386 18.42 35.386 17.924C35.386 17.412 35.818 16.98 36.346 16.98C36.874 16.98 37.306 17.412 37.306 17.924C37.306 18.42 36.874 18.868 36.346 18.868ZM41.4608 28.692C40.4688 28.692 39.6528 28.228 39.6528 27.012V21.012H38.5488V20.74C39.6208 20.404 40.4048 19.652 40.8368 18.436H41.2208V20.356H43.4608L43.3008 21.012H41.2208V26.852C41.2208 27.54 41.5568 27.844 42.2768 27.844C42.7408 27.844 43.2048 27.732 43.5248 27.636V27.956C43.2368 28.18 42.5168 28.692 41.4608 28.692ZM47.8985 28.692C45.2905 28.692 44.0105 26.932 44.0105 24.34C44.0105 21.78 45.8185 20.1 47.8985 20.1C49.8825 20.1 51.0985 21.188 51.0985 24.084H45.6745C45.6905 26.724 46.7945 27.748 48.4105 27.748C49.6105 27.748 50.3465 27.364 50.9385 27.076V27.524C50.5065 27.876 49.4025 28.692 47.8985 28.692ZM47.8345 20.58C46.6665 20.58 45.7865 21.524 45.6745 23.604L49.3385 23.412C49.3385 21.492 49.0345 20.58 47.8345 20.58ZM55.7069 28.692C53.2909 28.692 51.9949 26.948 51.9949 24.532C51.9949 21.092 54.5389 20.1 56.4749 20.1C57.9789 20.1 58.6829 20.628 58.6829 21.444C58.6829 21.94 58.3149 22.308 57.7549 22.308C57.1469 22.308 56.9549 21.972 56.8749 21.444C56.7629 20.724 56.6189 20.612 56.0589 20.612C54.7629 20.612 53.6589 21.476 53.6589 23.956C53.6589 26.436 54.4749 27.748 56.2349 27.748C57.2909 27.748 58.2669 27.364 58.7789 27.076V27.524C58.2989 27.956 57.1789 28.692 55.7069 28.692ZM62.242 28.692C61.25 28.692 60.434 28.228 60.434 27.012V21.012H59.33V20.74C60.402 20.404 61.186 19.652 61.618 18.436H62.002V20.356H64.242L64.082 21.012H62.002V26.852C62.002 27.54 62.338 27.844 63.058 27.844C63.522 27.844 63.986 27.732 64.306 27.636V27.956C64.018 28.18 63.298 28.692 62.242 28.692ZM67.8619 28.692C66.5339 28.692 65.7339 27.956 65.7339 26.596V21.7C65.7339 21.108 65.6699 21.092 65.3179 20.932L64.6779 20.644V20.404L67.1419 20.132L67.3019 20.26V26.276C67.3019 27.204 67.7179 27.716 68.6619 27.716C69.4299 27.716 70.2459 27.412 70.8219 27.204V21.7C70.8219 21.108 70.7739 21.092 70.4059 20.932L69.7659 20.644V20.404L72.2299 20.132L72.3899 20.26V26.868C72.3899 27.588 72.4859 27.684 72.8539 27.86L73.4459 28.132V28.356L70.9499 28.692L70.8379 28.596L70.8699 27.604H70.8059C69.9739 28.164 68.9499 28.692 67.8619 28.692ZM73.9606 28.5V28.228L74.6006 28.052C74.9046 27.972 75.0166 27.844 75.0166 27.22V21.86C75.0166 21.22 74.9366 21.188 74.5526 20.996L73.9606 20.692V20.468L76.4566 20.132L76.5686 20.228L76.5366 21.188H76.6006C77.1606 20.628 78.0886 20.1 78.8726 20.1C79.5286 20.1 79.9126 20.436 79.9126 21.044C79.9126 21.636 79.5286 21.956 79.0646 21.956C78.4886 21.956 78.3126 21.684 78.1846 21.348C78.1046 21.124 78.0566 21.076 77.9126 21.076C77.5926 21.076 76.8726 21.412 76.5846 21.732V27.22C76.5846 27.892 76.6806 27.988 77.0006 28.052L77.8006 28.228V28.5H73.9606ZM82.7516 28.708C81.2796 28.708 80.3676 27.956 80.3676 26.58C80.3676 25.268 81.6156 24.708 82.6556 24.468L84.9436 23.924V22.276C84.9436 21.204 84.7836 20.58 83.4556 20.58C82.7676 20.58 82.5756 20.74 82.5116 21.204C82.4316 21.78 82.3516 22.244 81.6636 22.244C81.0556 22.244 80.8156 21.86 80.8156 21.46C80.8156 20.468 82.4636 20.1 83.7756 20.1C85.6636 20.1 86.5116 20.804 86.5116 22.18V27.108C86.5116 27.524 86.6236 27.78 86.9276 27.94C87.1036 28.036 87.3596 28.068 87.6956 28.084V28.324C87.4556 28.5 86.8636 28.692 86.3196 28.692C85.5196 28.692 85.1036 28.292 85.0076 27.764H84.9276C84.5436 28.292 83.6636 28.708 82.7516 28.708ZM83.4236 27.924C84.1756 27.924 84.7196 27.572 84.9436 27.172V24.58L83.7276 24.708C82.6876 24.82 81.9676 25.252 81.9676 26.452C81.9676 27.38 82.5116 27.924 83.4236 27.924ZM88.1794 28.5V28.228L88.8194 28.052C89.1234 27.972 89.2354 27.844 89.2354 27.22V18.1C89.2354 17.46 89.1234 17.428 88.7714 17.252L88.0994 16.932V16.676L90.7554 16.42L90.8674 16.516C90.8674 16.516 90.8034 17.348 90.8034 18.42V27.22C90.8034 27.892 90.8994 27.972 91.2194 28.052L91.8594 28.228V28.5H88.1794ZM95.9156 28.5V28.212L96.6356 28.068C97.0036 28.004 97.1316 27.908 97.1316 27.108V18.804C97.1316 18.004 97.0036 17.924 96.6356 17.844L95.9156 17.7V17.412H100.588C103.58 17.412 105.932 18.772 105.932 22.852C105.932 26.596 103.692 28.5 100.492 28.5H95.9156ZM100.38 27.988C103.308 27.988 104.14 25.924 104.14 23.156C104.14 19.62 103.1 17.924 100.348 17.924C99.5796 17.924 99.1156 17.988 98.8436 18.068V26.484C98.8436 27.764 98.9396 27.988 100.38 27.988ZM110.82 28.692C108.212 28.692 106.932 26.932 106.932 24.34C106.932 21.78 108.74 20.1 110.82 20.1C112.804 20.1 114.02 21.188 114.02 24.084H108.596C108.612 26.724 109.716 27.748 111.332 27.748C112.532 27.748 113.268 27.364 113.86 27.076V27.524C113.428 27.876 112.324 28.692 110.82 28.692ZM110.756 20.58C109.588 20.58 108.708 21.524 108.596 23.604L112.26 23.412C112.26 21.492 111.956 20.58 110.756 20.58ZM117.443 28.692C116.547 28.692 115.699 28.532 115.059 28.308L115.011 25.956H115.331C115.587 26.58 115.843 26.98 116.163 27.492C116.499 28.036 116.771 28.212 117.603 28.212C118.563 28.212 119.267 27.668 119.267 26.788C119.267 25.924 118.675 25.492 117.379 24.964C116.019 24.42 115.059 23.748 115.059 22.5C115.059 21.012 116.371 20.1 118.019 20.1C118.883 20.1 119.523 20.228 120.067 20.436L120.131 22.468H119.843C119.587 21.924 119.347 21.524 119.043 21.124C118.659 20.644 118.307 20.58 117.827 20.58C116.787 20.58 116.291 21.044 116.291 21.828C116.291 22.548 116.851 23.092 118.163 23.604C119.651 24.18 120.611 24.804 120.611 26.036C120.611 27.54 119.411 28.692 117.443 28.692ZM121.383 28.5V28.228L122.023 28.052C122.327 27.972 122.439 27.844 122.439 27.22V21.86C122.439 21.22 122.359 21.188 121.975 20.996L121.383 20.692V20.468L123.959 20.132L124.071 20.196C124.071 20.196 124.007 20.884 124.007 21.7V27.22C124.007 27.892 124.103 27.972 124.423 28.052L125.062 28.228V28.5H121.383ZM123.159 18.868C122.631 18.868 122.199 18.42 122.199 17.924C122.199 17.412 122.631 16.98 123.159 16.98C123.687 16.98 124.119 17.412 124.119 17.924C124.119 18.42 123.687 18.868 123.159 18.868ZM128.497 31.764C126.385 31.764 125.089 30.98 125.089 29.844C125.089 29.06 125.777 28.452 126.897 28.116V28.052C126.289 27.86 125.841 27.46 125.841 26.772C125.841 26.02 126.513 25.428 127.041 25.06V24.996C126.337 24.692 125.713 23.892 125.713 22.9C125.713 21.012 127.329 20.116 128.833 20.116C129.457 20.116 130.049 20.26 130.545 20.516C130.977 20.148 131.585 19.812 132.289 19.812C132.785 19.812 133.153 20.068 133.153 20.564C133.153 20.964 132.913 21.284 132.497 21.284C132.081 21.284 131.921 21.092 131.793 20.804C131.633 20.452 131.265 20.468 130.849 20.692V20.74C131.505 21.124 131.953 21.86 131.953 22.756C131.953 24.644 130.337 25.476 128.833 25.476C128.305 25.476 127.857 25.38 127.441 25.22C127.201 25.38 126.897 25.684 126.897 26.068C126.897 26.468 127.217 26.692 127.889 26.692H130.513C131.873 26.692 132.801 27.14 132.801 28.724C132.801 29.972 131.777 31.764 128.497 31.764ZM128.769 31.284C130.321 31.284 131.713 30.66 131.713 29.38C131.713 28.66 131.345 28.148 130.225 28.148H127.601C127.105 28.276 126.545 28.74 126.545 29.588C126.545 30.724 127.265 31.284 128.769 31.284ZM128.833 25.028C129.809 25.028 130.337 24.452 130.337 22.948C130.337 21.268 129.809 20.564 128.833 20.564C127.857 20.564 127.329 21.204 127.329 22.708C127.329 24.388 127.857 25.028 128.833 25.028ZM133.414 28.5V28.228L134.054 28.052C134.358 27.972 134.47 27.844 134.47 27.22V21.86C134.47 21.22 134.39 21.188 134.006 20.996L133.414 20.692V20.468L135.91 20.132L136.022 20.196L135.99 21.124H136.054C136.838 20.612 137.99 20.116 138.998 20.116C140.582 20.116 141.126 20.804 141.126 22.244V27.22C141.126 27.844 141.254 27.972 141.542 28.052L142.182 28.228V28.5H138.502V28.228L139.142 28.052C139.462 27.972 139.558 27.892 139.558 27.22V22.596C139.558 21.476 139.19 21.108 138.198 21.108C137.43 21.108 136.502 21.38 136.038 21.524V27.22C136.038 27.892 136.134 27.972 136.454 28.052L137.094 28.228V28.5H133.414ZM1.256 44.5V43.652C2.536 42.596 3.864 41.348 4.616 40.5C5.88 39.076 6.648 38.148 6.648 36.276C6.648 34.34 5.688 33.764 4.696 33.764C3.736 33.764 3.528 34.004 3.464 34.532C3.384 35.236 3.08 35.652 2.488 35.652C1.864 35.652 1.624 35.22 1.624 34.82C1.624 33.988 2.856 33.22 4.856 33.22C6.872 33.22 8.408 34.26 8.408 36.388C8.408 38.74 5.576 40.916 2.728 43.028V43.092H6.712C7.576 43.092 7.72 42.964 8.264 41.844H8.552L8.296 44.5H1.256ZM14.037 44.692C12.069 44.692 9.669 43.156 9.669 39.14C9.669 34.932 12.165 33.22 14.133 33.22C16.085 33.22 18.485 34.788 18.485 38.836C18.485 43.012 15.989 44.692 14.037 44.692ZM14.085 44.148C15.813 44.148 16.709 42.628 16.709 39.14C16.709 35.444 15.813 33.764 14.085 33.764C12.373 33.764 11.461 35.284 11.461 38.836C11.461 42.468 12.373 44.148 14.085 44.148ZM18.881 44.5V43.652C20.161 42.596 21.489 41.348 22.241 40.5C23.505 39.076 24.273 38.148 24.273 36.276C24.273 34.34 23.313 33.764 22.321 33.764C21.361 33.764 21.153 34.004 21.089 34.532C21.009 35.236 20.705 35.652 20.113 35.652C19.489 35.652 19.249 35.22 19.249 34.82C19.249 33.988 20.481 33.22 22.481 33.22C24.497 33.22 26.033 34.26 26.033 36.388C26.033 38.74 23.201 40.916 20.353 43.028V43.092H24.337C25.201 43.092 25.345 42.964 25.889 41.844H26.177L25.921 44.5H18.881ZM27.1839 44.5V44.212L28.0959 44.068C28.4799 44.004 28.6399 43.908 28.6399 43.108V35.092H27.1519V34.804C28.6239 34.5 29.3759 34.132 30.1119 33.3L30.3519 33.348V43.108C30.3519 43.908 30.4319 43.988 30.8479 44.068L31.6799 44.212V44.5H27.1839Z" fill="black"/>
</svg>
