<svg width="40" height="40" viewBox="0 0 40 40" fill="none" xmlns="http://www.w3.org/2000/svg">
<g clip-path="url(#clip0_618_3593)">
<g clip-path="url(#clip1_618_3593)">
<path d="M16.6666 5H23.3333C30.6971 5 36.6666 10.9695 36.6666 18.3333C36.6666 25.6972 30.6971 31.6667 23.3333 31.6667V37.5C14.9999 34.1667 3.33325 29.1667 3.33325 18.3333C3.33325 10.9695 9.30278 5 16.6666 5ZM19.9999 28.3333H23.3333C28.8561 28.3333 33.3333 23.8562 33.3333 18.3333C33.3333 12.8105 28.8561 8.33333 23.3333 8.33333H16.6666C11.1437 8.33333 6.66659 12.8105 6.66659 18.3333C6.66659 24.35 10.7701 28.276 19.9999 32.4663V28.3333Z" fill="white"/>
</g>
</g>
<defs>
<clipPath id="clip0_618_3593">
<rect width="40" height="40" fill="white"/>
</clipPath>
<clipPath id="clip1_618_3593">
<rect width="40" height="40" fill="white"/>
</clipPath>
</defs>
</svg>
