<svg width="65" height="65" viewBox="0 0 65 65" fill="none" xmlns="http://www.w3.org/2000/svg">
<rect width="65" height="65" rx="32.5" fill="#013F24"/>
<g clip-path="url(#clip0_188_2610)">
<path d="M31.9999 24.515L23.5149 33L31.9999 41.485L40.4849 33L31.9999 24.515ZM32.7069 22.393L42.6069 32.293C42.7944 32.4805 42.8997 32.7348 42.8997 33C42.8997 33.2652 42.7944 33.5195 42.6069 33.707L32.7069 43.607C32.5194 43.7945 32.265 43.8998 31.9999 43.8998C31.7347 43.8998 31.4804 43.7945 31.2929 43.607L21.3929 33.707C21.2054 33.5195 21.1001 33.2652 21.1001 33C21.1001 32.7348 21.2054 32.4805 21.3929 32.293L31.2929 22.393C31.4804 22.2055 31.7347 22.1002 31.9999 22.1002C32.265 22.1002 32.5194 22.2055 32.7069 22.393ZM32.9999 31V28.5L36.4999 32L32.9999 35.5V33H29.9999V36H27.9999V32C27.9999 31.7348 28.1052 31.4804 28.2928 31.2929C28.4803 31.1054 28.7347 31 28.9999 31H32.9999Z" fill="#fcf5ed"/>
</g>
<defs>
<clipPath id="clip0_188_2610">
<rect width="24" height="24" fill="#fcf5ed" transform="translate(20 21)"/>
</clipPath>
</defs>
</svg>
