<svg width="40" height="40" viewBox="0 0 40 40" fill="none" xmlns="http://www.w3.org/2000/svg">
<g clip-path="url(#clip0_592_1098)">
<path d="M20 5.85832L5.85838 20L20 34.1417L34.1417 20L20 5.85832ZM21.1784 2.32166L37.6784 18.8217C37.9908 19.1342 38.1664 19.558 38.1664 20C38.1664 20.4419 37.9908 20.8658 37.6784 21.1783L21.1784 37.6783C20.8658 37.9908 20.442 38.1663 20 38.1663C19.5581 38.1663 19.1343 37.9908 18.8217 37.6783L2.32172 21.1783C2.00927 20.8658 1.83374 20.4419 1.83374 20C1.83374 19.558 2.00927 19.1342 2.32172 18.8217L18.8217 2.32166C19.1343 2.0092 19.5581 1.83368 20 1.83368C20.442 1.83368 20.8658 2.0092 21.1784 2.32166ZM21.6667 16.6667V12.5L27.5 18.3333L21.6667 24.1667V20H16.6667V25H13.3334V18.3333C13.3334 17.8913 13.509 17.4674 13.8215 17.1548C14.1341 16.8423 14.558 16.6667 15.0001 16.6667H21.6667Z" fill="#FCF5ED"/>
</g>
<defs>
<clipPath id="clip0_592_1098">
<rect width="40" height="40" fill="white"/>
</clipPath>
</defs>
</svg>
