<svg width="228" height="228" viewBox="0 0 228 228" fill="none" xmlns="http://www.w3.org/2000/svg">
<path d="M70.5171 107.041C70.4897 107.014 70.4761 106.941 70.4761 106.822C70.4761 106.667 70.4897 106.59 70.5171 106.59C70.5991 106.59 70.7039 106.576 70.8315 106.549C70.9683 106.521 71.0959 106.485 71.2144 106.439C71.342 106.394 71.4149 106.344 71.4331 106.289C71.4969 106.107 71.5288 105.692 71.5288 105.045V99.877C71.5288 99.321 71.4969 98.9473 71.4331 98.7559C71.4149 98.6829 71.3465 98.6237 71.228 98.5781C71.1187 98.5234 70.991 98.4824 70.8452 98.4551C70.7085 98.4277 70.5946 98.4141 70.5034 98.4141C70.467 98.4141 70.4487 98.3457 70.4487 98.209C70.4487 98.0814 70.467 97.9993 70.5034 97.9629C70.8042 97.9811 71.105 97.9993 71.4058 98.0176C71.7065 98.0267 72.0119 98.0312 72.3218 98.0312C72.5223 98.0312 72.8003 98.0267 73.1558 98.0176C73.5112 97.9993 73.9396 97.9811 74.4409 97.9629C75.4526 97.9355 76.2183 97.9219 76.7378 97.9219C76.756 98.0586 76.7834 98.2227 76.8198 98.4141C76.8563 98.6055 76.9019 98.8197 76.9565 99.0566L77.1343 99.8633C77.0887 99.9089 76.993 99.9316 76.8472 99.9316C76.7469 99.9316 76.6831 99.8997 76.6558 99.8359C76.355 99.0247 75.7716 98.6191 74.9058 98.6191H74.1948C73.5112 98.6191 73.1649 98.6784 73.1558 98.7969C73.1011 99.0521 73.0737 99.4212 73.0737 99.9043V102.051C73.0737 102.105 73.2743 102.133 73.6753 102.133H74.4409C74.9604 102.133 75.2749 102.11 75.3843 102.064C75.4845 102.019 75.562 101.859 75.6167 101.586C75.644 101.467 75.6714 101.354 75.6987 101.244C75.7078 101.18 75.7808 101.148 75.9175 101.148C76.0451 101.148 76.1317 101.171 76.1772 101.217V103.801C76.1408 103.837 76.0542 103.855 75.9175 103.855C75.799 103.855 75.7261 103.819 75.6987 103.746C75.6623 103.618 75.6304 103.514 75.603 103.432C75.5757 103.34 75.5529 103.263 75.5347 103.199C75.4891 103.099 75.4618 103.044 75.4526 103.035C75.4435 103.017 75.3979 102.98 75.3159 102.926C75.1883 102.853 74.769 102.816 74.0581 102.816C73.4019 102.816 73.0737 102.853 73.0737 102.926V105.045C73.0737 105.546 73.1147 105.915 73.1968 106.152C73.2332 106.271 73.5431 106.33 74.1265 106.33H74.6323C75.3524 106.33 75.8947 106.234 76.2593 106.043C76.4051 105.97 76.5692 105.811 76.7515 105.564C76.9338 105.318 77.075 105.04 77.1753 104.73C77.1935 104.676 77.2573 104.648 77.3667 104.648C77.5672 104.648 77.6948 104.676 77.7495 104.73L77.312 105.947C77.2573 106.093 77.1981 106.28 77.1343 106.508C77.0705 106.727 77.0295 106.904 77.0112 107.041C76.6466 107.041 75.8947 107.027 74.7554 107C74.1812 106.982 73.6935 106.973 73.2925 106.973C72.8914 106.973 72.5724 106.977 72.3354 106.986L70.5171 107.041ZM78.4741 107.055C78.4377 106.982 78.4194 106.918 78.4194 106.863C78.4194 106.681 78.4377 106.59 78.4741 106.59C78.5653 106.59 78.6883 106.576 78.8433 106.549C79.0073 106.512 79.1668 106.467 79.3218 106.412C79.4858 106.348 79.6043 106.271 79.6772 106.18L82.4663 102.447L80.5933 99.5898C80.2651 99.0703 79.9917 98.7422 79.7729 98.6055C79.5542 98.4688 79.3035 98.4004 79.021 98.4004C78.9937 98.4004 78.98 98.332 78.98 98.1953C78.98 98.0677 78.9937 97.9857 79.021 97.9492C79.3765 97.9674 79.7 97.9857 79.9917 98.0039C80.2925 98.0221 80.5796 98.0312 80.853 98.0312C81.0991 98.0312 81.7189 98.0039 82.7124 97.9492C82.7215 97.9766 82.7261 98.0586 82.7261 98.1953C82.7261 98.332 82.7124 98.4004 82.6851 98.4004C82.5301 98.4004 82.3615 98.4323 82.1792 98.4961C81.9969 98.5508 81.9058 98.6419 81.9058 98.7695C81.9058 98.8607 81.9513 98.9792 82.0425 99.125L83.5874 101.463L84.0386 100.889L84.5718 100.219C84.8634 99.8451 85.0868 99.5443 85.2417 99.3164C85.3966 99.0794 85.4741 98.9154 85.4741 98.8242C85.4741 98.724 85.3693 98.6283 85.1597 98.5371C84.9591 98.446 84.7358 98.4004 84.4897 98.4004C84.4533 98.4004 84.4305 98.3366 84.4214 98.209C84.4214 98.0723 84.4396 97.9857 84.4761 97.9492C85.4058 98.0039 85.9754 98.0312 86.1851 98.0312C86.3127 98.0312 86.8732 98.0039 87.8667 97.9492C87.8849 98.0039 87.894 98.0859 87.894 98.1953C87.894 98.332 87.8804 98.4004 87.853 98.4004C87.7619 98.4004 87.6297 98.4186 87.4565 98.4551C87.2834 98.4824 87.1147 98.5326 86.9507 98.6055C86.7866 98.6693 86.6636 98.7559 86.5815 98.8652L84.0112 102.119L86.6226 106.029C86.7684 106.221 86.9644 106.362 87.2104 106.453C87.4657 106.544 87.689 106.59 87.8804 106.59C87.9168 106.59 87.9351 106.681 87.9351 106.863C87.9351 106.918 87.9259 106.982 87.9077 107.055C86.9142 107 86.34 106.973 86.1851 106.973C85.8114 106.973 85.4285 106.982 85.0366 107C84.6538 107.018 84.3439 107.036 84.1069 107.055C84.0705 107.018 84.0522 106.932 84.0522 106.795C84.0614 106.658 84.0841 106.59 84.1206 106.59C84.2026 106.59 84.3029 106.576 84.4214 106.549C84.549 106.512 84.6584 106.467 84.7495 106.412C84.8498 106.348 84.8999 106.28 84.8999 106.207C84.8999 106.152 84.8817 106.102 84.8452 106.057L82.9312 103.145C81.5457 104.995 80.853 106.007 80.853 106.18C80.853 106.28 80.9487 106.371 81.1401 106.453C81.3133 106.544 81.5412 106.59 81.8237 106.59C81.8693 106.59 81.8921 106.676 81.8921 106.85C81.8921 106.932 81.883 107 81.8647 107.055C80.9806 107 80.4201 106.973 80.1831 106.973C80.0464 106.973 79.4767 107 78.4741 107.055ZM93.062 107.082C92.4604 107.082 91.8953 106.964 91.3667 106.727C90.8472 106.49 90.3869 106.166 89.9858 105.756C89.5848 105.346 89.2703 104.872 89.0425 104.334C88.8237 103.787 88.7144 103.208 88.7144 102.598C88.7144 101.951 88.8283 101.344 89.0562 100.779C89.284 100.205 89.603 99.7038 90.0132 99.2754C90.4233 98.8379 90.9019 98.4961 91.4487 98.25C91.9956 98.0039 92.5835 97.8809 93.2124 97.8809C94.2424 97.8809 95.3179 98.0039 96.439 98.25C96.4572 98.25 96.4709 98.3411 96.48 98.5234C96.4982 98.6966 96.5119 98.9062 96.521 99.1523C96.5301 99.3893 96.5392 99.6126 96.5483 99.8223C96.5575 100.032 96.562 100.173 96.562 100.246C96.562 100.383 96.4526 100.451 96.2339 100.451C96.1701 100.451 96.1063 100.433 96.0425 100.396C96.006 100.232 95.9377 100.064 95.8374 99.8906C95.7463 99.7174 95.605 99.5215 95.4136 99.3027C95.2222 99.084 94.9396 98.9062 94.5659 98.7695C94.1922 98.6237 93.7593 98.5508 93.2671 98.5508C92.6746 98.5508 92.1642 98.724 91.7358 99.0703C91.3166 99.4076 90.993 99.8587 90.7651 100.424C90.5464 100.989 90.437 101.618 90.437 102.311C90.437 103.076 90.5601 103.769 90.8062 104.389C91.0614 105.008 91.4305 105.505 91.9136 105.879C92.3966 106.243 92.9754 106.426 93.6499 106.426C94.452 106.426 95.0946 106.171 95.5776 105.66C95.7235 105.505 95.8328 105.332 95.9058 105.141C95.9878 104.94 96.0516 104.767 96.0972 104.621C96.1427 104.466 96.1838 104.389 96.2202 104.389C96.5392 104.389 96.717 104.43 96.7534 104.512C96.7534 104.566 96.7306 104.699 96.6851 104.908C96.6486 105.109 96.603 105.332 96.5483 105.578C96.4937 105.815 96.4344 106.025 96.3706 106.207C96.3159 106.389 96.2703 106.49 96.2339 106.508C95.4409 106.891 94.3836 107.082 93.062 107.082ZM97.519 107.041C97.4917 107.014 97.478 106.941 97.478 106.822C97.478 106.667 97.4917 106.59 97.519 106.59C97.6011 106.59 97.7059 106.576 97.8335 106.549C97.9702 106.521 98.0978 106.485 98.2163 106.439C98.3439 106.394 98.4168 106.344 98.4351 106.289C98.4989 106.107 98.5308 105.692 98.5308 105.045V99.877C98.5308 99.321 98.4989 98.9473 98.4351 98.7559C98.4168 98.6829 98.3485 98.6237 98.23 98.5781C98.1206 98.5234 97.993 98.4824 97.8472 98.4551C97.7104 98.4277 97.5965 98.4141 97.5054 98.4141C97.4689 98.4141 97.4507 98.3457 97.4507 98.209C97.4507 98.0814 97.4689 97.9993 97.5054 97.9629C97.8062 97.9811 98.1069 97.9993 98.4077 98.0176C98.7085 98.0267 99.0138 98.0312 99.3237 98.0312C99.5243 98.0312 99.8022 98.0267 100.158 98.0176C100.513 97.9993 100.942 97.9811 101.443 97.9629C102.455 97.9355 103.22 97.9219 103.74 97.9219C103.758 98.0586 103.785 98.2227 103.822 98.4141C103.858 98.6055 103.904 98.8197 103.958 99.0566L104.136 99.8633C104.091 99.9089 103.995 99.9316 103.849 99.9316C103.749 99.9316 103.685 99.8997 103.658 99.8359C103.357 99.0247 102.774 98.6191 101.908 98.6191H101.197C100.513 98.6191 100.167 98.6784 100.158 98.7969C100.103 99.0521 100.076 99.4212 100.076 99.9043V102.051C100.076 102.105 100.276 102.133 100.677 102.133H101.443C101.962 102.133 102.277 102.11 102.386 102.064C102.486 102.019 102.564 101.859 102.619 101.586C102.646 101.467 102.673 101.354 102.701 101.244C102.71 101.18 102.783 101.148 102.919 101.148C103.047 101.148 103.134 101.171 103.179 101.217V103.801C103.143 103.837 103.056 103.855 102.919 103.855C102.801 103.855 102.728 103.819 102.701 103.746C102.664 103.618 102.632 103.514 102.605 103.432C102.578 103.34 102.555 103.263 102.537 103.199C102.491 103.099 102.464 103.044 102.455 103.035C102.445 103.017 102.4 102.98 102.318 102.926C102.19 102.853 101.771 102.816 101.06 102.816C100.404 102.816 100.076 102.853 100.076 102.926V105.045C100.076 105.546 100.117 105.915 100.199 106.152C100.235 106.271 100.545 106.33 101.128 106.33H101.634C102.354 106.33 102.897 106.234 103.261 106.043C103.407 105.97 103.571 105.811 103.753 105.564C103.936 105.318 104.077 105.04 104.177 104.73C104.195 104.676 104.259 104.648 104.369 104.648C104.569 104.648 104.697 104.676 104.751 104.73L104.314 105.947C104.259 106.093 104.2 106.28 104.136 106.508C104.072 106.727 104.031 106.904 104.013 107.041C103.649 107.041 102.897 107.027 101.757 107C101.183 106.982 100.695 106.973 100.294 106.973C99.8934 106.973 99.5744 106.977 99.3374 106.986L97.519 107.041ZM105.503 107.041C105.476 107.014 105.462 106.941 105.462 106.822C105.462 106.667 105.476 106.59 105.503 106.59C105.585 106.59 105.69 106.576 105.818 106.549C105.955 106.521 106.082 106.485 106.201 106.439C106.328 106.394 106.401 106.344 106.419 106.289C106.483 106.107 106.515 105.692 106.515 105.045V99.877C106.515 99.3392 106.479 98.9518 106.406 98.7148C106.388 98.6602 106.319 98.61 106.201 98.5645C106.091 98.5189 105.968 98.4824 105.832 98.4551C105.704 98.4186 105.604 98.4004 105.531 98.4004C105.494 98.4004 105.476 98.332 105.476 98.1953C105.476 98.0495 105.485 97.9674 105.503 97.9492L106.269 97.9902C106.497 97.9993 106.697 98.013 106.871 98.0312C107.053 98.0404 107.203 98.0404 107.322 98.0312L109.072 97.9492C109.099 98.0312 109.113 98.1042 109.113 98.168C109.113 98.3229 109.095 98.4004 109.058 98.4004C109.003 98.4004 108.908 98.4186 108.771 98.4551C108.634 98.4915 108.502 98.5326 108.375 98.5781C108.256 98.6237 108.188 98.6693 108.169 98.7148C108.133 98.8607 108.106 99.0339 108.087 99.2344C108.069 99.4258 108.06 99.6536 108.06 99.918V105.059C108.06 105.496 108.101 105.861 108.183 106.152C108.22 106.271 108.529 106.33 109.113 106.33H109.619C110.339 106.33 110.881 106.234 111.246 106.043C111.391 105.97 111.556 105.811 111.738 105.564C111.92 105.318 112.061 105.04 112.162 104.73C112.18 104.676 112.244 104.648 112.353 104.648C112.554 104.648 112.681 104.676 112.736 104.73L112.298 105.947C112.244 106.093 112.184 106.28 112.121 106.508C112.057 106.727 112.016 106.904 111.998 107.041C111.633 107.041 110.881 107.027 109.742 107C109.167 106.982 108.68 106.973 108.279 106.973C107.878 106.973 107.559 106.977 107.322 106.986L105.503 107.041ZM113.488 107.041C113.46 107.014 113.447 106.941 113.447 106.822C113.447 106.667 113.46 106.59 113.488 106.59C113.57 106.59 113.675 106.576 113.802 106.549C113.939 106.521 114.067 106.485 114.185 106.439C114.313 106.394 114.386 106.344 114.404 106.289C114.468 106.107 114.5 105.692 114.5 105.045V99.877C114.5 99.3392 114.463 98.9518 114.39 98.7148C114.372 98.6602 114.304 98.61 114.185 98.5645C114.076 98.5189 113.953 98.4824 113.816 98.4551C113.688 98.4186 113.588 98.4004 113.515 98.4004C113.479 98.4004 113.46 98.332 113.46 98.1953C113.46 98.0495 113.47 97.9674 113.488 97.9492L114.253 97.9902C114.481 97.9993 114.682 98.013 114.855 98.0312C115.037 98.0404 115.188 98.0404 115.306 98.0312L117.056 97.9492C117.083 98.0312 117.097 98.1042 117.097 98.168C117.097 98.3229 117.079 98.4004 117.042 98.4004C116.988 98.4004 116.892 98.4186 116.755 98.4551C116.619 98.4915 116.486 98.5326 116.359 98.5781C116.24 98.6237 116.172 98.6693 116.154 98.7148C116.117 98.8607 116.09 99.0339 116.072 99.2344C116.054 99.4258 116.044 99.6536 116.044 99.918V105.059C116.044 105.496 116.085 105.861 116.167 106.152C116.204 106.271 116.514 106.33 117.097 106.33H117.603C118.323 106.33 118.865 106.234 119.23 106.043C119.376 105.97 119.54 105.811 119.722 105.564C119.904 105.318 120.046 105.04 120.146 104.73C120.164 104.676 120.228 104.648 120.337 104.648C120.538 104.648 120.666 104.676 120.72 104.73L120.283 105.947C120.228 106.093 120.169 106.28 120.105 106.508C120.041 106.727 120 106.904 119.982 107.041C119.617 107.041 118.865 107.027 117.726 107C117.152 106.982 116.664 106.973 116.263 106.973C115.862 106.973 115.543 106.977 115.306 106.986L113.488 107.041ZM121.472 107.041C121.445 107.014 121.431 106.941 121.431 106.822C121.431 106.667 121.445 106.59 121.472 106.59C121.554 106.59 121.659 106.576 121.787 106.549C121.923 106.521 122.051 106.485 122.169 106.439C122.297 106.394 122.37 106.344 122.388 106.289C122.452 106.107 122.484 105.692 122.484 105.045V99.877C122.484 99.321 122.452 98.9473 122.388 98.7559C122.37 98.6829 122.302 98.6237 122.183 98.5781C122.074 98.5234 121.946 98.4824 121.8 98.4551C121.664 98.4277 121.55 98.4141 121.458 98.4141C121.422 98.4141 121.404 98.3457 121.404 98.209C121.404 98.0814 121.422 97.9993 121.458 97.9629C121.759 97.9811 122.06 97.9993 122.361 98.0176C122.662 98.0267 122.967 98.0312 123.277 98.0312C123.477 98.0312 123.755 98.0267 124.111 98.0176C124.466 97.9993 124.895 97.9811 125.396 97.9629C126.408 97.9355 127.173 97.9219 127.693 97.9219C127.711 98.0586 127.738 98.2227 127.775 98.4141C127.811 98.6055 127.857 98.8197 127.912 99.0566L128.089 99.8633C128.044 99.9089 127.948 99.9316 127.802 99.9316C127.702 99.9316 127.638 99.8997 127.611 99.8359C127.31 99.0247 126.727 98.6191 125.861 98.6191H125.15C124.466 98.6191 124.12 98.6784 124.111 98.7969C124.056 99.0521 124.029 99.4212 124.029 99.9043V102.051C124.029 102.105 124.229 102.133 124.63 102.133H125.396C125.916 102.133 126.23 102.11 126.339 102.064C126.44 102.019 126.517 101.859 126.572 101.586C126.599 101.467 126.626 101.354 126.654 101.244C126.663 101.18 126.736 101.148 126.873 101.148C127 101.148 127.087 101.171 127.132 101.217V103.801C127.096 103.837 127.009 103.855 126.873 103.855C126.754 103.855 126.681 103.819 126.654 103.746C126.617 103.618 126.585 103.514 126.558 103.432C126.531 103.34 126.508 103.263 126.49 103.199C126.444 103.099 126.417 103.044 126.408 103.035C126.399 103.017 126.353 102.98 126.271 102.926C126.143 102.853 125.724 102.816 125.013 102.816C124.357 102.816 124.029 102.853 124.029 102.926V105.045C124.029 105.546 124.07 105.915 124.152 106.152C124.188 106.271 124.498 106.33 125.082 106.33H125.587C126.307 106.33 126.85 106.234 127.214 106.043C127.36 105.97 127.524 105.811 127.707 105.564C127.889 105.318 128.03 105.04 128.13 104.73C128.149 104.676 128.212 104.648 128.322 104.648C128.522 104.648 128.65 104.676 128.705 104.73L128.267 105.947C128.212 106.093 128.153 106.28 128.089 106.508C128.026 106.727 127.985 106.904 127.966 107.041C127.602 107.041 126.85 107.027 125.71 107C125.136 106.982 124.649 106.973 124.248 106.973C123.847 106.973 123.528 106.977 123.291 106.986L121.472 107.041ZM137.427 107.068C137.291 107.068 137.145 106.964 136.99 106.754L131.548 99.5352V105.072C131.548 105.601 131.585 105.975 131.658 106.193C131.694 106.266 131.785 106.335 131.931 106.398C132.086 106.453 132.246 106.499 132.41 106.535C132.583 106.572 132.706 106.59 132.779 106.59C132.806 106.59 132.82 106.654 132.82 106.781C132.829 106.909 132.824 106.995 132.806 107.041L131.097 106.959C130.933 106.959 130.737 106.968 130.509 106.986C130.291 106.995 130.081 107.005 129.88 107.014C129.689 107.023 129.552 107.032 129.47 107.041C129.434 107.005 129.416 106.927 129.416 106.809C129.416 106.663 129.434 106.59 129.47 106.59C129.58 106.59 129.712 106.576 129.867 106.549C130.022 106.512 130.167 106.467 130.304 106.412C130.45 106.348 130.546 106.271 130.591 106.18C130.682 105.997 130.728 105.615 130.728 105.031V99.6719C130.728 99.1888 130.678 98.8561 130.578 98.6738C130.559 98.6283 130.477 98.5872 130.332 98.5508C130.186 98.5143 130.031 98.4824 129.867 98.4551C129.712 98.4277 129.589 98.4141 129.498 98.4141C129.461 98.4141 129.438 98.3457 129.429 98.209C129.429 98.0723 129.447 97.9857 129.484 97.9492C129.967 97.9674 130.341 97.9857 130.605 98.0039C130.878 98.013 131.047 98.0176 131.111 98.0176C131.266 98.0176 131.444 98.013 131.644 98.0039C131.854 97.9857 132.086 97.9674 132.341 97.9492C132.542 98.3138 132.865 98.8014 133.312 99.4121C133.759 100.023 134.287 100.729 134.898 101.531C135.509 102.324 136.151 103.19 136.826 104.129C136.835 104.074 136.839 104.001 136.839 103.91C136.848 103.81 136.853 103.696 136.853 103.568V99.8496C136.853 99.3574 136.807 98.9928 136.716 98.7559C136.689 98.6829 136.607 98.6191 136.47 98.5645C136.333 98.5098 136.188 98.4688 136.033 98.4414C135.878 98.4141 135.75 98.4004 135.65 98.4004C135.613 98.4004 135.591 98.3366 135.582 98.209C135.582 98.0723 135.595 97.9857 135.623 97.9492C136.106 97.9857 136.488 98.013 136.771 98.0312C137.063 98.0404 137.254 98.0449 137.345 98.0449C137.464 98.0449 137.6 98.0404 137.755 98.0312C137.91 98.0221 138.079 98.0085 138.261 97.9902C138.635 97.9629 138.867 97.9492 138.958 97.9492C138.977 98.0039 138.986 98.0768 138.986 98.168C138.986 98.3229 138.968 98.4004 138.931 98.4004C138.849 98.4004 138.731 98.4186 138.576 98.4551C138.421 98.4824 138.27 98.5234 138.125 98.5781C137.979 98.6328 137.878 98.7012 137.824 98.7832C137.723 99.0384 137.673 99.4167 137.673 99.918V105.1C137.673 105.264 137.678 105.505 137.687 105.824C137.696 106.143 137.71 106.54 137.728 107.014C137.692 107.05 137.591 107.068 137.427 107.068ZM144.031 107.082C143.429 107.082 142.864 106.964 142.335 106.727C141.816 106.49 141.356 106.166 140.955 105.756C140.554 105.346 140.239 104.872 140.011 104.334C139.792 103.787 139.683 103.208 139.683 102.598C139.683 101.951 139.797 101.344 140.025 100.779C140.253 100.205 140.572 99.7038 140.982 99.2754C141.392 98.8379 141.871 98.4961 142.417 98.25C142.964 98.0039 143.552 97.8809 144.181 97.8809C145.211 97.8809 146.287 98.0039 147.408 98.25C147.426 98.25 147.44 98.3411 147.449 98.5234C147.467 98.6966 147.481 98.9062 147.49 99.1523C147.499 99.3893 147.508 99.6126 147.517 99.8223C147.526 100.032 147.531 100.173 147.531 100.246C147.531 100.383 147.421 100.451 147.203 100.451C147.139 100.451 147.075 100.433 147.011 100.396C146.975 100.232 146.906 100.064 146.806 99.8906C146.715 99.7174 146.574 99.5215 146.382 99.3027C146.191 99.084 145.908 98.9062 145.535 98.7695C145.161 98.6237 144.728 98.5508 144.236 98.5508C143.643 98.5508 143.133 98.724 142.705 99.0703C142.285 99.4076 141.962 99.8587 141.734 100.424C141.515 100.989 141.406 101.618 141.406 102.311C141.406 103.076 141.529 103.769 141.775 104.389C142.03 105.008 142.399 105.505 142.882 105.879C143.365 106.243 143.944 106.426 144.619 106.426C145.421 106.426 146.063 106.171 146.546 105.66C146.692 105.505 146.802 105.332 146.875 105.141C146.957 104.94 147.02 104.767 147.066 104.621C147.111 104.466 147.153 104.389 147.189 104.389C147.508 104.389 147.686 104.43 147.722 104.512C147.722 104.566 147.699 104.699 147.654 104.908C147.617 105.109 147.572 105.332 147.517 105.578C147.462 105.815 147.403 106.025 147.339 106.207C147.285 106.389 147.239 106.49 147.203 106.508C146.41 106.891 145.352 107.082 144.031 107.082ZM148.488 107.041C148.46 107.014 148.447 106.941 148.447 106.822C148.447 106.667 148.46 106.59 148.488 106.59C148.57 106.59 148.675 106.576 148.802 106.549C148.939 106.521 149.067 106.485 149.185 106.439C149.313 106.394 149.386 106.344 149.404 106.289C149.468 106.107 149.5 105.692 149.5 105.045V99.877C149.5 99.321 149.468 98.9473 149.404 98.7559C149.386 98.6829 149.317 98.6237 149.199 98.5781C149.089 98.5234 148.962 98.4824 148.816 98.4551C148.679 98.4277 148.565 98.4141 148.474 98.4141C148.438 98.4141 148.419 98.3457 148.419 98.209C148.419 98.0814 148.438 97.9993 148.474 97.9629C148.775 97.9811 149.076 97.9993 149.376 98.0176C149.677 98.0267 149.983 98.0312 150.292 98.0312C150.493 98.0312 150.771 98.0267 151.126 98.0176C151.482 97.9993 151.91 97.9811 152.412 97.9629C153.423 97.9355 154.189 97.9219 154.708 97.9219C154.727 98.0586 154.754 98.2227 154.791 98.4141C154.827 98.6055 154.873 98.8197 154.927 99.0566L155.105 99.8633C155.059 99.9089 154.964 99.9316 154.818 99.9316C154.718 99.9316 154.654 99.8997 154.626 99.8359C154.326 99.0247 153.742 98.6191 152.876 98.6191H152.166C151.482 98.6191 151.136 98.6784 151.126 98.7969C151.072 99.0521 151.044 99.4212 151.044 99.9043V102.051C151.044 102.105 151.245 102.133 151.646 102.133H152.412C152.931 102.133 153.246 102.11 153.355 102.064C153.455 102.019 153.533 101.859 153.587 101.586C153.615 101.467 153.642 101.354 153.669 101.244C153.679 101.18 153.751 101.148 153.888 101.148C154.016 101.148 154.102 101.171 154.148 101.217V103.801C154.111 103.837 154.025 103.855 153.888 103.855C153.77 103.855 153.697 103.819 153.669 103.746C153.633 103.618 153.601 103.514 153.574 103.432C153.546 103.34 153.524 103.263 153.505 103.199C153.46 103.099 153.432 103.044 153.423 103.035C153.414 103.017 153.369 102.98 153.287 102.926C153.159 102.853 152.74 102.816 152.029 102.816C151.373 102.816 151.044 102.853 151.044 102.926V105.045C151.044 105.546 151.085 105.915 151.167 106.152C151.204 106.271 151.514 106.33 152.097 106.33H152.603C153.323 106.33 153.865 106.234 154.23 106.043C154.376 105.97 154.54 105.811 154.722 105.564C154.904 105.318 155.046 105.04 155.146 104.73C155.164 104.676 155.228 104.648 155.337 104.648C155.538 104.648 155.666 104.676 155.72 104.73L155.283 105.947C155.228 106.093 155.169 106.28 155.105 106.508C155.041 106.727 155 106.904 154.982 107.041C154.617 107.041 153.865 107.027 152.726 107C152.152 106.982 151.664 106.973 151.263 106.973C150.862 106.973 150.543 106.977 150.306 106.986L148.488 107.041Z" fill="black"/>
<path d="M75.312 89.0205C75.2983 89.0068 75.2915 88.9704 75.2915 88.9111C75.2915 88.8337 75.2983 88.7949 75.312 88.7949C75.353 88.7949 75.4054 88.7881 75.4692 88.7744C75.5376 88.7607 75.6014 88.7425 75.6606 88.7197C75.7244 88.6969 75.7609 88.6719 75.77 88.6445C75.8019 88.5534 75.8179 88.346 75.8179 88.0225V85.4385C75.8179 85.1605 75.8019 84.9736 75.77 84.8779C75.7609 84.8415 75.7267 84.8118 75.6675 84.7891C75.6128 84.7617 75.549 84.7412 75.4761 84.7275C75.4077 84.7139 75.3507 84.707 75.3052 84.707C75.2869 84.707 75.2778 84.6729 75.2778 84.6045C75.2778 84.5407 75.2869 84.4997 75.3052 84.4814C75.451 84.4906 75.5991 84.4974 75.7495 84.502C75.8999 84.5065 76.0526 84.5088 76.2075 84.5088C76.4217 84.5133 76.784 84.5065 77.2944 84.4883C77.5496 84.4792 77.7707 84.4723 77.9575 84.4678C78.1444 84.4632 78.297 84.4609 78.4155 84.4609C78.4246 84.5293 78.4383 84.6113 78.4565 84.707C78.4748 84.8027 78.4976 84.9098 78.5249 85.0283L78.6138 85.4316C78.591 85.4544 78.5431 85.4658 78.4702 85.4658C78.4201 85.4658 78.3882 85.4499 78.3745 85.418C78.2241 85.0124 77.9325 84.8096 77.4995 84.8096H77.144C76.8022 84.8096 76.6291 84.8392 76.6245 84.8984C76.6154 84.9531 76.6063 85.026 76.5972 85.1172C76.5926 85.2083 76.5903 85.32 76.5903 85.4521V86.5254C76.5903 86.5527 76.6906 86.5664 76.8911 86.5664H77.2671C77.5269 86.5664 77.6841 86.555 77.7388 86.5322C77.7889 86.5094 77.8276 86.4297 77.855 86.293C77.8687 86.2337 77.8823 86.1768 77.896 86.1221C77.9006 86.0902 77.937 86.0742 78.0054 86.0742C78.0692 86.0742 78.1125 86.0856 78.1353 86.1084V87.4004C78.117 87.4186 78.0737 87.4277 78.0054 87.4277C77.9461 87.4277 77.9097 87.4095 77.896 87.373C77.8778 87.3092 77.8618 87.2568 77.8481 87.2158C77.8345 87.1702 77.8231 87.1315 77.814 87.0996C77.7912 87.0495 77.7775 87.0221 77.7729 87.0176C77.7684 87.0085 77.7456 86.9902 77.7046 86.9629C77.6408 86.9264 77.4312 86.9082 77.0757 86.9082C76.7521 86.9082 76.5903 86.9264 76.5903 86.9629V88.0361C76.5903 88.2777 76.6154 88.4668 76.6655 88.6035C76.6792 88.6309 76.7225 88.6605 76.7954 88.6924C76.8683 88.7197 76.9458 88.7448 77.0278 88.7676C77.1144 88.7858 77.1737 88.7949 77.2056 88.7949C77.2284 88.7949 77.2397 88.8337 77.2397 88.9111C77.2397 88.9613 77.2329 88.9977 77.2192 89.0205C76.6724 88.9932 76.3488 88.9795 76.2485 88.9795C76.1118 88.9795 75.966 88.984 75.811 88.9932C75.6561 88.9977 75.5353 89.0046 75.4487 89.0137L75.312 89.0205ZM78.9897 89.0205C78.9715 89.0023 78.9624 88.9704 78.9624 88.9248C78.9624 88.8382 78.9715 88.7949 78.9897 88.7949C79.0262 88.7949 79.0786 88.7881 79.147 88.7744C79.2153 88.7607 79.2791 88.7425 79.3384 88.7197C79.3976 88.6924 79.4318 88.6673 79.4409 88.6445C79.4591 88.5716 79.4728 88.4873 79.4819 88.3916C79.491 88.2959 79.4956 88.1888 79.4956 88.0703V85.4316C79.4956 85.1673 79.4774 84.9759 79.4409 84.8574C79.4318 84.8301 79.3976 84.805 79.3384 84.7822C79.2837 84.7594 79.2222 84.7412 79.1538 84.7275C79.09 84.7093 79.0399 84.7002 79.0034 84.7002C78.9852 84.7002 78.9761 84.666 78.9761 84.5977C78.9761 84.5247 78.9806 84.4837 78.9897 84.4746L79.3726 84.4951C79.4865 84.4997 79.5868 84.5065 79.6733 84.5156C79.7645 84.5202 79.8397 84.5202 79.8989 84.5156L80.7739 84.4746C80.7876 84.5156 80.7944 84.5521 80.7944 84.584C80.7944 84.6615 80.7853 84.7002 80.7671 84.7002C80.7397 84.7002 80.6919 84.7093 80.6235 84.7275C80.5552 84.7458 80.4891 84.7663 80.4253 84.7891C80.366 84.8118 80.3319 84.8346 80.3228 84.8574C80.3045 84.9303 80.2909 85.0169 80.2817 85.1172C80.2726 85.2129 80.2681 85.3268 80.2681 85.459V88.0293C80.2681 88.2799 80.2886 88.485 80.3296 88.6445C80.3387 88.6628 80.3706 88.6855 80.4253 88.7129C80.4845 88.7357 80.5461 88.7562 80.6099 88.7744C80.6782 88.7881 80.7261 88.7949 80.7534 88.7949C80.7716 88.7949 80.7808 88.8382 80.7808 88.9248C80.7808 88.9521 80.7762 88.984 80.7671 89.0205L79.8989 88.9795C79.7394 88.9704 79.5754 88.9727 79.4067 88.9863C79.2381 89 79.0991 89.0114 78.9897 89.0205ZM81.2046 89.0205C81.1864 89.0023 81.1772 88.9681 81.1772 88.918C81.1772 88.8359 81.1818 88.7949 81.1909 88.7949C81.2274 88.7949 81.2798 88.7858 81.3481 88.7676C81.4211 88.7493 81.4894 88.7266 81.5532 88.6992C81.6216 88.6673 81.6649 88.6354 81.6831 88.6035C81.7287 88.5352 81.772 88.4577 81.813 88.3711C81.854 88.2799 81.8973 88.1797 81.9429 88.0703L83.2144 84.9941C83.3237 84.7161 83.408 84.5521 83.4673 84.502C83.4992 84.4701 83.5379 84.4541 83.5835 84.4541C83.6154 84.4541 83.6427 84.4655 83.6655 84.4883L85.1011 88.0703C85.1375 88.1569 85.1717 88.2435 85.2036 88.3301C85.2401 88.4121 85.2743 88.4919 85.3062 88.5693C85.3244 88.6149 85.3654 88.6559 85.4292 88.6924C85.493 88.7243 85.5591 88.7493 85.6274 88.7676C85.6958 88.7858 85.7482 88.7949 85.7847 88.7949C85.8029 88.7949 85.812 88.8359 85.812 88.918C85.812 88.9681 85.8075 89.0023 85.7983 89.0205L84.937 88.9795L84.0483 89.0205C84.0301 89.0023 84.021 88.959 84.021 88.8906C84.021 88.8268 84.0301 88.7949 84.0483 88.7949C84.103 88.7949 84.1782 88.7812 84.2739 88.7539C84.3696 88.7266 84.4266 88.6947 84.4448 88.6582C84.4585 88.6309 84.4653 88.6012 84.4653 88.5693C84.4653 88.5238 84.4539 88.4622 84.4312 88.3848C84.4084 88.3073 84.3765 88.2116 84.3354 88.0977L84.0962 87.4619C84.078 87.4437 84.062 87.4346 84.0483 87.4346C83.9754 87.43 83.8888 87.4277 83.7886 87.4277C83.6929 87.4232 83.5835 87.4209 83.4604 87.4209C83.2144 87.4209 82.9546 87.4277 82.6812 87.4414C82.6538 87.4414 82.6401 87.4505 82.6401 87.4688L82.3804 88.1045C82.3348 88.2184 82.3006 88.3141 82.2778 88.3916C82.2596 88.4645 82.2505 88.5169 82.2505 88.5488C82.2505 88.6035 82.2756 88.6491 82.3257 88.6855C82.353 88.7038 82.394 88.722 82.4487 88.7402C82.508 88.7539 82.5672 88.7676 82.6265 88.7812C82.6857 88.7904 82.7267 88.7949 82.7495 88.7949C82.7632 88.7995 82.77 88.8314 82.77 88.8906C82.77 88.9225 82.7677 88.9499 82.7632 88.9727C82.7632 88.9909 82.7609 89.0068 82.7563 89.0205C82.5877 89.0114 82.4487 89.0023 82.3394 88.9932C82.2345 88.984 82.1366 88.9795 82.0454 88.9795C81.9543 88.9795 81.8449 88.9818 81.7173 88.9863C81.5897 88.9909 81.4188 89.0023 81.2046 89.0205ZM83.3374 87.0518C83.5015 87.0518 83.6883 87.0449 83.8979 87.0312L83.9116 87.0039L83.3921 85.6367L82.8315 87.0039C82.8315 87.0221 82.8361 87.0312 82.8452 87.0312C83.0047 87.0449 83.1688 87.0518 83.3374 87.0518ZM86.229 89.0205C86.2153 89.0068 86.2085 88.9704 86.2085 88.9111C86.2085 88.8337 86.2153 88.7949 86.229 88.7949C86.27 88.7949 86.3224 88.7881 86.3862 88.7744C86.4546 88.7607 86.5184 88.7425 86.5776 88.7197C86.6414 88.6969 86.6779 88.6719 86.687 88.6445C86.7189 88.5534 86.7349 88.346 86.7349 88.0225V85.4385C86.7349 85.1605 86.7189 84.9736 86.687 84.8779C86.6779 84.8415 86.6437 84.8118 86.5845 84.7891C86.5298 84.7617 86.466 84.7412 86.3931 84.7275C86.3247 84.7139 86.2677 84.707 86.2222 84.707C86.2039 84.707 86.1948 84.6729 86.1948 84.6045C86.1948 84.5407 86.2039 84.4997 86.2222 84.4814C86.5229 84.4951 86.826 84.502 87.1313 84.502L87.7192 84.4951H88.1294C88.4712 84.4951 88.7948 84.5771 89.1001 84.7412C89.255 84.8278 89.3804 84.9508 89.4761 85.1104C89.5763 85.2699 89.6265 85.4544 89.6265 85.6641C89.6265 85.8236 89.5786 85.9762 89.4829 86.1221C89.3872 86.2633 89.2961 86.3636 89.2095 86.4229C89.1274 86.4775 89.0568 86.5163 88.9976 86.5391C88.9611 86.5527 88.952 86.5664 88.9702 86.5801C89.0841 86.5983 89.2072 86.6598 89.3394 86.7646C89.4761 86.8649 89.5946 86.9971 89.6948 87.1611C89.7951 87.3252 89.8452 87.512 89.8452 87.7217C89.8452 87.9814 89.7723 88.2093 89.6265 88.4053C89.4852 88.5967 89.2847 88.7448 89.0249 88.8496C88.7651 88.9499 88.4598 89 88.1089 89L87.1382 88.9932L86.229 89.0205ZM87.9175 86.457C88.0861 86.457 88.2137 86.4434 88.3003 86.416C88.633 86.3431 88.7993 86.1198 88.7993 85.7461C88.7993 85.1309 88.5373 84.8232 88.0132 84.8232C87.8035 84.8232 87.6577 84.8346 87.5757 84.8574C87.5392 84.8665 87.521 84.8916 87.521 84.9326L87.5073 85.5889V86.3887C87.5073 86.4342 87.644 86.457 87.9175 86.457ZM88.0269 88.6582C88.1271 88.6582 88.2251 88.6491 88.3208 88.6309C88.4165 88.6081 88.5213 88.5693 88.6353 88.5146C88.7446 88.4645 88.8335 88.3779 88.9019 88.2549C88.9748 88.1273 89.0112 87.9746 89.0112 87.7969C89.0112 87.5052 88.9292 87.266 88.7651 87.0791C88.6056 86.8877 88.3459 86.792 87.9858 86.792C87.922 86.792 87.8537 86.7965 87.7808 86.8057C87.7124 86.8102 87.6395 86.8171 87.562 86.8262C87.5256 86.849 87.5073 86.8945 87.5073 86.9629V88.2344C87.5073 88.4212 87.5347 88.5397 87.5894 88.5898C87.6486 88.6354 87.7944 88.6582 88.0269 88.6582ZM92.3745 89.041C92.0737 89.041 91.7912 88.9818 91.5269 88.8633C91.2671 88.7448 91.0369 88.583 90.8364 88.3779C90.6359 88.1729 90.4787 87.9359 90.3647 87.667C90.2554 87.3936 90.2007 87.1042 90.2007 86.7988C90.2007 86.4753 90.2576 86.1722 90.3716 85.8896C90.4855 85.6025 90.645 85.3519 90.8501 85.1377C91.0552 84.9189 91.2944 84.748 91.5679 84.625C91.8413 84.502 92.1353 84.4404 92.4497 84.4404C92.9647 84.4404 93.5024 84.502 94.063 84.625C94.0721 84.625 94.0789 84.6706 94.0835 84.7617C94.0926 84.8483 94.0994 84.9531 94.104 85.0762C94.1086 85.1947 94.1131 85.3063 94.1177 85.4111C94.1222 85.516 94.1245 85.5866 94.1245 85.623C94.1245 85.6914 94.0698 85.7256 93.9604 85.7256C93.9285 85.7256 93.8966 85.7165 93.8647 85.6982C93.8465 85.6162 93.8123 85.5319 93.7622 85.4453C93.7166 85.3587 93.646 85.2607 93.5503 85.1514C93.4546 85.042 93.3133 84.9531 93.1265 84.8848C92.9396 84.8118 92.7231 84.7754 92.4771 84.7754C92.1808 84.7754 91.9256 84.862 91.7114 85.0352C91.5018 85.2038 91.34 85.4294 91.2261 85.7119C91.1167 85.9945 91.062 86.3089 91.062 86.6553C91.062 87.0381 91.1235 87.3844 91.2466 87.6943C91.3742 88.0042 91.5588 88.2526 91.8003 88.4395C92.0418 88.6217 92.3312 88.7129 92.6685 88.7129C93.0695 88.7129 93.3908 88.5853 93.6323 88.3301C93.7052 88.2526 93.7599 88.166 93.7964 88.0703C93.8374 87.9701 93.8693 87.8835 93.8921 87.8105C93.9149 87.7331 93.9354 87.6943 93.9536 87.6943C94.1131 87.6943 94.202 87.7148 94.2202 87.7559C94.2202 87.7832 94.2088 87.8493 94.186 87.9541C94.1678 88.0544 94.145 88.166 94.1177 88.2891C94.0903 88.4076 94.0607 88.5124 94.0288 88.6035C94.0015 88.6947 93.9787 88.7448 93.9604 88.7539C93.564 88.9453 93.0353 89.041 92.3745 89.041ZM94.603 89.0205C94.5848 89.0023 94.5757 88.9704 94.5757 88.9248C94.5757 88.8382 94.5848 88.7949 94.603 88.7949C94.6395 88.7949 94.6919 88.7881 94.7603 88.7744C94.8286 88.7607 94.8924 88.7425 94.9517 88.7197C95.0109 88.6924 95.0451 88.6673 95.0542 88.6445C95.0724 88.5716 95.0861 88.4873 95.0952 88.3916C95.1043 88.2959 95.1089 88.1888 95.1089 88.0703V85.4316C95.1089 85.1673 95.0907 84.9759 95.0542 84.8574C95.0451 84.8301 95.0109 84.805 94.9517 84.7822C94.897 84.7594 94.8354 84.7412 94.7671 84.7275C94.7033 84.7093 94.6532 84.7002 94.6167 84.7002C94.5985 84.7002 94.5894 84.666 94.5894 84.5977C94.5894 84.5247 94.5939 84.4837 94.603 84.4746L94.9858 84.4951C95.0998 84.4997 95.2 84.5065 95.2866 84.5156C95.3778 84.5202 95.453 84.5202 95.5122 84.5156L96.3872 84.4746C96.4009 84.5156 96.4077 84.5521 96.4077 84.584C96.4077 84.6615 96.3986 84.7002 96.3804 84.7002C96.353 84.7002 96.3052 84.7093 96.2368 84.7275C96.1685 84.7458 96.1024 84.7663 96.0386 84.7891C95.9793 84.8118 95.9451 84.8346 95.936 84.8574C95.9178 84.9303 95.9041 85.0169 95.895 85.1172C95.8859 85.2129 95.8813 85.3268 95.8813 85.459V88.0293C95.8813 88.2799 95.9019 88.485 95.9429 88.6445C95.952 88.6628 95.9839 88.6855 96.0386 88.7129C96.0978 88.7357 96.1593 88.7562 96.2231 88.7744C96.2915 88.7881 96.3394 88.7949 96.3667 88.7949C96.3849 88.7949 96.394 88.8382 96.394 88.9248C96.394 88.9521 96.3895 88.984 96.3804 89.0205L95.5122 88.9795C95.3527 88.9704 95.1886 88.9727 95.02 88.9863C94.8514 89 94.7124 89.0114 94.603 89.0205ZM98.2397 89.0205C98.2215 89.0023 98.2124 88.9704 98.2124 88.9248C98.2124 88.8382 98.2215 88.7949 98.2397 88.7949C98.2762 88.7949 98.3286 88.7881 98.397 88.7744C98.4653 88.7607 98.5291 88.7425 98.5884 88.7197C98.6476 88.6924 98.6818 88.6673 98.6909 88.6445C98.7091 88.5716 98.7228 88.4873 98.7319 88.3916C98.741 88.2959 98.7456 88.1888 98.7456 88.0703V85.4316C98.7456 85.1673 98.7274 84.9759 98.6909 84.8574C98.6818 84.8301 98.6476 84.805 98.5884 84.7822C98.5337 84.7594 98.4722 84.7412 98.4038 84.7275C98.34 84.7093 98.2899 84.7002 98.2534 84.7002C98.2352 84.7002 98.2261 84.666 98.2261 84.5977C98.2261 84.5247 98.2306 84.4837 98.2397 84.4746L98.6226 84.4951C98.7365 84.4997 98.8368 84.5065 98.9233 84.5156C99.0145 84.5202 99.0897 84.5202 99.1489 84.5156L100.024 84.4746C100.038 84.5156 100.044 84.5521 100.044 84.584C100.044 84.6615 100.035 84.7002 100.017 84.7002C99.9897 84.7002 99.9419 84.7093 99.8735 84.7275C99.8052 84.7458 99.7391 84.7663 99.6753 84.7891C99.616 84.8118 99.5819 84.8346 99.5728 84.8574C99.5545 84.9303 99.5409 85.0169 99.5317 85.1172C99.5226 85.2129 99.5181 85.3268 99.5181 85.459V88.0293C99.5181 88.2799 99.5386 88.485 99.5796 88.6445C99.5887 88.6628 99.6206 88.6855 99.6753 88.7129C99.7345 88.7357 99.7961 88.7562 99.8599 88.7744C99.9282 88.7881 99.9761 88.7949 100.003 88.7949C100.022 88.7949 100.031 88.8382 100.031 88.9248C100.031 88.9521 100.026 88.984 100.017 89.0205L99.1489 88.9795C98.9894 88.9704 98.8254 88.9727 98.6567 88.9863C98.4881 89 98.3491 89.0114 98.2397 89.0205ZM104.433 89.0342C104.365 89.0342 104.292 88.9818 104.214 88.877L101.494 85.2676V88.0361C101.494 88.3005 101.512 88.4873 101.548 88.5967C101.567 88.6331 101.612 88.6673 101.685 88.6992C101.763 88.7266 101.842 88.7493 101.924 88.7676C102.011 88.7858 102.072 88.7949 102.109 88.7949C102.123 88.7949 102.129 88.8268 102.129 88.8906C102.134 88.9544 102.132 88.9977 102.123 89.0205L101.268 88.9795C101.186 88.9795 101.088 88.984 100.974 88.9932C100.865 88.9977 100.76 89.0023 100.66 89.0068C100.564 89.0114 100.496 89.016 100.455 89.0205C100.436 89.0023 100.427 88.9635 100.427 88.9043C100.427 88.8314 100.436 88.7949 100.455 88.7949C100.509 88.7949 100.575 88.7881 100.653 88.7744C100.73 88.7562 100.803 88.7334 100.872 88.7061C100.944 88.6742 100.992 88.6354 101.015 88.5898C101.061 88.4987 101.083 88.3073 101.083 88.0156V85.3359C101.083 85.0944 101.058 84.9281 101.008 84.8369C100.999 84.8141 100.958 84.7936 100.885 84.7754C100.812 84.7572 100.735 84.7412 100.653 84.7275C100.575 84.7139 100.514 84.707 100.468 84.707C100.45 84.707 100.439 84.6729 100.434 84.6045C100.434 84.5361 100.443 84.4928 100.461 84.4746C100.703 84.4837 100.89 84.4928 101.022 84.502C101.159 84.5065 101.243 84.5088 101.275 84.5088C101.352 84.5088 101.441 84.5065 101.542 84.502C101.646 84.4928 101.763 84.4837 101.89 84.4746C101.99 84.6569 102.152 84.9007 102.375 85.2061C102.599 85.5114 102.863 85.8646 103.168 86.2656C103.474 86.6621 103.795 87.0951 104.132 87.5645C104.137 87.5371 104.139 87.5007 104.139 87.4551C104.144 87.4049 104.146 87.348 104.146 87.2842V85.4248C104.146 85.1787 104.123 84.9964 104.078 84.8779C104.064 84.8415 104.023 84.8096 103.955 84.7822C103.886 84.7549 103.813 84.7344 103.736 84.7207C103.658 84.707 103.595 84.7002 103.544 84.7002C103.526 84.7002 103.515 84.6683 103.51 84.6045C103.51 84.5361 103.517 84.4928 103.531 84.4746C103.772 84.4928 103.964 84.5065 104.105 84.5156C104.251 84.5202 104.347 84.5225 104.392 84.5225C104.451 84.5225 104.52 84.5202 104.597 84.5156C104.675 84.5111 104.759 84.5042 104.85 84.4951C105.037 84.4814 105.153 84.4746 105.199 84.4746C105.208 84.502 105.212 84.5384 105.212 84.584C105.212 84.6615 105.203 84.7002 105.185 84.7002C105.144 84.7002 105.085 84.7093 105.007 84.7275C104.93 84.7412 104.855 84.7617 104.782 84.7891C104.709 84.8164 104.659 84.8506 104.631 84.8916C104.581 85.0192 104.556 85.2083 104.556 85.459V88.0498C104.556 88.1318 104.558 88.2526 104.563 88.4121C104.568 88.5716 104.574 88.7699 104.583 89.0068C104.565 89.0251 104.515 89.0342 104.433 89.0342ZM105.595 89.0205C105.582 89.0068 105.575 88.9704 105.575 88.9111C105.575 88.8337 105.582 88.7949 105.595 88.7949C105.636 88.7949 105.689 88.7881 105.752 88.7744C105.821 88.7607 105.885 88.7425 105.944 88.7197C106.008 88.6969 106.044 88.6719 106.053 88.6445C106.085 88.5534 106.101 88.346 106.101 88.0225V85.4385C106.101 85.1605 106.085 84.9736 106.053 84.8779C106.044 84.8415 106.01 84.8118 105.951 84.7891C105.896 84.7617 105.832 84.7412 105.759 84.7275C105.691 84.7139 105.634 84.707 105.588 84.707C105.57 84.707 105.561 84.6729 105.561 84.6045C105.561 84.5407 105.57 84.4997 105.588 84.4814C105.889 84.4951 106.192 84.502 106.498 84.502H107.68C108.049 84.502 108.38 84.5612 108.671 84.6797C108.968 84.7936 109.216 84.9531 109.417 85.1582C109.622 85.3633 109.777 85.598 109.881 85.8623C109.991 86.1266 110.045 86.4069 110.045 86.7031C110.045 87.1406 109.95 87.5348 109.758 87.8857C109.571 88.2321 109.3 88.5078 108.945 88.7129C108.589 88.918 108.166 89.0205 107.673 89.0205C107.628 89.0205 107.557 89.0182 107.461 89.0137C107.37 89.0137 107.254 89.0114 107.113 89.0068C106.972 89.0023 106.851 88.9977 106.75 88.9932C106.65 88.9886 106.568 88.9886 106.504 88.9932L105.595 89.0205ZM107.783 88.6719C108.708 88.6719 109.17 88.0065 109.17 86.6758C109.17 86.334 109.113 86.0264 109 85.7529C108.89 85.4749 108.728 85.2539 108.514 85.0898C108.305 84.9258 108.045 84.8438 107.735 84.8438H107.701C107.263 84.8438 107.017 84.8802 106.962 84.9531C106.903 85.0306 106.874 85.1719 106.874 85.377V88.0566C106.874 88.3073 106.899 88.4759 106.949 88.5625C107.022 88.6354 107.3 88.6719 107.783 88.6719ZM111.043 88.3916C110.615 87.945 110.401 87.4004 110.401 86.7578C110.401 86.4388 110.458 86.1403 110.572 85.8623C110.686 85.5798 110.843 85.3337 111.043 85.124C111.244 84.9098 111.476 84.7435 111.741 84.625C112.005 84.502 112.288 84.4404 112.588 84.4404C112.889 84.4404 113.172 84.502 113.436 84.625C113.7 84.7435 113.933 84.9098 114.133 85.124C114.338 85.3337 114.498 85.5798 114.612 85.8623C114.726 86.1403 114.783 86.4388 114.783 86.7578C114.783 87.4004 114.569 87.945 114.14 88.3916C113.844 88.7015 113.511 88.9066 113.142 89.0068C112.773 89.1117 112.404 89.1117 112.035 89.0068C111.67 88.9066 111.34 88.7015 111.043 88.3916ZM112.698 88.7266C112.958 88.7266 113.176 88.6445 113.354 88.4805C113.536 88.3118 113.675 88.0885 113.771 87.8105C113.867 87.528 113.915 87.2204 113.915 86.8877C113.915 86.5413 113.869 86.2109 113.778 85.8965C113.719 85.6914 113.627 85.5046 113.504 85.3359C113.386 85.1628 113.24 85.026 113.067 84.9258C112.898 84.8255 112.705 84.7754 112.486 84.7754C112.226 84.7754 112.005 84.8574 111.823 85.0215C111.645 85.1855 111.508 85.4066 111.413 85.6846C111.321 85.9626 111.276 86.2702 111.276 86.6074C111.276 86.9492 111.324 87.2751 111.419 87.585C111.483 87.79 111.574 87.9792 111.693 88.1523C111.811 88.3255 111.955 88.4645 112.124 88.5693C112.297 88.6742 112.488 88.7266 112.698 88.7266ZM119.158 89.0342C119.089 89.0342 119.016 88.9818 118.939 88.877L116.218 85.2676V88.0361C116.218 88.3005 116.236 88.4873 116.273 88.5967C116.291 88.6331 116.337 88.6673 116.41 88.6992C116.487 88.7266 116.567 88.7493 116.649 88.7676C116.736 88.7858 116.797 88.7949 116.833 88.7949C116.847 88.7949 116.854 88.8268 116.854 88.8906C116.859 88.9544 116.856 88.9977 116.847 89.0205L115.993 88.9795C115.911 88.9795 115.813 88.984 115.699 88.9932C115.589 88.9977 115.485 89.0023 115.384 89.0068C115.289 89.0114 115.22 89.016 115.179 89.0205C115.161 89.0023 115.152 88.9635 115.152 88.9043C115.152 88.8314 115.161 88.7949 115.179 88.7949C115.234 88.7949 115.3 88.7881 115.377 88.7744C115.455 88.7562 115.528 88.7334 115.596 88.7061C115.669 88.6742 115.717 88.6354 115.74 88.5898C115.785 88.4987 115.808 88.3073 115.808 88.0156V85.3359C115.808 85.0944 115.783 84.9281 115.733 84.8369C115.724 84.8141 115.683 84.7936 115.61 84.7754C115.537 84.7572 115.459 84.7412 115.377 84.7275C115.3 84.7139 115.238 84.707 115.193 84.707C115.175 84.707 115.163 84.6729 115.159 84.6045C115.159 84.5361 115.168 84.4928 115.186 84.4746C115.428 84.4837 115.614 84.4928 115.747 84.502C115.883 84.5065 115.968 84.5088 116 84.5088C116.077 84.5088 116.166 84.5065 116.266 84.502C116.371 84.4928 116.487 84.4837 116.615 84.4746C116.715 84.6569 116.877 84.9007 117.1 85.2061C117.323 85.5114 117.588 85.8646 117.893 86.2656C118.198 86.6621 118.52 87.0951 118.857 87.5645C118.861 87.5371 118.864 87.5007 118.864 87.4551C118.868 87.4049 118.871 87.348 118.871 87.2842V85.4248C118.871 85.1787 118.848 84.9964 118.802 84.8779C118.789 84.8415 118.748 84.8096 118.679 84.7822C118.611 84.7549 118.538 84.7344 118.46 84.7207C118.383 84.707 118.319 84.7002 118.269 84.7002C118.251 84.7002 118.239 84.6683 118.235 84.6045C118.235 84.5361 118.242 84.4928 118.255 84.4746C118.497 84.4928 118.688 84.5065 118.83 84.5156C118.975 84.5202 119.071 84.5225 119.117 84.5225C119.176 84.5225 119.244 84.5202 119.322 84.5156C119.399 84.5111 119.484 84.5042 119.575 84.4951C119.762 84.4814 119.878 84.4746 119.923 84.4746C119.932 84.502 119.937 84.5384 119.937 84.584C119.937 84.6615 119.928 84.7002 119.91 84.7002C119.869 84.7002 119.809 84.7093 119.732 84.7275C119.654 84.7412 119.579 84.7617 119.506 84.7891C119.433 84.8164 119.383 84.8506 119.356 84.8916C119.306 85.0192 119.281 85.2083 119.281 85.459V88.0498C119.281 88.1318 119.283 88.2526 119.288 88.4121C119.292 88.5716 119.299 88.7699 119.308 89.0068C119.29 89.0251 119.24 89.0342 119.158 89.0342ZM120.32 89.0205C120.306 89.0068 120.299 88.9704 120.299 88.9111C120.299 88.8337 120.306 88.7949 120.32 88.7949C120.361 88.7949 120.413 88.7881 120.477 88.7744C120.545 88.7607 120.609 88.7425 120.668 88.7197C120.732 88.6969 120.769 88.6719 120.778 88.6445C120.81 88.5534 120.826 88.346 120.826 88.0225V85.4385C120.826 85.1605 120.81 84.9736 120.778 84.8779C120.769 84.8415 120.735 84.8118 120.675 84.7891C120.621 84.7617 120.557 84.7412 120.484 84.7275C120.416 84.7139 120.359 84.707 120.313 84.707C120.295 84.707 120.286 84.6729 120.286 84.6045C120.286 84.5407 120.295 84.4997 120.313 84.4814C120.463 84.4906 120.614 84.4997 120.764 84.5088C120.915 84.5133 121.067 84.5156 121.222 84.5156C121.322 84.5156 121.461 84.5133 121.639 84.5088C121.817 84.4997 122.031 84.4906 122.282 84.4814C122.788 84.4678 123.17 84.4609 123.43 84.4609C123.439 84.5293 123.453 84.6113 123.471 84.707C123.489 84.8027 123.512 84.9098 123.54 85.0283L123.628 85.4316C123.606 85.4544 123.558 85.4658 123.485 85.4658C123.435 85.4658 123.403 85.4499 123.389 85.418C123.239 85.0124 122.947 84.8096 122.514 84.8096H122.159C121.817 84.8096 121.644 84.8392 121.639 84.8984C121.612 85.026 121.598 85.2106 121.598 85.4521V86.5254C121.598 86.5527 121.698 86.5664 121.899 86.5664H122.282C122.542 86.5664 122.699 86.555 122.753 86.5322C122.804 86.5094 122.842 86.4297 122.87 86.293C122.883 86.2337 122.897 86.1768 122.911 86.1221C122.915 86.0902 122.952 86.0742 123.02 86.0742C123.084 86.0742 123.127 86.0856 123.15 86.1084V87.4004C123.132 87.4186 123.088 87.4277 123.02 87.4277C122.961 87.4277 122.924 87.4095 122.911 87.373C122.892 87.3092 122.876 87.2568 122.863 87.2158C122.849 87.1702 122.838 87.1315 122.829 87.0996C122.806 87.0495 122.792 87.0221 122.788 87.0176C122.783 87.0085 122.76 86.9902 122.719 86.9629C122.655 86.9264 122.446 86.9082 122.09 86.9082C121.762 86.9082 121.598 86.9264 121.598 86.9629V88.0225C121.598 88.2731 121.619 88.4577 121.66 88.5762C121.678 88.6354 121.833 88.665 122.125 88.665H122.377C122.737 88.665 123.009 88.6172 123.191 88.5215C123.264 88.485 123.346 88.4053 123.437 88.2822C123.528 88.1592 123.599 88.0202 123.649 87.8652C123.658 87.8379 123.69 87.8242 123.745 87.8242C123.845 87.8242 123.909 87.8379 123.936 87.8652L123.717 88.4736C123.69 88.5465 123.66 88.64 123.628 88.7539C123.597 88.8633 123.576 88.9521 123.567 89.0205C123.385 89.0205 123.009 89.0137 122.439 89C122.152 88.9909 121.908 88.9863 121.708 88.9863C121.507 88.9863 121.347 88.9886 121.229 88.9932L120.32 89.0205ZM125.768 89.0684C125.486 89.0684 125.066 89.0046 124.51 88.877C124.483 88.7676 124.456 88.6377 124.428 88.4873C124.405 88.3324 124.385 88.1865 124.367 88.0498C124.353 87.9131 124.346 87.8197 124.346 87.7695C124.355 87.7331 124.392 87.7148 124.456 87.7148C124.574 87.7148 124.64 87.7331 124.654 87.7695C124.672 87.8516 124.704 87.9427 124.75 88.043C124.795 88.1387 124.859 88.2412 124.941 88.3506C125.018 88.4645 125.123 88.5579 125.255 88.6309C125.392 88.6992 125.545 88.7334 125.713 88.7334C125.928 88.7334 126.105 88.6696 126.247 88.542C126.388 88.4144 126.458 88.223 126.458 87.9678C126.458 87.7855 126.404 87.6442 126.294 87.5439C126.19 87.4391 126.076 87.3434 125.953 87.2568C125.921 87.2386 125.871 87.209 125.802 87.168C125.734 87.127 125.666 87.0859 125.597 87.0449C125.533 86.9993 125.483 86.9674 125.447 86.9492C125.36 86.8945 125.287 86.849 125.228 86.8125C125.173 86.776 125.121 86.7396 125.071 86.7031C125.021 86.6621 124.959 86.612 124.886 86.5527C124.74 86.4342 124.626 86.2998 124.544 86.1494C124.467 85.999 124.428 85.8327 124.428 85.6504C124.428 85.4225 124.494 85.2174 124.626 85.0352C124.763 84.8483 124.939 84.7025 125.153 84.5977C125.367 84.4883 125.593 84.4336 125.83 84.4336C125.957 84.4336 126.069 84.4404 126.165 84.4541C126.26 84.4678 126.333 84.4814 126.383 84.4951C126.433 84.5088 126.495 84.5247 126.568 84.543C126.641 84.5612 126.757 84.5885 126.917 84.625C126.971 84.9303 126.999 85.2812 126.999 85.6777C126.994 85.7188 126.967 85.7393 126.917 85.7393C126.793 85.7393 126.727 85.7188 126.718 85.6777C126.7 85.5365 126.65 85.3975 126.568 85.2607C126.486 85.1195 126.379 85.001 126.247 84.9053C126.119 84.8096 125.973 84.7617 125.809 84.7617C125.599 84.7617 125.438 84.821 125.324 84.9395C125.214 85.0579 125.16 85.2174 125.16 85.418C125.16 85.5456 125.182 85.6458 125.228 85.7188C125.274 85.7871 125.333 85.8623 125.406 85.9443C125.456 85.999 125.538 86.0674 125.652 86.1494C125.766 86.2314 125.893 86.318 126.035 86.4092C126.176 86.4958 126.313 86.5778 126.445 86.6553C126.695 86.8011 126.889 86.9606 127.026 87.1338C127.163 87.3024 127.231 87.528 127.231 87.8105C127.231 88.0521 127.163 88.2686 127.026 88.46C126.889 88.6514 126.709 88.8018 126.486 88.9111C126.267 89.016 126.028 89.0684 125.768 89.0684ZM127.675 89.0205C127.657 89.0023 127.648 88.9704 127.648 88.9248C127.648 88.8382 127.657 88.7949 127.675 88.7949C127.712 88.7949 127.764 88.7881 127.833 88.7744C127.901 88.7607 127.965 88.7425 128.024 88.7197C128.083 88.6924 128.117 88.6673 128.126 88.6445C128.145 88.5716 128.158 88.4873 128.167 88.3916C128.177 88.2959 128.181 88.1888 128.181 88.0703V85.4316C128.181 85.1673 128.163 84.9759 128.126 84.8574C128.117 84.8301 128.083 84.805 128.024 84.7822C127.969 84.7594 127.908 84.7412 127.839 84.7275C127.776 84.7093 127.725 84.7002 127.689 84.7002C127.671 84.7002 127.662 84.666 127.662 84.5977C127.662 84.5247 127.666 84.4837 127.675 84.4746L128.058 84.4951C128.172 84.4997 128.272 84.5065 128.359 84.5156C128.45 84.5202 128.525 84.5202 128.584 84.5156L129.459 84.4746C129.473 84.5156 129.48 84.5521 129.48 84.584C129.48 84.6615 129.471 84.7002 129.453 84.7002C129.425 84.7002 129.377 84.7093 129.309 84.7275C129.241 84.7458 129.175 84.7663 129.111 84.7891C129.052 84.8118 129.017 84.8346 129.008 84.8574C128.99 84.9303 128.976 85.0169 128.967 85.1172C128.958 85.2129 128.954 85.3268 128.954 85.459V88.0293C128.954 88.2799 128.974 88.485 129.015 88.6445C129.024 88.6628 129.056 88.6855 129.111 88.7129C129.17 88.7357 129.232 88.7562 129.295 88.7744C129.364 88.7881 129.412 88.7949 129.439 88.7949C129.457 88.7949 129.466 88.8382 129.466 88.9248C129.466 88.9521 129.462 88.984 129.453 89.0205L128.584 88.9795C128.425 88.9704 128.261 88.9727 128.092 88.9863C127.924 89 127.785 89.0114 127.675 89.0205ZM129.89 89.0205C129.872 89.0023 129.863 88.9681 129.863 88.918C129.863 88.8359 129.867 88.7949 129.876 88.7949C129.913 88.7949 129.965 88.7858 130.034 88.7676C130.107 88.7493 130.175 88.7266 130.239 88.6992C130.307 88.6673 130.35 88.6354 130.369 88.6035C130.414 88.5352 130.458 88.4577 130.499 88.3711C130.54 88.2799 130.583 88.1797 130.628 88.0703L131.9 84.9941C132.009 84.7161 132.094 84.5521 132.153 84.502C132.185 84.4701 132.223 84.4541 132.269 84.4541C132.301 84.4541 132.328 84.4655 132.351 84.4883L133.787 88.0703C133.823 88.1569 133.857 88.2435 133.889 88.3301C133.926 88.4121 133.96 88.4919 133.992 88.5693C134.01 88.6149 134.051 88.6559 134.115 88.6924C134.179 88.7243 134.245 88.7493 134.313 88.7676C134.381 88.7858 134.434 88.7949 134.47 88.7949C134.488 88.7949 134.498 88.8359 134.498 88.918C134.498 88.9681 134.493 89.0023 134.484 89.0205L133.623 88.9795L132.734 89.0205C132.716 89.0023 132.707 88.959 132.707 88.8906C132.707 88.8268 132.716 88.7949 132.734 88.7949C132.789 88.7949 132.864 88.7812 132.959 88.7539C133.055 88.7266 133.112 88.6947 133.13 88.6582C133.144 88.6309 133.151 88.6012 133.151 88.5693C133.151 88.5238 133.139 88.4622 133.117 88.3848C133.094 88.3073 133.062 88.2116 133.021 88.0977L132.782 87.4619C132.764 87.4437 132.748 87.4346 132.734 87.4346C132.661 87.43 132.574 87.4277 132.474 87.4277C132.378 87.4232 132.269 87.4209 132.146 87.4209C131.9 87.4209 131.64 87.4277 131.367 87.4414C131.339 87.4414 131.326 87.4505 131.326 87.4688L131.066 88.1045C131.02 88.2184 130.986 88.3141 130.963 88.3916C130.945 88.4645 130.936 88.5169 130.936 88.5488C130.936 88.6035 130.961 88.6491 131.011 88.6855C131.039 88.7038 131.08 88.722 131.134 88.7402C131.194 88.7539 131.253 88.7676 131.312 88.7812C131.371 88.7904 131.412 88.7949 131.435 88.7949C131.449 88.7995 131.456 88.8314 131.456 88.8906C131.456 88.9225 131.453 88.9499 131.449 88.9727C131.449 88.9909 131.446 89.0068 131.442 89.0205C131.273 89.0114 131.134 89.0023 131.025 88.9932C130.92 88.984 130.822 88.9795 130.731 88.9795C130.64 88.9795 130.53 88.9818 130.403 88.9863C130.275 88.9909 130.104 89.0023 129.89 89.0205ZM132.023 87.0518C132.187 87.0518 132.374 87.0449 132.583 87.0312L132.597 87.0039L132.078 85.6367L131.517 87.0039C131.517 87.0221 131.522 87.0312 131.531 87.0312C131.69 87.0449 131.854 87.0518 132.023 87.0518ZM136.398 87.6602C136.366 87.6602 136.35 87.6351 136.35 87.585C136.35 87.3252 136.377 87.1953 136.432 87.1953L138.093 87.1133C138.121 87.1133 138.134 87.1338 138.134 87.1748C138.134 87.2887 138.125 87.3799 138.107 87.4482C138.089 87.512 138.075 87.5485 138.066 87.5576L138.045 87.585L136.398 87.6602ZM144.109 89.041C143.635 89.041 143.261 88.9316 142.988 88.7129C142.828 88.5898 142.68 88.4463 142.543 88.2822C142.411 88.1182 142.295 87.9587 142.195 87.8037C142.095 87.6442 142.013 87.5143 141.949 87.4141C141.867 87.2956 141.787 87.1885 141.709 87.0928C141.637 86.9971 141.527 86.9492 141.381 86.9492C141.308 86.9492 141.272 86.988 141.272 87.0654V88.0293C141.272 88.2936 141.29 88.4873 141.327 88.6104C141.336 88.6468 141.375 88.6787 141.443 88.7061C141.516 88.7334 141.593 88.7562 141.675 88.7744C141.757 88.7881 141.819 88.7949 141.86 88.7949C141.878 88.7949 141.887 88.8337 141.887 88.9111C141.887 88.9521 141.883 88.9909 141.874 89.0273C141.377 89 141.053 88.9863 140.903 88.9863C140.78 88.9863 140.641 88.9886 140.486 88.9932C140.335 88.9977 140.215 89.0046 140.124 89.0137L139.987 89.0273C139.973 89.0046 139.966 88.9635 139.966 88.9043C139.966 88.8314 139.973 88.7949 139.987 88.7949C140.028 88.7949 140.083 88.7881 140.151 88.7744C140.219 88.7607 140.283 88.7425 140.342 88.7197C140.406 88.6969 140.443 88.6719 140.452 88.6445C140.479 88.5625 140.493 88.3551 140.493 88.0225V85.4385C140.493 85.1787 140.479 84.9919 140.452 84.8779C140.443 84.8506 140.406 84.8255 140.342 84.8027C140.283 84.7754 140.217 84.7526 140.144 84.7344C140.076 84.7161 140.023 84.707 139.987 84.707C139.969 84.707 139.959 84.6729 139.959 84.6045C139.959 84.5361 139.969 84.4951 139.987 84.4814C140.474 84.4951 140.778 84.502 140.896 84.502C141.119 84.4974 141.292 84.4951 141.416 84.4951C141.539 84.4951 141.632 84.4951 141.696 84.4951C141.76 84.4906 141.814 84.4883 141.86 84.4883C142.101 84.4883 142.338 84.5316 142.571 84.6182C142.803 84.7048 142.995 84.8369 143.145 85.0146C143.3 85.1924 143.377 85.418 143.377 85.6914C143.377 85.8555 143.341 86.015 143.268 86.1699C143.195 86.3249 143.097 86.4616 142.974 86.5801C142.851 86.6986 142.712 86.7897 142.557 86.8535C142.521 86.8672 142.512 86.89 142.53 86.9219C142.657 87.1497 142.785 87.3617 142.913 87.5576C143.04 87.749 143.168 87.9245 143.295 88.084C143.455 88.2799 143.626 88.4486 143.808 88.5898C143.995 88.7266 144.166 88.7949 144.321 88.7949C144.339 88.8177 144.348 88.8542 144.348 88.9043C144.348 88.9544 144.339 88.9954 144.321 89.0273C144.293 89.0319 144.262 89.0342 144.225 89.0342C144.193 89.0387 144.154 89.041 144.109 89.041ZM141.709 86.6211H141.887C142.056 86.6211 142.206 86.5413 142.338 86.3818C142.475 86.2223 142.543 86.015 142.543 85.7598C142.543 85.14 142.279 84.8301 141.75 84.8301C141.555 84.8301 141.422 84.846 141.354 84.8779C141.299 84.9007 141.272 85.1377 141.272 85.5889V86.375C141.272 86.4753 141.311 86.5413 141.388 86.5732C141.466 86.6051 141.573 86.6211 141.709 86.6211ZM144.669 89.0205C144.656 89.0068 144.649 88.9704 144.649 88.9111C144.649 88.8337 144.656 88.7949 144.669 88.7949C144.71 88.7949 144.763 88.7881 144.827 88.7744C144.895 88.7607 144.959 88.7425 145.018 88.7197C145.082 88.6969 145.118 88.6719 145.127 88.6445C145.159 88.5534 145.175 88.346 145.175 88.0225V85.4385C145.175 85.1605 145.159 84.9736 145.127 84.8779C145.118 84.8415 145.084 84.8118 145.025 84.7891C144.97 84.7617 144.906 84.7412 144.833 84.7275C144.765 84.7139 144.708 84.707 144.663 84.707C144.644 84.707 144.635 84.6729 144.635 84.6045C144.635 84.5407 144.644 84.4997 144.663 84.4814C144.813 84.4906 144.963 84.4997 145.114 84.5088C145.264 84.5133 145.417 84.5156 145.572 84.5156C145.672 84.5156 145.811 84.5133 145.989 84.5088C146.167 84.4997 146.381 84.4906 146.631 84.4814C147.137 84.4678 147.52 84.4609 147.78 84.4609C147.789 84.5293 147.803 84.6113 147.821 84.707C147.839 84.8027 147.862 84.9098 147.889 85.0283L147.978 85.4316C147.955 85.4544 147.907 85.4658 147.834 85.4658C147.784 85.4658 147.752 85.4499 147.739 85.418C147.588 85.0124 147.297 84.8096 146.864 84.8096H146.508C146.167 84.8096 145.993 84.8392 145.989 84.8984C145.961 85.026 145.948 85.2106 145.948 85.4521V86.5254C145.948 86.5527 146.048 86.5664 146.249 86.5664H146.631C146.891 86.5664 147.048 86.555 147.103 86.5322C147.153 86.5094 147.192 86.4297 147.219 86.293C147.233 86.2337 147.247 86.1768 147.26 86.1221C147.265 86.0902 147.301 86.0742 147.37 86.0742C147.433 86.0742 147.477 86.0856 147.5 86.1084V87.4004C147.481 87.4186 147.438 87.4277 147.37 87.4277C147.31 87.4277 147.274 87.4095 147.26 87.373C147.242 87.3092 147.226 87.2568 147.212 87.2158C147.199 87.1702 147.187 87.1315 147.178 87.0996C147.155 87.0495 147.142 87.0221 147.137 87.0176C147.133 87.0085 147.11 86.9902 147.069 86.9629C147.005 86.9264 146.795 86.9082 146.44 86.9082C146.112 86.9082 145.948 86.9264 145.948 86.9629V88.0225C145.948 88.2731 145.968 88.4577 146.009 88.5762C146.028 88.6354 146.182 88.665 146.474 88.665H146.727C147.087 88.665 147.358 88.6172 147.541 88.5215C147.613 88.485 147.695 88.4053 147.787 88.2822C147.878 88.1592 147.948 88.0202 147.999 87.8652C148.008 87.8379 148.04 87.8242 148.094 87.8242C148.194 87.8242 148.258 87.8379 148.286 87.8652L148.067 88.4736C148.04 88.5465 148.01 88.64 147.978 88.7539C147.946 88.8633 147.926 88.9521 147.917 89.0205C147.734 89.0205 147.358 89.0137 146.789 89C146.501 88.9909 146.258 88.9863 146.057 88.9863C145.857 88.9863 145.697 88.9886 145.579 88.9932L144.669 89.0205ZM148.662 89.0205C148.643 89.0023 148.634 88.9704 148.634 88.9248C148.634 88.8382 148.643 88.7949 148.662 88.7949C148.698 88.7949 148.75 88.7881 148.819 88.7744C148.887 88.7607 148.951 88.7425 149.01 88.7197C149.069 88.6924 149.104 88.6673 149.113 88.6445C149.131 88.5716 149.145 88.4873 149.154 88.3916C149.163 88.2959 149.167 88.1888 149.167 88.0703V85.4316C149.167 85.1673 149.149 84.9759 149.113 84.8574C149.104 84.8301 149.069 84.805 149.01 84.7822C148.956 84.7594 148.894 84.7412 148.826 84.7275C148.762 84.7093 148.712 84.7002 148.675 84.7002C148.657 84.7002 148.648 84.666 148.648 84.5977C148.648 84.5247 148.653 84.4837 148.662 84.4746L149.044 84.4951C149.158 84.4997 149.259 84.5065 149.345 84.5156C149.436 84.5202 149.512 84.5202 149.571 84.5156L150.446 84.4746C150.459 84.5156 150.466 84.5521 150.466 84.584C150.466 84.6615 150.457 84.7002 150.439 84.7002C150.412 84.7002 150.364 84.7093 150.295 84.7275C150.227 84.7458 150.161 84.7663 150.097 84.7891C150.038 84.8118 150.004 84.8346 149.995 84.8574C149.976 84.9303 149.963 85.0169 149.954 85.1172C149.944 85.2129 149.94 85.3268 149.94 85.459V88.0293C149.94 88.2799 149.96 88.485 150.001 88.6445C150.011 88.6628 150.042 88.6855 150.097 88.7129C150.156 88.7357 150.218 88.7562 150.282 88.7744C150.35 88.7881 150.398 88.7949 150.425 88.7949C150.444 88.7949 150.453 88.8382 150.453 88.9248C150.453 88.9521 150.448 88.984 150.439 89.0205L149.571 88.9795C149.411 88.9704 149.247 88.9727 149.079 88.9863C148.91 89 148.771 89.0114 148.662 89.0205Z" fill="black"/>
<path d="M85.5308 121.041C85.4943 121.005 85.4761 120.936 85.4761 120.836C85.4761 120.672 85.4852 120.59 85.5034 120.59C85.5763 120.59 85.6812 120.572 85.8179 120.535C85.9637 120.499 86.1004 120.453 86.228 120.398C86.3647 120.335 86.4513 120.271 86.4878 120.207C86.5789 120.07 86.6655 119.915 86.7476 119.742C86.8296 119.56 86.9162 119.359 87.0073 119.141L89.5503 112.988C89.769 112.432 89.9377 112.104 90.0562 112.004C90.12 111.94 90.1974 111.908 90.2886 111.908C90.3524 111.908 90.4071 111.931 90.4526 111.977L93.3237 119.141C93.3966 119.314 93.465 119.487 93.5288 119.66C93.6017 119.824 93.6701 119.984 93.7339 120.139C93.7703 120.23 93.8524 120.312 93.98 120.385C94.1076 120.449 94.2397 120.499 94.3765 120.535C94.5132 120.572 94.618 120.59 94.6909 120.59C94.7274 120.59 94.7456 120.672 94.7456 120.836C94.7456 120.936 94.7365 121.005 94.7183 121.041L92.9956 120.959L91.2183 121.041C91.1818 121.005 91.1636 120.918 91.1636 120.781C91.1636 120.654 91.1818 120.59 91.2183 120.59C91.3276 120.59 91.478 120.562 91.6694 120.508C91.8608 120.453 91.9748 120.389 92.0112 120.316C92.0386 120.262 92.0522 120.202 92.0522 120.139C92.0522 120.048 92.0295 119.924 91.9839 119.77C91.9383 119.615 91.8745 119.423 91.7925 119.195L91.314 117.924C91.2775 117.887 91.2456 117.869 91.2183 117.869C91.0724 117.86 90.8993 117.855 90.6987 117.855C90.5073 117.846 90.2886 117.842 90.0425 117.842C89.5503 117.842 89.0308 117.855 88.4839 117.883C88.4292 117.883 88.4019 117.901 88.4019 117.938L87.8823 119.209C87.7912 119.437 87.7228 119.628 87.6772 119.783C87.6408 119.929 87.6226 120.034 87.6226 120.098C87.6226 120.207 87.6727 120.298 87.7729 120.371C87.8276 120.408 87.9097 120.444 88.019 120.48C88.1375 120.508 88.256 120.535 88.3745 120.562C88.493 120.581 88.575 120.59 88.6206 120.59C88.6479 120.599 88.6616 120.663 88.6616 120.781C88.6616 120.845 88.6571 120.9 88.6479 120.945C88.6479 120.982 88.6434 121.014 88.6343 121.041C88.297 121.023 88.019 121.005 87.8003 120.986C87.5907 120.968 87.3947 120.959 87.2124 120.959C87.0301 120.959 86.8114 120.964 86.5562 120.973C86.3009 120.982 85.9591 121.005 85.5308 121.041ZM89.7964 117.104C90.1245 117.104 90.4982 117.09 90.9175 117.062L90.9448 117.008L89.9058 114.273L88.7847 117.008C88.7847 117.044 88.7938 117.062 88.812 117.062C89.131 117.09 89.4591 117.104 89.7964 117.104ZM98.7788 121.137C98.7241 121.137 98.6785 121.118 98.6421 121.082L95.019 113.891C94.8914 113.635 94.7684 113.412 94.6499 113.221C94.5314 113.02 94.4175 112.847 94.3081 112.701C94.2352 112.61 94.1076 112.537 93.9253 112.482C93.7521 112.428 93.6108 112.4 93.5015 112.4C93.465 112.4 93.4468 112.327 93.4468 112.182C93.4468 112.054 93.4604 111.977 93.4878 111.949L95.3198 112.031C95.4292 112.031 95.9806 112.004 96.9741 111.949C96.9832 112.004 96.9878 112.09 96.9878 112.209C96.9969 112.327 96.9832 112.391 96.9468 112.4C96.8009 112.4 96.6551 112.437 96.5093 112.51C96.3634 112.574 96.2905 112.678 96.2905 112.824C96.2905 112.988 96.3726 113.23 96.5366 113.549L99.2163 118.84C99.2437 118.885 99.2756 118.899 99.312 118.881C99.3576 118.854 99.3895 118.822 99.4077 118.785L100.406 116.844L98.9429 113.891C98.6785 113.344 98.4461 112.956 98.2456 112.729C98.1636 112.637 98.0405 112.56 97.8765 112.496C97.7215 112.432 97.5802 112.4 97.4526 112.4C97.4162 112.4 97.3979 112.323 97.3979 112.168C97.3979 112.049 97.4116 111.977 97.439 111.949L99.2437 112.031L100.857 111.949C100.875 112.004 100.884 112.09 100.884 112.209C100.893 112.327 100.884 112.391 100.857 112.4C100.702 112.4 100.552 112.437 100.406 112.51C100.269 112.583 100.201 112.688 100.201 112.824C100.201 112.97 100.283 113.207 100.447 113.535L101.281 115.244L102.087 113.59C102.251 113.262 102.333 113.011 102.333 112.838C102.333 112.729 102.279 112.642 102.169 112.578C102.069 112.505 101.946 112.455 101.8 112.428C101.654 112.4 101.527 112.387 101.417 112.387C101.381 112.387 101.363 112.323 101.363 112.195C101.363 112.068 101.376 111.986 101.404 111.949C102.215 112.004 102.716 112.031 102.908 112.031C103.163 112.031 103.427 112.022 103.701 112.004C103.983 111.986 104.243 111.967 104.48 111.949C104.498 112.022 104.507 112.104 104.507 112.195C104.507 112.305 104.494 112.368 104.466 112.387C104.393 112.387 104.289 112.405 104.152 112.441C104.024 112.478 103.897 112.528 103.769 112.592C103.651 112.656 103.559 112.724 103.496 112.797C103.286 113.034 103.026 113.462 102.716 114.082L101.718 116.105L103.044 118.812C103.099 118.904 103.158 118.881 103.222 118.744C103.313 118.535 103.464 118.197 103.673 117.732C103.892 117.268 104.17 116.68 104.507 115.969L105.615 113.617C105.779 113.271 105.861 113.016 105.861 112.852C105.861 112.742 105.806 112.656 105.697 112.592C105.597 112.519 105.478 112.469 105.341 112.441C105.205 112.405 105.086 112.387 104.986 112.387C104.949 112.387 104.927 112.323 104.917 112.195C104.917 112.068 104.936 111.986 104.972 111.949C105.437 111.977 105.811 111.999 106.093 112.018C106.385 112.027 106.626 112.031 106.818 112.031C107.018 112.022 107.205 112.013 107.378 112.004C107.561 111.986 107.775 111.967 108.021 111.949C108.03 111.986 108.035 112.027 108.035 112.072C108.044 112.109 108.048 112.159 108.048 112.223C108.048 112.332 108.03 112.387 107.994 112.387C107.884 112.387 107.725 112.428 107.515 112.51C107.315 112.583 107.164 112.669 107.064 112.77C106.945 112.915 106.818 113.098 106.681 113.316C106.544 113.526 106.408 113.777 106.271 114.068L103.14 120.699C103.076 120.845 102.994 120.954 102.894 121.027C102.794 121.1 102.707 121.137 102.634 121.137C102.58 121.137 102.534 121.118 102.498 121.082L100.83 117.719L99.271 120.699C99.1981 120.845 99.1115 120.954 99.0112 121.027C98.9201 121.109 98.8426 121.146 98.7788 121.137ZM106.503 121.041C106.467 121.005 106.449 120.936 106.449 120.836C106.449 120.672 106.458 120.59 106.476 120.59C106.549 120.59 106.654 120.572 106.791 120.535C106.936 120.499 107.073 120.453 107.201 120.398C107.337 120.335 107.424 120.271 107.46 120.207C107.552 120.07 107.638 119.915 107.72 119.742C107.802 119.56 107.889 119.359 107.98 119.141L110.523 112.988C110.742 112.432 110.91 112.104 111.029 112.004C111.093 111.94 111.17 111.908 111.261 111.908C111.325 111.908 111.38 111.931 111.425 111.977L114.296 119.141C114.369 119.314 114.438 119.487 114.501 119.66C114.574 119.824 114.643 119.984 114.707 120.139C114.743 120.23 114.825 120.312 114.953 120.385C115.08 120.449 115.212 120.499 115.349 120.535C115.486 120.572 115.591 120.59 115.664 120.59C115.7 120.59 115.718 120.672 115.718 120.836C115.718 120.936 115.709 121.005 115.691 121.041L113.968 120.959L112.191 121.041C112.154 121.005 112.136 120.918 112.136 120.781C112.136 120.654 112.154 120.59 112.191 120.59C112.3 120.59 112.451 120.562 112.642 120.508C112.833 120.453 112.947 120.389 112.984 120.316C113.011 120.262 113.025 120.202 113.025 120.139C113.025 120.048 113.002 119.924 112.957 119.77C112.911 119.615 112.847 119.423 112.765 119.195L112.287 117.924C112.25 117.887 112.218 117.869 112.191 117.869C112.045 117.86 111.872 117.855 111.671 117.855C111.48 117.846 111.261 117.842 111.015 117.842C110.523 117.842 110.003 117.855 109.457 117.883C109.402 117.883 109.375 117.901 109.375 117.938L108.855 119.209C108.764 119.437 108.695 119.628 108.65 119.783C108.613 119.929 108.595 120.034 108.595 120.098C108.595 120.207 108.645 120.298 108.746 120.371C108.8 120.408 108.882 120.444 108.992 120.48C109.11 120.508 109.229 120.535 109.347 120.562C109.466 120.581 109.548 120.59 109.593 120.59C109.621 120.599 109.634 120.663 109.634 120.781C109.634 120.845 109.63 120.9 109.621 120.945C109.621 120.982 109.616 121.014 109.607 121.041C109.27 121.023 108.992 121.005 108.773 120.986C108.563 120.968 108.367 120.959 108.185 120.959C108.003 120.959 107.784 120.964 107.529 120.973C107.274 120.982 106.932 121.005 106.503 121.041ZM110.769 117.104C111.097 117.104 111.471 117.09 111.89 117.062L111.917 117.008L110.878 114.273L109.757 117.008C109.757 117.044 109.766 117.062 109.785 117.062C110.104 117.09 110.432 117.104 110.769 117.104ZM124.796 121.082C123.848 121.082 123.101 120.863 122.554 120.426C122.235 120.18 121.939 119.893 121.666 119.564C121.401 119.236 121.169 118.917 120.968 118.607C120.768 118.288 120.604 118.029 120.476 117.828C120.312 117.591 120.153 117.377 119.998 117.186C119.852 116.994 119.633 116.898 119.341 116.898C119.195 116.898 119.123 116.976 119.123 117.131V119.059C119.123 119.587 119.159 119.975 119.232 120.221C119.25 120.294 119.328 120.357 119.464 120.412C119.61 120.467 119.765 120.512 119.929 120.549C120.093 120.576 120.216 120.59 120.298 120.59C120.335 120.59 120.353 120.667 120.353 120.822C120.353 120.904 120.344 120.982 120.326 121.055C119.332 121 118.685 120.973 118.384 120.973C118.138 120.973 117.86 120.977 117.55 120.986C117.25 120.995 117.008 121.009 116.826 121.027L116.552 121.055C116.525 121.009 116.511 120.927 116.511 120.809C116.511 120.663 116.525 120.59 116.552 120.59C116.634 120.59 116.744 120.576 116.88 120.549C117.017 120.521 117.145 120.485 117.263 120.439C117.391 120.394 117.464 120.344 117.482 120.289C117.537 120.125 117.564 119.71 117.564 119.045V113.877C117.564 113.357 117.537 112.984 117.482 112.756C117.464 112.701 117.391 112.651 117.263 112.605C117.145 112.551 117.013 112.505 116.867 112.469C116.73 112.432 116.625 112.414 116.552 112.414C116.516 112.414 116.498 112.346 116.498 112.209C116.498 112.072 116.516 111.99 116.552 111.963C117.528 111.99 118.134 112.004 118.371 112.004C118.817 111.995 119.164 111.99 119.41 111.99C119.656 111.99 119.843 111.99 119.97 111.99C120.098 111.981 120.207 111.977 120.298 111.977C120.781 111.977 121.255 112.063 121.72 112.236C122.185 112.41 122.568 112.674 122.869 113.029C123.179 113.385 123.333 113.836 123.333 114.383C123.333 114.711 123.261 115.03 123.115 115.34C122.969 115.65 122.773 115.923 122.527 116.16C122.281 116.397 122.003 116.579 121.693 116.707C121.62 116.734 121.602 116.78 121.638 116.844C121.893 117.299 122.149 117.723 122.404 118.115C122.659 118.498 122.914 118.849 123.169 119.168C123.488 119.56 123.83 119.897 124.195 120.18C124.569 120.453 124.91 120.59 125.22 120.59C125.257 120.635 125.275 120.708 125.275 120.809C125.275 120.909 125.257 120.991 125.22 121.055C125.166 121.064 125.102 121.068 125.029 121.068C124.965 121.077 124.888 121.082 124.796 121.082ZM119.998 116.242H120.353C120.69 116.242 120.991 116.083 121.255 115.764C121.529 115.445 121.666 115.03 121.666 114.52C121.666 113.28 121.137 112.66 120.08 112.66C119.688 112.66 119.423 112.692 119.287 112.756C119.177 112.801 119.123 113.275 119.123 114.178V115.75C119.123 115.951 119.2 116.083 119.355 116.146C119.51 116.21 119.724 116.242 119.998 116.242ZM125.917 121.041C125.89 121.014 125.876 120.941 125.876 120.822C125.876 120.667 125.89 120.59 125.917 120.59C126 120.59 126.104 120.576 126.232 120.549C126.369 120.521 126.496 120.485 126.615 120.439C126.742 120.394 126.815 120.344 126.833 120.289C126.897 120.107 126.929 119.692 126.929 119.045V113.877C126.929 113.321 126.897 112.947 126.833 112.756C126.815 112.683 126.747 112.624 126.628 112.578C126.519 112.523 126.391 112.482 126.246 112.455C126.109 112.428 125.995 112.414 125.904 112.414C125.867 112.414 125.849 112.346 125.849 112.209C125.849 112.081 125.867 111.999 125.904 111.963C126.505 111.99 127.111 112.004 127.722 112.004H130.087C130.826 112.004 131.486 112.122 132.07 112.359C132.662 112.587 133.159 112.906 133.56 113.316C133.97 113.727 134.28 114.196 134.49 114.725C134.708 115.253 134.818 115.814 134.818 116.406C134.818 117.281 134.626 118.07 134.244 118.771C133.87 119.464 133.328 120.016 132.617 120.426C131.906 120.836 131.058 121.041 130.074 121.041C129.983 121.041 129.841 121.036 129.65 121.027C129.468 121.027 129.235 121.023 128.953 121.014C128.67 121.005 128.429 120.995 128.228 120.986C128.028 120.977 127.863 120.977 127.736 120.986L125.917 121.041ZM130.292 120.344C132.143 120.344 133.068 119.013 133.068 116.352C133.068 115.668 132.954 115.053 132.726 114.506C132.507 113.95 132.184 113.508 131.755 113.18C131.336 112.852 130.817 112.688 130.197 112.688H130.128C129.253 112.688 128.761 112.76 128.652 112.906C128.533 113.061 128.474 113.344 128.474 113.754V119.113C128.474 119.615 128.524 119.952 128.625 120.125C128.77 120.271 129.326 120.344 130.292 120.344ZM138.509 121.137C137.944 121.137 137.106 121.009 135.994 120.754C135.939 120.535 135.884 120.275 135.83 119.975C135.784 119.665 135.743 119.373 135.707 119.1C135.679 118.826 135.666 118.639 135.666 118.539C135.684 118.466 135.757 118.43 135.884 118.43C136.121 118.43 136.253 118.466 136.281 118.539C136.317 118.703 136.381 118.885 136.472 119.086C136.563 119.277 136.691 119.482 136.855 119.701C137.01 119.929 137.22 120.116 137.484 120.262C137.757 120.398 138.063 120.467 138.4 120.467C138.828 120.467 139.184 120.339 139.466 120.084C139.749 119.829 139.89 119.446 139.89 118.936C139.89 118.571 139.781 118.288 139.562 118.088C139.352 117.878 139.125 117.687 138.878 117.514C138.815 117.477 138.714 117.418 138.578 117.336C138.441 117.254 138.304 117.172 138.167 117.09C138.04 116.999 137.94 116.935 137.867 116.898C137.694 116.789 137.548 116.698 137.429 116.625C137.32 116.552 137.215 116.479 137.115 116.406C137.014 116.324 136.891 116.224 136.746 116.105C136.454 115.868 136.226 115.6 136.062 115.299C135.907 114.998 135.83 114.665 135.83 114.301C135.83 113.845 135.962 113.435 136.226 113.07C136.5 112.697 136.85 112.405 137.279 112.195C137.707 111.977 138.158 111.867 138.632 111.867C138.888 111.867 139.111 111.881 139.302 111.908C139.494 111.936 139.639 111.963 139.74 111.99C139.84 112.018 139.963 112.049 140.109 112.086C140.255 112.122 140.487 112.177 140.806 112.25C140.916 112.861 140.97 113.562 140.97 114.355C140.961 114.438 140.906 114.479 140.806 114.479C140.56 114.479 140.428 114.438 140.41 114.355C140.373 114.073 140.273 113.795 140.109 113.521C139.945 113.239 139.731 113.002 139.466 112.811C139.211 112.619 138.919 112.523 138.591 112.523C138.172 112.523 137.848 112.642 137.621 112.879C137.402 113.116 137.292 113.435 137.292 113.836C137.292 114.091 137.338 114.292 137.429 114.438C137.52 114.574 137.639 114.725 137.785 114.889C137.885 114.998 138.049 115.135 138.277 115.299C138.505 115.463 138.76 115.636 139.042 115.818C139.325 115.992 139.598 116.156 139.863 116.311C140.364 116.602 140.751 116.921 141.025 117.268C141.298 117.605 141.435 118.056 141.435 118.621C141.435 119.104 141.298 119.537 141.025 119.92C140.751 120.303 140.391 120.604 139.945 120.822C139.507 121.032 139.029 121.137 138.509 121.137Z" fill="black"/>
<path d="M99.9272 136C99.8361 135.945 99.7814 135.799 99.7632 135.562C100.228 135.07 100.67 134.56 101.089 134.031C101.509 133.503 101.878 132.979 102.197 132.459C102.525 131.939 102.78 131.452 102.962 130.996C103.145 130.54 103.236 130.135 103.236 129.779C103.236 129.333 103.117 128.968 102.88 128.686C102.653 128.403 102.352 128.262 101.978 128.262C101.732 128.262 101.513 128.307 101.322 128.398C101.13 128.49 100.966 128.594 100.83 128.713C100.711 128.822 100.597 128.95 100.488 129.096C100.388 129.232 100.337 129.31 100.337 129.328C100.274 129.328 100.201 129.296 100.119 129.232C100.046 129.169 100.009 129.105 100.009 129.041C100.064 128.904 100.151 128.749 100.269 128.576C100.397 128.394 100.561 128.193 100.761 127.975C100.971 127.765 101.235 127.587 101.554 127.441C101.882 127.296 102.233 127.223 102.607 127.223C103.044 127.223 103.423 127.323 103.742 127.523C104.07 127.724 104.325 127.997 104.507 128.344C104.69 128.69 104.781 129.082 104.781 129.52C104.781 129.802 104.735 130.08 104.644 130.354C104.553 130.654 104.453 130.923 104.343 131.16C104.234 131.397 104.065 131.671 103.837 131.98C103.664 132.208 103.514 132.404 103.386 132.568C103.268 132.732 103.131 132.901 102.976 133.074C102.821 133.238 102.611 133.448 102.347 133.703C102.092 133.958 101.746 134.291 101.308 134.701C101.281 134.719 101.272 134.742 101.281 134.77C101.29 134.797 101.313 134.811 101.349 134.811H103.837C104.047 134.811 104.225 134.751 104.371 134.633C104.507 134.523 104.603 134.405 104.658 134.277C104.712 134.141 104.776 133.94 104.849 133.676C104.876 133.594 104.949 133.553 105.068 133.553C105.177 133.553 105.268 133.576 105.341 133.621L104.89 135.795C104.881 135.932 104.808 136 104.671 136H99.9272ZM109.47 136.041C109.06 136.041 108.668 135.927 108.294 135.699C107.921 135.471 107.588 135.157 107.296 134.756C107.014 134.355 106.791 133.895 106.626 133.375C106.462 132.846 106.38 132.286 106.38 131.693C106.38 131.101 106.462 130.545 106.626 130.025C106.791 129.497 107.014 129.032 107.296 128.631C107.588 128.23 107.921 127.915 108.294 127.688C108.668 127.46 109.06 127.346 109.47 127.346C109.88 127.346 110.268 127.46 110.632 127.688C110.997 127.915 111.32 128.23 111.603 128.631C111.895 129.032 112.118 129.497 112.273 130.025C112.437 130.545 112.519 131.101 112.519 131.693C112.519 132.286 112.437 132.846 112.273 133.375C112.118 133.895 111.895 134.355 111.603 134.756C111.32 135.157 110.997 135.471 110.632 135.699C110.268 135.927 109.88 136.041 109.47 136.041ZM109.484 135.439C109.949 135.439 110.309 135.079 110.564 134.359C110.819 133.648 110.947 132.732 110.947 131.611C110.947 130.554 110.815 129.67 110.55 128.959C110.277 128.275 109.921 127.934 109.484 127.934C109.046 127.934 108.682 128.285 108.39 128.986C108.108 129.688 107.966 130.586 107.966 131.68C107.966 132.728 108.112 133.621 108.404 134.359C108.686 135.079 109.046 135.439 109.484 135.439ZM113.736 136C113.645 135.945 113.59 135.799 113.572 135.562C114.037 135.07 114.479 134.56 114.898 134.031C115.317 133.503 115.686 132.979 116.005 132.459C116.333 131.939 116.589 131.452 116.771 130.996C116.953 130.54 117.044 130.135 117.044 129.779C117.044 129.333 116.926 128.968 116.689 128.686C116.461 128.403 116.16 128.262 115.787 128.262C115.541 128.262 115.322 128.307 115.13 128.398C114.939 128.49 114.775 128.594 114.638 128.713C114.52 128.822 114.406 128.95 114.296 129.096C114.196 129.232 114.146 129.31 114.146 129.328C114.082 129.328 114.009 129.296 113.927 129.232C113.854 129.169 113.818 129.105 113.818 129.041C113.873 128.904 113.959 128.749 114.078 128.576C114.205 128.394 114.369 128.193 114.57 127.975C114.779 127.765 115.044 127.587 115.363 127.441C115.691 127.296 116.042 127.223 116.416 127.223C116.853 127.223 117.231 127.323 117.55 127.523C117.878 127.724 118.134 127.997 118.316 128.344C118.498 128.69 118.589 129.082 118.589 129.52C118.589 129.802 118.544 130.08 118.453 130.354C118.361 130.654 118.261 130.923 118.152 131.16C118.042 131.397 117.874 131.671 117.646 131.98C117.473 132.208 117.322 132.404 117.195 132.568C117.076 132.732 116.94 132.901 116.785 133.074C116.63 133.238 116.42 133.448 116.156 133.703C115.901 133.958 115.554 134.291 115.117 134.701C115.089 134.719 115.08 134.742 115.089 134.77C115.098 134.797 115.121 134.811 115.158 134.811H117.646C117.856 134.811 118.033 134.751 118.179 134.633C118.316 134.523 118.412 134.405 118.466 134.277C118.521 134.141 118.585 133.94 118.658 133.676C118.685 133.594 118.758 133.553 118.876 133.553C118.986 133.553 119.077 133.576 119.15 133.621L118.699 135.795C118.69 135.932 118.617 136 118.48 136H113.736ZM120.64 136C120.549 135.945 120.494 135.799 120.476 135.562C120.941 135.07 121.383 134.56 121.802 134.031C122.222 133.503 122.591 132.979 122.91 132.459C123.238 131.939 123.493 131.452 123.675 130.996C123.858 130.54 123.949 130.135 123.949 129.779C123.949 129.333 123.83 128.968 123.593 128.686C123.365 128.403 123.065 128.262 122.691 128.262C122.445 128.262 122.226 128.307 122.035 128.398C121.843 128.49 121.679 128.594 121.542 128.713C121.424 128.822 121.31 128.95 121.201 129.096C121.1 129.232 121.05 129.31 121.05 129.328C120.986 129.328 120.914 129.296 120.832 129.232C120.759 129.169 120.722 129.105 120.722 129.041C120.777 128.904 120.863 128.749 120.982 128.576C121.11 128.394 121.274 128.193 121.474 127.975C121.684 127.765 121.948 127.587 122.267 127.441C122.595 127.296 122.946 127.223 123.32 127.223C123.757 127.223 124.136 127.323 124.455 127.523C124.783 127.724 125.038 127.997 125.22 128.344C125.403 128.69 125.494 129.082 125.494 129.52C125.494 129.802 125.448 130.08 125.357 130.354C125.266 130.654 125.166 130.923 125.056 131.16C124.947 131.397 124.778 131.671 124.55 131.98C124.377 132.208 124.227 132.404 124.099 132.568C123.981 132.732 123.844 132.901 123.689 133.074C123.534 133.238 123.324 133.448 123.06 133.703C122.805 133.958 122.458 134.291 122.021 134.701C121.994 134.719 121.985 134.742 121.994 134.77C122.003 134.797 122.026 134.811 122.062 134.811H124.55C124.76 134.811 124.938 134.751 125.083 134.633C125.22 134.523 125.316 134.405 125.371 134.277C125.425 134.141 125.489 133.94 125.562 133.676C125.589 133.594 125.662 133.553 125.781 133.553C125.89 133.553 125.981 133.576 126.054 133.621L125.603 135.795C125.594 135.932 125.521 136 125.384 136H120.64Z" fill="black"/>
<path d="M110.207 183.1C108.807 184.3 108.807 184.3 110.007 182.8V182.7C110.707 181.8 112.407 181 113.707 181C115.007 181 116.307 181.3 116.507 181.7C116.707 182.2 115.707 182.3 114.307 182.1C112.907 181.9 111.007 182.4 110.207 183.1Z" fill="#222222"/>
<path d="M131.807 170.5C132.407 169.5 134.507 167.8 136.307 166.8C138.107 165.8 139.907 165 140.407 165C140.807 165 140.907 166.9 140.607 169.2C140.307 171.8 139.207 174.5 137.907 175.9C136.607 177.2 136.207 178 136.807 177.7C137.507 177.3 140.707 177.7 143.807 178.5C147.007 179.3 150.307 180.7 151.107 181.5C152.407 182.8 152.307 183.1 149.807 184C148.307 184.5 145.507 185 143.607 185C141.707 185 138.507 184.3 136.607 183.5C134.707 182.7 133.107 181.5 133.107 181C133.107 180.4 132.307 180 131.307 180C129.907 180 129.707 179.3 130.107 176.2C130.407 174.1 131.107 171.5 131.807 170.5Z" fill="#222222"/>
<path d="M88.007 174C86.907 172.6 86.007 170 86.107 168.3V168.2C86.107 166.5 86.407 165 86.807 165C87.307 165 89.107 165.9 90.807 167C92.607 168.1 94.607 170 95.307 171.2C95.907 172.5 96.807 175 97.307 176.7C97.807 178.8 97.707 180 97.107 180C96.607 180 94.407 181.1 92.407 182.5C89.707 184.3 87.307 185.1 84.107 185C81.607 185 78.707 184.4 77.607 183.5C75.907 182.2 75.807 181.9 77.107 181C77.907 180.4 81.207 179.2 89.907 176.5L88.007 174Z" fill="#222222"/>
<path d="M145.807 166.8C146.207 165 148.007 162 149.907 160.2C151.707 158.4 153.707 157.2 154.307 157.5C154.807 157.9 155.307 159.7 155.207 161.6C155.107 163.5 154.507 166.2 153.707 167.8C152.307 170.4 152.407 170.5 155.207 170.8C156.807 170.9 159.807 171.6 161.807 172.3C163.807 172.9 165.607 174 165.807 174.5C166.007 175.1 165.007 176.1 163.607 176.8C162.207 177.4 159.007 178 156.307 178C153.707 178 150.607 177.3 149.307 176.5C148.107 175.6 146.107 175.3 144.807 175.6C142.707 176.2 142.707 176.1 144.507 174.9C145.707 174 146.207 172.9 145.807 171.8C145.407 170.8 145.407 168.5 145.807 166.8Z" fill="#222222"/>
<path d="M158.507 157C158.807 155.6 160.007 153 161.107 151.3V151.2C162.207 149.5 163.507 148 164.107 148C164.607 148 165.507 149.5 166.007 151.2C166.607 153 166.907 155.9 166.807 157.6C166.707 159.3 166.107 161.3 165.407 162.1C164.507 163.3 164.907 163.4 168.407 163.2C170.707 163 173.607 163.1 174.807 163.4C176.107 163.7 177.107 164.4 177.107 165C177.107 165.5 175.607 166.9 173.907 168C172.107 169.1 168.907 170 166.907 170C164.807 170 161.907 169.5 160.407 169C158.507 168.3 157.307 168.3 156.607 169C156.107 169.5 155.207 170 154.607 170C154.107 170 155.107 169 156.907 167.7C159.207 166.2 160.007 165 159.607 164C159.207 163.2 158.607 161.8 158.407 161C158.107 160.2 158.107 158.4 158.507 157Z" fill="#222222"/>
<path d="M168.107 146.5C168.107 145.1 168.807 142.4 169.707 140.5C170.707 138.6 171.807 137 172.207 137C172.707 137 173.807 138.3 174.607 140C175.407 141.7 176.107 144.2 176.107 148.5L178.107 145.5C179.207 143.8 180.107 142.8 180.107 143.2C180.107 143.7 181.307 143.4 182.907 142.6C184.407 141.8 187.307 140.9 189.407 140.6C192.007 140.2 193.107 140.4 193.107 141.2C193.107 141.9 191.907 143.7 190.407 145.1C188.807 146.6 186.607 148.3 185.407 148.9C184.107 149.5 181.407 150 179.407 150C176.607 150.1 175.107 150.7 171.907 155L175.207 154.4C177.107 154.1 179.207 153.6 179.907 153.4C180.507 153.2 182.207 153.2 183.607 153.5C185.507 153.9 185.907 154.4 185.407 155.6C184.907 156.5 183.307 158 181.607 159C179.907 160 177.307 161.1 175.607 161.4C173.907 161.8 171.307 161.6 166.607 160L169.107 157.5C171.607 155 171.607 154.9 169.907 152C168.907 150.3 168.107 147.9 168.107 146.5Z" fill="#222222"/>
<path d="M51.0069 144.7C51.0069 143.2 51.7069 140.6 52.6069 139C53.4069 137.3 54.4069 136 54.6069 136C54.9069 136 56.0069 137.5 57.1069 139.2C58.2069 141 59.1069 144.1 59.1069 146C59.1069 147.9 58.3069 150.6 57.4069 151.8C55.7069 154.1 55.7069 154.3 60.6069 158.9V154.5C60.6069 152.1 61.2069 149.5 61.9069 148.8C63.0069 147.7 63.7069 148 65.7069 150.3C67.0069 151.8 68.4069 154.7 68.7069 156.8C69.0069 158.8 68.8069 161.5 68.2069 162.8C67.3069 164.6 67.4069 165.3 68.8069 166.3C69.8069 167.1 71.1069 167.9 71.6069 168.2C72.2069 168.6 72.5069 166.9 72.2069 163.6C72.0069 160.5 72.2069 158.2 73.0069 157.8C73.6069 157.3 75.1069 157.8 76.3069 158.8C77.6069 159.8 79.4069 162.5 80.3069 164.8C81.6069 167.9 81.8069 169.5 81.1069 171C80.4403 172.333 80.4403 173.167 81.1069 173.5C81.6069 173.8 80.5069 174.9 78.6069 176C76.5069 177.2 73.3069 178 70.6069 178C68.1069 178 65.0069 177.4 63.6069 176.8C62.2069 176.1 61.1069 175.2 61.1069 174.8C61.1069 174.3 61.7069 173.7 62.3069 173.3C63.0069 172.9 65.8069 172.1 68.6069 171.5C73.3069 170.4 73.4069 170.3 71.4069 169.2C69.8069 168.4 68.5069 168.3 67.1069 169C66.0069 169.6 63.2069 170 60.9069 170C58.4069 170 55.3069 169.2 53.4069 168C51.6069 166.9 50.1069 165.6 50.1069 165C50.1069 164.4 50.8069 163.8 51.6069 163.5C52.4069 163.2 55.5069 163 58.3069 163C63.1069 162.9 63.4069 162.8 61.6069 161.6C60.1069 160.5 59.0069 160.4 57.1069 161.2C55.4069 161.9 53.4069 161.9 50.6069 161.2C48.4069 160.6 45.3069 158.9 43.8069 157.3C41.2069 154.7 41.1069 154.4 42.8069 153.6C43.8069 153.1 46.2069 153 48.1069 153.3C50.0069 153.6 52.5069 154.3 55.6069 155.4L53.6069 152.8C52.1069 150.7 50.7069 150.1 47.8069 150C45.8069 150 43.1069 149.5 41.8069 148.9C40.6069 148.3 38.4069 146.6 36.8069 145.1C35.3069 143.7 34.1069 141.8 34.1069 141C34.1069 139.8 34.8069 139.6 38.3069 140.3C40.7069 140.8 43.9069 141.9 45.6069 142.8C47.2069 143.7 49.1069 145.2 49.8069 146C50.8069 147.3 51.0069 147.1 51.0069 144.7Z" fill="#222222"/>
<path d="M176.007 130.4C176.007 128.5 176.507 126 177.207 124.9C178.207 123.2 178.607 123.1 179.907 124.2C180.707 124.9 182.007 127 182.807 128.7C183.507 130.5 184.307 132 184.607 132C184.907 132 186.807 130.9 188.907 129.5C190.907 128.2 194.107 126.7 196.007 126.3C199.507 125.5 199.507 125.5 198.207 128C197.407 129.4 195.707 131.7 194.207 133.3C192.807 134.8 190.107 136.5 188.407 137C186.607 137.6 184.707 137.8 184.107 137.5C183.507 137.2 182.807 137.7 182.407 138.5C181.907 139.4 180.907 139.8 180.107 139.6C179.307 139.3 178.007 137.9 177.407 136.5C176.707 135.1 176.107 132.4 176.007 130.4Z" fill="#222222"/>
<path d="M44.0069 129.6C43.9069 128.9 44.9069 127.1 46.1069 125.6C47.3069 124.2 48.7069 123 49.2069 123C49.7069 123 50.5069 124.5 51.0069 126.3C51.5069 128 51.6069 130.8 51.3069 132.5C51.0069 134.2 49.7069 136.7 48.5069 138.3C46.9069 140.1 45.9069 140.6 45.6069 139.8C45.3069 139.1 43.2069 138.1 40.9069 137.7C38.0069 137.1 35.4069 135.6 32.9069 133.2C30.9069 131.2 29.2069 128.7 29.1069 127.8C29.1069 126.8 29.5069 126 30.1069 126C30.7069 126 32.8069 126.7 34.8069 127.6C36.9069 128.4 39.4069 129.8 40.3069 130.6C41.3069 131.4 42.6069 131.8 43.1069 131.5C43.6069 131.2 44.1069 130.4 44.0069 129.6Z" fill="#222222"/>
<path d="M180.607 117C179.807 115.3 179.107 112.2 179.107 110C179.107 107.8 179.507 106 180.107 106C180.707 106 182.707 107.6 184.607 109.5C186.507 111.4 188.107 113.6 188.107 114.3C188.107 114.9 189.507 114.1 191.307 112.4C193.107 110.6 196.107 108.5 197.807 107.6C200.707 106.2 201.107 106.2 201.107 107.5C201.107 108.3 200.507 110.2 199.707 111.8C199.007 113.3 197.007 115.7 195.207 117.3C193.507 118.8 191.307 120 190.307 120C189.307 120 188.107 120.5 187.607 121.1C186.907 121.9 186.007 121.9 184.407 121.1C183.107 120.5 181.407 118.7 180.607 117Z" fill="#222222"/>
<path d="M27.2069 110.8C26.6069 109.2 26.0069 107.6 26.0069 107.1C25.9069 106.6 26.9069 106.5 28.2069 106.8C29.5069 107.1 32.5069 109.2 34.8069 111.5C37.5069 114 39.1069 115 39.1069 114C39.1069 113.2 40.8069 111 42.9069 109.2C44.9069 107.4 46.9069 105.9 47.4069 106C47.8069 106 48.1069 107.8 48.1069 110C48.1069 112.2 47.6069 115 47.0069 116.3C46.4069 117.5 44.6069 119.7 43.0069 121.3C41.0069 123.2 40.1069 123.5 40.1069 122.5C40.1069 121.7 38.9069 120.8 37.4069 120.5C35.8069 120.2 33.2069 118.5 31.4069 116.8C29.7069 115 27.7069 112.3 27.2069 110.8Z" fill="#222222"/>
<path d="M189.907 97C190.207 96.2 192.207 93.8 194.307 91.7C196.507 89.7 198.707 88.2 199.207 88.5C199.707 88.8 199.807 90.5 199.507 92.2C199.107 94 198.107 96.8 197.107 98.5C196.107 100.2 193.707 102.5 191.707 103.7C188.107 106 188.107 106 184.907 104.1C182.807 103 180.907 100.6 179.707 97.9C178.707 95.5 178.107 92.7 178.507 91.7C179.007 90.1 179.407 90.1 182.107 91.5C183.807 92.3 186.107 94.2 187.207 95.7C188.907 97.9 189.507 98.2 189.907 97Z" fill="#222222"/>
<path d="M28.0068 93.2999C27.3068 90.9999 27.1068 88.8999 27.5068 88.5999C27.9068 88.2999 29.0068 88.3999 29.9068 88.8999C30.9068 89.3999 32.7068 91.0999 34.1068 92.6999C35.5068 94.3999 37.1068 96.5999 37.8068 97.5999C38.9068 99.3999 39.0068 99.3999 39.1068 97.4999C39.2068 96.3999 40.4068 94.5999 41.9068 93.3999C43.4068 92.1999 45.6068 90.9999 46.9068 90.5999C48.8068 90.0999 49.1068 90.3999 49.1068 92.7999C49.1068 94.2999 48.2068 96.9999 47.1068 98.7999C46.0068 100.5 43.6068 102.9 41.9068 103.9C38.9068 105.7 38.3068 105.7 35.9068 104.4C34.3068 103.6 32.2068 101.8 31.2068 100.3C30.1068 98.6999 28.7068 95.5999 28.0068 93.2999Z" fill="#222222"/>
<path d="M188.307 80.5C189.407 78.3 191.007 75.7 191.907 74.8C192.707 73.8 194.007 73 194.707 73C195.607 73 196.107 74.2 196.107 76.5C196.107 78.4 195.307 81.6 194.307 83.7C193.407 85.7 191.607 88.2 190.307 89.2C188.507 90.7 187.507 90.8 184.807 90C183.107 89.4 180.707 88.4 179.607 87.6C178.507 86.9 176.807 84.7 175.807 82.7C174.907 80.7 174.107 78.5 174.107 78C174.107 77.5 174.907 77 175.807 77C176.807 77 179.507 78.1 181.907 79.3C184.207 80.5 186.207 82.2 186.207 83C186.207 83.8 187.107 82.7 188.307 80.5Z" fill="#222222"/>
<path d="M33.007 81.5C32.907 79.8 32.907 77.3 32.907 75.8C33.007 74.2 33.507 73 34.107 73C34.607 73 35.907 74.2 36.807 75.8C37.807 77.3 39.107 80.1 39.807 82C40.507 83.9 41.007 84.8 41.007 84C41.007 83.2 42.807 81.5 44.807 80.3C46.907 79.1 49.807 78.1 51.307 78C52.907 78 54.107 78.3 54.107 78.8C54.107 79.2 53.207 81 52.107 82.8C51.007 84.5 49.107 86.7 47.807 87.5C46.607 88.3 44.507 89.1 43.107 89.3C41.707 89.5 40.507 90.2 40.307 90.9C40.207 91.7 39.507 91.7 38.107 91C37.007 90.5 35.507 88.8 34.707 87.3C33.907 85.7 33.207 83.2 33.007 81.5Z" fill="#222222"/>
<path d="M183.907 68.8001C184.707 66.4001 186.007 63.7001 186.907 62.7001C188.507 60.9001 188.607 60.9001 189.907 62.7001C190.607 63.7001 191.107 65.8001 191.107 67.5001C191.107 69.1001 190.207 72.4001 189.107 74.7001C188.007 77.1001 186.407 79.0001 185.607 79.0001C184.807 79.0001 184.007 78.5001 183.807 77.9001C183.707 77.3001 182.007 76.7001 180.107 76.6001C178.207 76.5001 175.507 75.6001 174.107 74.8001C172.707 73.9001 170.807 71.7001 169.907 69.8001C168.207 66.6001 168.207 66.5001 170.407 66.2001C171.607 66.0001 174.307 66.3001 176.307 66.9001C178.707 67.6001 180.607 68.9001 182.607 73.1001L183.907 68.8001Z" fill="#222222"/>
<path d="M37.807 71.8C37.407 69.7 37.607 66.2 38.107 64C38.707 61.8 39.507 60 39.907 60C40.307 60 41.207 61 42.007 62.2C42.807 63.5 43.707 66.5 44.107 69C44.707 73.4 44.807 73.4 46.007 71C46.607 69.6 47.707 68.4 48.407 68.2C49.107 68.1 52.007 67.7 60.107 67L58.607 70C57.707 71.8 55.407 73.8 52.807 75C50.507 76 47.607 76.7 46.307 76.5C44.707 76.1 43.907 76.6 42.907 80.5L40.707 78C39.507 76.6 38.207 73.8 37.807 71.8Z" fill="#222222"/>
<path d="M176.307 56.5C176.707 53.7 177.607 50.5 178.307 49.2C179.507 47 179.707 47 180.907 48.7C181.607 49.7 182.407 51.8 182.707 53.5C183.107 55.1 183.107 58.1 182.707 60C182.407 61.9 181.307 64.3 180.107 65.2C178.207 66.9 178.107 66.9 177.607 65C177.207 63.3 176.507 63.1 173.907 63.6C172.107 63.9 168.907 63.7 166.907 63.1C164.807 62.5 162.407 61 161.607 59.7C160.807 58.5 160.107 56.9 160.107 56.2C160.107 55.4 161.807 55.1 165.707 55.2C170.707 55.5 171.607 55.8 175.607 61.5L176.307 56.5Z" fill="#222222"/>
<path d="M45.1069 58.4999C45.1069 55.1999 45.8069 52.2999 47.2069 49.9999C49.2069 46.6999 49.4069 46.5999 50.4069 48.4999C51.0069 49.5999 51.5069 52.7999 51.6069 60.8999L54.4069 58.1999C56.7069 55.9999 58.2069 55.4999 62.1069 55.4999C64.8069 55.4999 67.3069 55.7999 67.8069 56.1999C68.2069 56.6999 67.7069 57.8999 66.6069 59.0999C65.5069 60.2999 63.2069 61.8999 61.6069 62.6999C59.6069 63.6999 57.3069 63.9999 54.8069 63.5999C51.7069 63.0999 50.9069 63.2999 49.6069 65.1999C48.2069 67.4999 48.1069 67.4999 46.6069 65.4999C45.7069 64.2999 45.1069 61.4999 45.1069 58.4999Z" fill="#222222"/>
<path d="M158.507 46.8C157.707 45.2 157.107 43.5 157.107 43C157.107 42.5 158.407 42 160.107 42C162.107 42 164.107 43 166.107 45C168.107 47 169.107 49 169.107 51C169.107 53.7 168.907 54 166.407 53.4C164.807 53.1 162.807 52.1 161.707 51.2C160.707 50.3 159.307 48.3 158.507 46.8Z" fill="#222222"/>
<path d="M58.2068 50.9C58.2068 49 59.3068 46.8 61.1068 44.9C63.0068 42.9 64.9068 42 67.0068 42C68.7068 42 70.1068 42.5 70.1068 43C70.1068 43.5 69.5068 45.2 68.7068 46.8C67.9068 48.3 66.5068 50.3 65.5068 51.2C64.4068 52.1 62.4068 53.1 60.8068 53.4C58.3068 54 58.1068 53.8 58.2068 50.9Z" fill="#222222"/>
<path d="M112.607 136C111.207 136 110.307 135.6 110.607 135C111.007 134.5 112.107 134 113.107 134C114.207 134 115.107 134.5 115.107 135C115.107 135.6 114.007 136 112.607 136Z" fill="#EBECED"/>
</svg>
