<svg width="40" height="40" viewBox="0 0 40 40" fill="none" xmlns="http://www.w3.org/2000/svg">
<g clip-path="url(#clip0_592_1119)">
<path d="M20.0017 15C17.2393 15 15.0016 17.2385 15.0016 20C15.0016 22.7621 17.2402 25 20.0017 25C22.7638 25 25.0017 22.7615 25.0017 20C25.0017 17.2378 22.7632 15 20.0017 15ZM20.0017 11.6666C24.6023 11.6666 28.335 15.3951 28.335 20C28.335 24.6008 24.6065 28.3333 20.0017 28.3333C15.4008 28.3333 11.6683 24.6048 11.6683 20C11.6683 15.3992 15.3968 11.6666 20.0017 11.6666ZM30.835 11.2486C30.835 12.3987 29.9003 13.3319 28.7517 13.3319C27.6015 13.3319 26.6683 12.3973 26.6683 11.2486C26.6683 10.0998 27.6028 9.16665 28.7517 9.16665C29.8988 9.1652 30.835 10.0998 30.835 11.2486ZM20.0017 6.66665C15.8775 6.66665 15.2053 6.67756 13.2871 6.76298C11.9802 6.82433 11.1042 7.0001 10.2903 7.3161C9.56693 7.59663 9.04514 7.93161 8.48919 8.48756C7.93111 9.04565 7.59673 9.56603 7.31733 10.2897C7.00059 11.1055 6.82488 11.9802 6.76463 13.2852C6.67838 15.1253 6.66829 15.7684 6.66829 20C6.66829 24.1241 6.67921 24.7963 6.76461 26.7143C6.82599 28.0206 7.00199 28.898 7.31723 29.71C7.59849 30.4343 7.93416 30.9573 8.48743 31.5106C9.04771 32.0701 9.56965 32.4056 10.2864 32.6823C11.1103 33.0008 11.9858 33.1768 13.2869 33.237C15.127 33.3231 15.77 33.3333 20.0017 33.3333C24.1258 33.3333 24.798 33.3223 26.716 33.237C28.0195 33.1758 28.8975 32.9993 29.7117 32.6843C30.434 32.4038 30.9587 32.067 31.5123 31.5141C32.0727 30.953 32.4075 30.4323 32.6845 29.7138C33.0022 28.893 33.1785 28.0163 33.2387 26.7148C33.3248 24.8746 33.335 24.2315 33.335 20C33.335 15.8758 33.324 15.2037 33.2387 13.2856C33.1773 11.9817 33.0008 11.1025 32.6855 10.2886C32.4057 9.56728 32.0695 9.0439 31.514 8.48756C30.955 7.92856 30.436 7.59486 29.7118 7.31568C28.8967 6.99921 28.0207 6.82325 26.7163 6.763C24.8763 6.67673 24.2332 6.66665 20.0017 6.66665ZM20.0017 3.33331C24.5293 3.33331 25.0947 3.34998 26.8725 3.43331C28.646 3.51526 29.8558 3.79581 30.9183 4.20831C32.0168 4.63193 32.9447 5.20415 33.871 6.13053C34.796 7.05693 35.3683 7.98748 35.7933 9.08331C36.2043 10.1444 36.485 11.3555 36.5683 13.1291C36.6475 14.9069 36.6683 15.4722 36.6683 20C36.6683 24.5278 36.6517 25.093 36.5683 26.8708C36.4863 28.6445 36.2043 29.8541 35.7933 30.9166C35.3697 32.0153 34.796 32.943 33.871 33.8695C32.9447 34.7945 32.0127 35.3666 30.9183 35.7916C29.8558 36.2028 28.646 36.4833 26.8725 36.5666C25.0947 36.6458 24.5293 36.6666 20.0017 36.6666C15.4738 36.6666 14.9086 36.65 13.1308 36.5666C11.3572 36.4846 10.1488 36.2028 9.08496 35.7916C7.98773 35.368 7.05856 34.7945 6.13218 33.8695C5.20579 32.943 4.63496 32.0111 4.20996 30.9166C3.79746 29.8541 3.51829 28.6445 3.43496 26.8708C3.35579 25.093 3.33496 24.5278 3.33496 20C3.33496 15.4722 3.35163 14.9069 3.43496 13.1291C3.51689 11.3541 3.79746 10.1458 4.20996 9.08331C4.63356 7.9861 5.20579 7.05693 6.13218 6.13053C7.05856 5.20415 7.98913 4.63331 9.08496 4.20831C10.1475 3.79581 11.3558 3.51665 13.1308 3.43331C14.9086 3.35415 15.4738 3.33331 20.0017 3.33331Z" fill="#FCF5ED"/>
</g>
<defs>
<clipPath id="clip0_592_1119">
<rect width="40" height="40" fill="white"/>
</clipPath>
</defs>
</svg>
