<svg width="299" height="58" viewBox="0 0 1599 258" fill="none" xmlns="http://www.w3.org/2000/svg">
<path fill-rule="evenodd" clip-rule="evenodd" d="M782.5 151.641C784.4 150.542 787.8 149.042 790 148.243C792.4 147.543 797.1 147.143 801.5 147.343C805.9 147.543 810.8 148.542 813.5 149.642C816 150.742 820.2 153.64 822.9 156.04C825.5 158.439 828.8 162.637 830.1 165.236C831.4 167.835 832.5 170.434 832.5 171.034C832.5 171.633 821 172.033 800 172.033C779 172.033 767.5 171.633 767.5 171.034C767.5 170.434 768.4 168.135 769.5 166.036C770.6 163.837 773.2 160.138 775.2 157.839C777.3 155.64 780.6 152.841 782.5 151.641ZM1294 148.343C1291.8 149.042 1288.9 150.242 1287.5 151.041C1286.1 151.741 1283 154.24 1280.6 156.439C1278.2 158.639 1275.2 162.637 1273.9 165.236C1272.6 167.835 1271.5 170.434 1271.5 170.934C1271.5 171.633 1283 171.933 1304 171.933H1336.5C1335.6 168.535 1334.3 165.636 1333 163.437C1331.8 161.337 1328.8 157.739 1326.4 155.54C1324 153.341 1320 150.742 1317.5 149.642C1314.8 148.542 1310 147.543 1305.5 147.343C1301 147.143 1296.4 147.543 1294 148.343ZM1001 152.141C1003.7 150.742 1008 149.342 1010.5 149.042C1013 148.642 1016.8 148.542 1019 148.842C1021.2 149.042 1025.2 150.242 1028 151.541C1030.7 152.741 1035 156.04 1037.5 158.639C1040.1 161.437 1043.1 166.336 1044.6 170.034C1046.1 173.533 1047.6 179.43 1048 182.929C1048.4 187.327 1048.2 191.826 1047.2 196.424C1046.4 200.322 1044.8 205.42 1043.6 207.719C1042.4 210.019 1039.6 213.917 1037.2 216.216C1034.9 218.615 1030.7 221.614 1028 223.014C1024.1 224.913 1021.4 225.413 1015.5 225.413C1009.5 225.413 1006.9 224.913 1002.5 222.914C999.5 221.514 995.2 218.615 993.1 216.416C990.9 214.217 987.7 209.519 986.1 205.92C983.2 199.823 983 198.823 983 187.527C983 176.232 983.2 175.132 986.1 168.935C987.8 165.436 990.7 160.738 992.6 158.639C994.4 156.439 998.2 153.54 1001 152.141ZM1526.5 149.042C1524 149.442 1520.2 150.642 1518 151.741C1515.8 152.841 1512.3 155.54 1510.1 157.639C1508 159.738 1505 163.936 1503.5 166.935C1502 170.034 1500.2 174.832 1499.6 177.731C1499 180.63 1498.5 185.328 1498.5 188.227C1498.5 191.126 1499.1 195.724 1499.8 198.423C1500.6 201.222 1502.2 205.42 1503.3 207.719C1504.5 210.019 1507.2 213.817 1509.2 216.016C1511.3 218.315 1515.5 221.314 1518.5 222.814C1522.9 224.913 1525.4 225.413 1531.5 225.413C1537.6 225.413 1540 224.913 1544.5 222.814C1547.8 221.214 1551.9 218.016 1554.8 214.817C1557.5 211.818 1560.5 207.02 1561.7 203.921C1562.9 200.722 1564 195.024 1564.3 189.926C1564.7 183.229 1564.3 180.03 1562.7 174.432C1561.4 170.034 1559 165.236 1556.1 161.238C1552.3 156.139 1550.3 154.44 1545.2 152.041C1541.8 150.442 1537.2 148.942 1535 148.742C1532.8 148.542 1529 148.642 1526.5 149.042ZM0.2 158.439C0.1 177.131 0 162.037 0 124.952C0 87.8659 0.1 72.5719 0.2 90.9647C0.4 109.358 0.4 139.746 0.2 158.439ZM627.1 125.251C631.4 122.952 638.4 120.153 642.5 118.954C648.8 117.255 652.2 116.955 663 117.354C672.8 117.654 677.7 118.254 683 119.953C686.9 121.153 692.5 123.552 695.5 125.251C698.5 127.051 703 130.15 705.5 132.349C708 134.548 711.8 138.546 714 141.445C716.2 144.244 719.1 148.942 720.5 151.841C722.7 156.339 722.8 157.139 721.5 157.939C720.7 158.439 712.8 160.238 704 161.837C689.1 164.636 687.9 164.736 687 163.137C686.5 162.237 684.7 159.938 683 158.139C681.4 156.239 677.3 153.441 674 151.741C669.1 149.342 666.7 148.842 661 148.742C657.1 148.742 652.4 149.342 650.5 150.142C648.6 150.941 644.9 153.041 642.2 154.74C639.6 156.539 635.9 160.338 634 163.137C632.1 166.036 629.5 171.334 628.4 174.932C626.7 180.03 626.3 183.129 626.7 189.427C627 194.125 628 199.723 629.2 202.921C630.5 206.22 633.5 210.818 636.7 214.317C639.6 217.516 644.2 221.314 647 222.814C651.3 225.013 653.2 225.413 661 225.413C669.6 225.413 670.4 225.213 675.9 221.914C679.1 220.015 682.8 217.116 684.2 215.416C685.6 213.717 687 211.818 687.4 211.118C687.9 210.019 691.5 210.518 705 213.417C714.3 215.416 722.2 217.316 722.5 217.516C722.8 217.816 721.4 221.014 719.5 224.713C717.3 228.911 713.3 234.209 708.5 238.907C703.4 244.105 699 247.504 694.5 249.603C690.9 251.403 684.4 253.802 680 255.001C673.8 256.601 669.4 257.1 660.5 257.1C653.6 257 646.6 256.401 643 255.401C639.7 254.601 633.2 252.002 628.5 249.703C621.9 246.504 618.2 243.706 611.9 237.508C605.2 230.811 602.9 227.712 599.1 219.915C596.5 214.617 593.8 207.12 592.9 202.921C591.8 197.523 591.4 192.225 591.8 183.929C592.2 175.332 592.9 170.434 594.9 164.436C596.3 160.038 599.1 153.54 601.2 149.942C603.3 146.343 608.2 140.346 612.1 136.447C616.7 131.849 621.8 128.05 627.1 125.251ZM784.5 118.454C781.5 119.154 777 120.653 774.5 121.753C772 122.752 767.3 125.351 764 127.451C760.7 129.55 755.4 133.748 752.2 136.847C749 139.946 744.6 145.144 742.5 148.442C740.5 151.741 737.6 157.139 736.2 160.438C734.9 163.737 733.1 169.134 732.4 172.433C731.7 175.732 731.2 182.729 731.2 187.927C731.2 193.225 732 200.322 732.9 203.921C733.8 207.52 736.3 214.017 738.4 218.415C740.6 222.814 744.4 229.011 746.9 232.11C749.4 235.309 754.1 239.907 757.2 242.406C760.4 244.905 766.1 248.404 770 250.303C773.9 252.202 779.9 254.501 783.5 255.401C787.8 256.501 793.8 257 801.5 257C809.9 256.9 815 256.401 820.5 254.801C824.6 253.702 831.1 251.103 835 249.103C839.4 246.804 844.5 243.006 848.7 238.707C852.5 235.009 855.5 231.61 855.5 231.11C855.5 230.711 849.8 227.212 842.8 223.413C840.592 222.198 838.415 221.003 836.442 219.92L836.439 219.918C832.248 217.618 828.98 215.824 828.3 215.416C826.8 214.617 825.8 215.117 822.7 218.115C820.7 220.115 816.7 222.814 814 224.013C811.1 225.313 806.1 226.412 802 226.712C797.3 227.012 793.1 226.612 789.2 225.513C785.6 224.513 781.6 222.414 778.4 219.615C775.5 217.316 772 213.117 770.5 210.418C768.9 207.62 767.4 204.421 767.1 203.121L766.5 200.922H867C868.1 192.026 868 185.828 867.6 181.43C867.1 177.031 865.9 170.534 865 166.935C864.1 163.337 861.5 156.639 859.2 151.941C856 145.544 853.2 141.545 847.5 135.847C841.7 129.95 838.1 127.351 831.5 124.152C826.8 121.853 819.9 119.354 816 118.454C812.1 117.654 804.7 117.055 799.5 117.055C794.3 117.055 787.5 117.754 784.5 118.454ZM984.6 124.252C989.2 121.853 995.9 119.354 999.5 118.554C1003.1 117.754 1010 117.055 1015 117.055C1020.8 116.955 1026.7 117.654 1031.5 118.854C1035.6 119.854 1041.5 121.953 1044.5 123.452C1047.5 124.952 1052.5 128.15 1055.5 130.449C1058.5 132.749 1063.1 137.047 1065.6 140.046C1068.2 143.045 1071.9 148.342 1073.8 151.941C1075.8 155.54 1078 160.438 1078.9 162.937C1079.7 165.436 1080.9 170.134 1081.5 173.433C1082.2 176.931 1082.5 184.129 1082.3 190.926C1081.9 199.723 1081.2 204.121 1079.3 209.919C1077.9 214.017 1075 220.315 1072.9 223.913C1070.8 227.512 1066.6 233.01 1063.6 236.308C1060.5 239.507 1055.5 243.805 1052.5 245.805C1049.5 247.904 1045 250.503 1042.5 251.602C1040 252.802 1035.1 254.501 1031.5 255.401C1027.5 256.401 1021.2 257.1 1015 257.1C1009 257 1002.4 256.401 998.5 255.401C994.9 254.501 988.4 251.902 984 249.603C978 246.604 974 243.506 968 237.508C961.9 231.31 959 227.412 955.8 220.914C953.5 216.216 950.8 209.519 949.8 205.92C948.6 201.422 948.1 195.724 948.1 187.427C948.1 179.231 948.6 173.333 949.8 168.935C950.7 165.336 953.6 158.139 956.2 152.941C960 145.344 962.5 141.945 968.6 135.947C974.1 130.449 978.4 127.351 984.6 124.252ZM1288 118.554C1284.7 119.354 1278.2 121.953 1273.5 124.252C1266.9 127.551 1263.1 130.349 1256.4 136.947C1251.7 141.645 1246.4 147.943 1244.7 150.941C1243 153.94 1240.4 159.838 1239 163.936C1237.5 168.035 1236 175.032 1235.5 179.43C1235.1 183.829 1235.1 191.126 1235.6 195.724C1236.1 200.222 1237.2 206.02 1238.1 208.619C1239 211.318 1241.1 216.316 1242.9 219.815C1244.6 223.313 1248 228.611 1250.5 231.71C1253 234.809 1257.7 239.507 1261 242.106C1264.3 244.805 1269.5 248.204 1272.5 249.803C1275.5 251.403 1281.6 253.702 1286 255.001C1292.1 256.601 1296.6 257.1 1305 257.1C1312.7 257 1318.4 256.301 1324 254.901C1328.4 253.702 1335.2 251.103 1339 249.103C1343.3 246.804 1348.6 242.806 1352.7 238.707C1356.5 234.909 1359.5 231.61 1359.5 231.11C1359.5 230.711 1353.8 227.212 1346.8 223.413C1342.99 221.317 1339.3 219.281 1336.58 217.777L1336.56 217.765L1336.46 217.708C1334.31 216.523 1332.78 215.68 1332.3 215.416C1330.8 214.617 1329.8 215.117 1326.7 218.115C1324.7 220.115 1320.7 222.814 1318 224.113C1313.9 226.012 1311.3 226.412 1303.5 226.412C1295.3 226.412 1293.3 226.012 1288.5 223.713C1285.5 222.314 1281.3 219.215 1279.2 217.016C1277.2 214.717 1274.7 211.218 1273.6 209.119C1272.6 207.12 1271.5 204.421 1271.1 203.121L1270.5 200.922H1371.5C1371.5 180.63 1370.9 175.132 1369.4 168.935C1368.3 164.236 1365.5 156.639 1363.2 151.941C1360 145.344 1357.3 141.745 1351.3 135.647C1345.2 129.65 1341.7 127.151 1335.2 124.052C1330.7 121.853 1323.7 119.454 1319.7 118.554C1315.8 117.654 1308.3 116.955 1303.2 117.055C1298.2 117.055 1291.3 117.754 1288 118.554ZM1501.5 124.052C1506.2 121.853 1512.5 119.354 1515.5 118.554C1518.5 117.754 1525.3 117.055 1530.5 117.055C1535.7 117.055 1542.9 117.554 1546.5 118.354C1550.1 119.054 1556.8 121.653 1561.5 123.952C1568 127.251 1571.9 130.25 1578.1 136.347C1583 141.345 1587.6 147.143 1590 151.441C1592.2 155.24 1595 161.837 1596.4 165.936C1598.5 172.333 1598.8 175.332 1598.9 186.428C1598.9 195.924 1598.4 201.122 1597.1 205.92C1596.1 209.519 1593.7 215.616 1591.8 219.415C1589.9 223.213 1586.6 228.811 1584.4 231.61C1582.3 234.509 1577.7 239.207 1574.2 242.106C1570.8 244.905 1564.8 248.704 1561 250.503C1557.2 252.402 1551.3 254.501 1548 255.401C1544.5 256.301 1537.6 257 1531.5 257C1524.9 257 1518.8 256.501 1515 255.501C1511.7 254.601 1505.8 252.302 1502 250.403C1498.2 248.504 1492.2 244.605 1488.7 241.706C1485.3 238.807 1480.6 233.909 1478.3 230.91C1476.1 227.912 1472.7 222.214 1470.9 218.415C1469.1 214.617 1466.9 208.519 1466.1 204.921C1465.2 201.122 1464.5 193.825 1464.5 187.427C1464.5 179.53 1465.1 174.232 1466.5 168.435C1467.7 164.036 1470.5 156.839 1472.8 152.441C1475.7 146.743 1479.3 142.145 1485 136.347C1491.4 129.85 1494.7 127.351 1501.5 124.052ZM93.5 257.6C110.3 257.8 137.9 257.8 155 257.6C172 257.5 158.3 257.4 124.5 257.4C90.7 257.4 76.7 257.5 93.5 257.6Z" fill="#70C173"/>
<path fill-rule="evenodd" clip-rule="evenodd" d="M184.385 1.33557C182.99 1.57326 181.447 1.83622 180 2.09919C176.7 2.69895 171.1 4.3983 167.5 5.79775C163.9 7.19721 158.5 9.7962 155.5 11.5955C152.5 13.2948 147.1 17.3933 143.6 20.592C140.1 23.8907 135.3 29.1887 133 32.4874C130.6 35.7861 127.6 40.7842 126.2 43.4831C124.8 46.1821 122.8 51.1802 121.7 54.4789C120.6 57.7776 119.4 63.1755 119 66.4742C118.7 69.773 118.1 73.2716 117.9 74.2712C117.6 75.7706 117 75.5707 113.7 73.0717C111.7 71.4723 107.1 68.5734 103.5 66.6741C99.9 64.6749 93.6 62.0759 89.5 60.8764C82.4 58.6773 80.1 58.5773 41.2 58.2774L0.5 57.9775C0.5 184.928 0.8 197.623 2 203.421C2.9 207.22 5.3 214.017 7.4 218.415C9.6 222.814 13.8 229.211 16.7 232.71C19.6 236.108 24.5 240.807 27.5 243.006C30.5 245.305 35.7 248.504 39 250.103C42.3 251.802 48.4 254.002 52.5 255.001C59.5 256.8 64.6 256.9 125 256.9C186.7 256.9 190.4 256.8 198 254.901C202.4 253.802 210.3 250.803 215.5 248.204C223.7 244.205 226.3 242.206 234.5 234.009C241.7 226.812 245 222.414 248.2 216.416C250.5 212.018 253.4 205.021 254.7 200.922L257 193.425L257.5 0C206 0.199923 189.9 0.399845 188.5 0.599768C187.714 0.768169 186.171 1.03114 184.385 1.33557ZM181 24.5905C178.2 25.2902 173.1 27.3894 169.5 29.1887C165.7 31.1879 160.5 35.0864 156.5 38.9849C152.5 43.0833 148.8 48.0814 146.8 51.9799C145 55.5785 142.9 61.1763 142 64.475C140.7 69.573 140.5 82.3681 140.5 152.741V234.909C189.7 234.309 192.5 234.109 198 232.11C201.3 230.91 207.1 227.812 211 225.213C214.8 222.514 220.1 217.716 222.7 214.417C225.4 211.118 228.4 206.62 229.4 204.421C230.4 202.222 232.1 198.123 233.1 195.424C234.9 190.726 235 185.628 235.3 106.659L235.5 22.9911C193 23.191 184.6 23.5909 181 24.5905ZM22.5 137.247C22.5 181.23 22.8 195.624 23.8 199.423C24.6 202.222 26.2 206.72 27.6 209.419C28.9 212.218 32.9 217.416 36.5 221.014C40.4 224.913 45.2 228.611 48.5 230.211C51.5 231.61 56 233.21 58.5 233.809C61 234.409 74.8 234.909 90.2 234.909H117.5C117.5 123.652 117.4 120.053 115.6 113.956C114.5 110.357 111.8 104.759 109.7 101.461C107.5 98.162 103.8 93.8636 101.4 91.7644C99 89.7652 94.1 86.7664 90.5 85.067C86.9 83.4677 81.1 81.5684 77.5 81.0686C73.9 80.4688 60.1 79.969 46.7 79.969H22.5V137.247Z" fill="#107F62"/>
<path fill-rule="evenodd" clip-rule="evenodd" d="M224.5 22.6912C218.2 22.8912 207.4 22.8912 200.5 22.6912C193.6 22.5913 198.8 22.3914 212 22.3914C225.2 22.3914 230.8 22.5913 224.5 22.6912ZM884.3 90.6649C884.2 74.4712 884.6 60.9764 885 60.5766C885.5 60.2767 893.3 60.0767 919 60.4766L919.5 119.954H943.5V150.942H919.5V177.631C919.5 193.925 919.9 206.02 920.6 208.419C921.2 210.618 922.7 213.717 923.9 215.417C925.2 217.116 927.7 219.215 929.6 220.115C931.5 221.114 935.7 222.214 945 223.413V254.401L938.5 254.701C934.9 254.901 928.6 254.301 924.5 253.502C920.4 252.602 914.3 250.603 911 249.004C907.5 247.304 902.8 243.806 899.9 240.707C897.1 237.808 893.4 232.71 891.8 229.411C890.1 226.112 887.9 220.714 887 217.416C885.6 212.518 885.2 206.02 884.5 150.942H868.5V119.954H884.5L884.3 90.6649ZM303.2 73.6715L295.5 73.9714V253.402C307.5 254.301 315.2 254.401 320.2 254.201L329.5 253.902V189.926H358C359.529 192.593 360.824 194.856 361.923 196.776C364.491 201.262 365.99 203.88 366.9 205.42C368.2 207.62 375 219.315 382 231.41C389.1 243.506 395.3 253.702 395.9 254.102C396.5 254.501 405.1 254.801 415 254.801C424.9 254.701 433.6 254.401 434.3 254.102C435.3 253.602 430.5 244.505 416.6 220.615C406.1 202.621 397.5 187.727 397.5 187.427C397.5 187.128 401 185.328 405.2 183.329C411 180.63 414.7 178.031 419.6 173.133C423.7 168.935 427.4 163.936 429.4 159.938C431.1 156.339 433.2 150.742 434 147.443C434.8 144.144 435.4 137.147 435.5 131.949C435.5 125.851 434.9 119.854 433.6 114.955C432.6 110.857 430.3 104.659 428.6 101.161C426.9 97.7621 423.1 92.5642 420.2 89.7652C417.3 86.8664 411.8 82.8679 408 80.8687C404.1 78.8695 399 76.7703 396.5 76.0705C394 75.3708 388.6 74.4712 384.5 74.0713C380.4 73.5715 362.1 73.2716 344 73.2716C325.8 73.2716 307.5 73.4716 303.2 73.6715ZM1091.3 90.1651C1091.2 81.4685 1091.5 74.0713 1091.9 73.7714C1092.3 73.4716 1122.8 73.2716 1227 73.4716L1227.5 103.96L1205.9 130.25C1198.1 139.686 1188.79 151.012 1181.34 160.089L1181.22 160.227L1181.21 160.248L1181.18 160.278L1181.18 160.279C1177.33 164.969 1173.98 169.046 1171.6 171.933C1164.5 180.43 1152.6 194.924 1145.1 204.121C1137.6 213.417 1131.5 221.114 1131.5 221.414C1131.5 221.714 1153.5 221.914 1229.5 221.914V237.908C1229.5 249.803 1229.2 254.002 1228.2 254.301C1227.6 254.501 1196.7 254.801 1159.7 254.801C1122.8 254.901 1091.5 254.701 1090.2 254.401C1088.1 253.802 1088 253.402 1087.3 224.413L1111.6 194.924C1125 178.731 1141.4 158.739 1148.2 150.442C1154.9 142.245 1165.8 128.95 1184.3 106.459L1091.5 105.959L1091.3 90.1651ZM140 154.44V235.409H184.5L140.5 234.909L140 73.4716V154.44ZM22.2 163.936C22.1 179.63 22 167.035 22 135.947C22 104.859 22.1 92.0643 22.2 107.458C22.4 122.852 22.4 148.243 22.2 163.936ZM501.5 117.954C499 118.354 494.5 119.454 491.5 120.453C488.5 121.353 483.3 123.652 480 125.451C476.7 127.251 471.8 130.749 469.1 133.148C466.3 135.448 462.4 140.146 460.3 143.444C458.2 146.743 456.5 150.242 456.5 151.241C456.5 152.141 456.8 152.941 457.2 152.941C457.7 152.941 464 154.54 471.2 156.439C478.5 158.339 485.6 159.938 487 159.938C488.4 159.938 489.5 159.338 489.4 158.738C489.4 158.039 491.3 155.64 493.7 153.341C496.1 151.141 500.5 148.343 503.7 147.143C508.1 145.444 511.6 144.944 518.2 144.944C523.1 144.944 528.7 145.544 530.9 146.243C533 146.843 536.4 148.842 538.4 150.542C541.5 153.241 542 154.24 541.8 157.539C541.7 159.738 540.8 162.337 539.8 163.337C538.8 164.336 536.2 166.036 534 167.035C531.8 168.035 525.9 169.534 521 170.334C516 171.134 506.4 172.533 499.5 173.333C492.6 174.232 484.3 175.632 481 176.432C477.7 177.331 472.3 179.231 469.1 180.73C465.3 182.429 461.4 185.428 458 188.927C454.8 192.425 452.3 196.224 451.2 199.423C450.3 202.222 449.3 206.72 448.9 209.419C448.6 212.218 448.8 217.316 449.5 220.914C450.2 224.513 451.6 229.211 452.7 231.41C453.9 233.609 457.1 237.808 459.9 240.707C462.7 243.706 467.2 247.304 470 248.904C472.7 250.503 478.4 252.802 482.5 254.102C488.8 256.001 492.1 256.401 503.5 256.401C514.7 256.401 518.2 256.001 524.2 254.201C528.4 252.902 534.3 250.003 538 247.404L544.5 242.906L548 254.401L579.5 254.901C578.7 251.403 577.8 247.404 577 243.706C575.8 238.308 575.5 228.511 575.5 196.224C575.5 158.639 575.4 154.94 573.6 148.942C572.5 145.344 569.9 140.146 567.8 137.247C565.7 134.448 562.2 130.649 560 128.95C557.8 127.151 553.3 124.452 550 122.952C546.7 121.353 540.5 119.454 536.2 118.554C531.5 117.554 524.1 116.955 517.2 117.055C511.1 117.155 504 117.554 501.5 117.954ZM1432 122.453C1434.7 120.853 1439 118.954 1441.5 118.354C1444 117.654 1449.6 117.155 1462 117.455L1462.5 150.942L1458.2 150.642C1455.9 150.442 1450.8 150.642 1447 151.141C1442.8 151.641 1438.4 152.941 1436 154.34C1433.8 155.64 1430.3 158.639 1428.2 161.038C1426.1 163.437 1423.7 167.735 1422.8 170.434C1421.4 174.632 1421 182.129 1420 254.401L1415.5 254.501C1413 254.601 1405.5 254.401 1386.5 253.402V119.954L1419 120.453L1419.5 131.949L1423.2 128.65C1425.3 126.851 1429.2 124.052 1432 122.453ZM78 235.609C85.7 235.809 97.8 235.809 105 235.609C112.1 235.509 105.8 235.309 91 235.309C76.1 235.309 70.3 235.509 78 235.609ZM329.5 131.949V157.939C378.2 157.939 383.2 157.639 386.8 156.339C389.1 155.34 392.5 153.241 394.3 151.541C396.1 149.842 398.3 146.443 399.3 143.944C400.4 141.045 401 136.547 401 131.449C401 124.752 400.5 122.553 398.3 117.954C396.7 114.856 394.1 111.457 392.3 110.257C390.5 108.958 387.4 107.558 385.5 106.959C383.5 106.359 370.6 105.959 355.8 105.959H329.5V131.949ZM539 192.026C536.8 193.225 532.1 194.825 528.5 195.524C524.9 196.224 517 197.523 511 198.423C504.9 199.223 498 200.522 495.5 201.322C493 202.022 489.9 203.321 488.5 204.221C487.1 205.021 485.4 206.92 484.8 208.319C484.1 209.719 483.5 212.418 483.5 214.117C483.6 216.516 484.5 218.315 486.8 220.415C488.8 222.314 492.1 224.013 495.5 224.813C499.2 225.813 504.4 226.012 511.5 225.713C518.5 225.313 523.8 224.413 527.5 223.114C530.5 221.914 534.7 219.315 536.8 217.216C538.9 215.117 541.3 211.818 542.1 209.919C543.1 207.52 543.5 203.721 543.3 198.223L543 189.926L539 192.026Z" fill="#70C173"/>
</svg>
