<svg width="141" height="138" viewBox="0 0 261 258" fill="none" xmlns="http://www.w3.org/2000/svg">
<path d="M62.5 246.005C62.5 246.005 44.5002 244.005 29.0002 228.505C12.2877 211.793 12.0001 191.005 12.0001 191.005V67.0054H77.0002C77.0002 67.0054 99.0002 69.0051 113 83.0051C129.293 99.2975 131 121.005 131 121.005V246.005H61" stroke="#107F62" stroke-width="23"/>
<path d="M248.752 12.0053V175.413C248.752 175.413 249.453 207.543 235.779 221.217C210.991 246.005 182.5 246.005 182.5 246.005H173.5H131V72.4883C131 72.4883 133.135 50.4118 152 30.5053C170.324 11.1705 208 12.0053 208 12.0053H260.246" stroke="#107F62" stroke-width="23"/>
</svg>
