<svg width="228" height="228" viewBox="0 0 228 228" fill="none" xmlns="http://www.w3.org/2000/svg">
<path d="M0 228V114V0H228V228H0Z" fill=""/>
<path d="M98.2995 34.8827C101.849 34.4731 106.013 33.9953 107.515 33.8588C109.017 33.7222 114.205 33.7222 119.12 33.927C124.035 34.0636 131.339 34.8145 135.503 35.4971C139.667 36.1797 145.947 37.6133 149.497 38.5689C153.047 39.5929 158.303 41.2312 161.102 42.2552C163.901 43.3474 168.747 45.3953 177.553 49.4911L177.485 81.4384C177.485 111.543 177.417 113.659 176.052 118.915C175.301 122.055 173.594 127.516 172.297 131.066C171 134.616 168.406 140.623 166.563 144.377C164.72 148.132 161.716 153.525 159.873 156.323C158.03 159.122 154.685 163.764 152.432 166.563C150.18 169.362 145.947 173.935 143.08 176.666C140.213 179.328 135.503 183.356 132.568 185.54C129.701 187.656 124.786 190.933 121.646 192.708C118.574 194.483 115.502 195.916 114.887 195.916C114.205 195.916 111.201 194.551 108.198 192.776C105.194 191.07 100.416 187.998 97.6168 186.018C94.818 183.97 90.2444 180.216 87.4456 177.69C84.6468 175.096 80.6192 170.864 78.5031 168.27C76.3186 165.676 72.5641 160.419 70.1067 156.665C67.6492 152.91 64.0995 146.63 62.2564 142.671C60.345 138.711 57.8875 132.704 56.727 129.359C55.4983 126.014 53.7917 120.28 52.9043 116.731C52.0168 113.181 50.7881 107.31 50.1737 103.761C49.2863 98.5043 49.1498 92.7701 49.4911 50.9929L54.6109 48.3989C57.4097 46.9653 62.939 44.5079 66.8983 42.9378C70.8576 41.3677 78.0252 39.115 82.9402 37.8863C87.8552 36.6576 94.7498 35.2923 98.2995 34.8827Z" fill="#222222"/>
<path d="M92.8382 38.4323C94.8861 37.818 98.5723 36.9305 101.03 36.4527C103.487 36.0431 109.29 35.6335 114 35.5653C118.915 35.497 125.059 35.9066 128.472 36.521C131.817 37.0671 136.254 38.1593 138.37 38.9102C140.554 39.6611 144.445 41.709 147.039 43.5521C149.633 45.327 152.978 48.1258 154.412 49.8323C155.845 51.5389 158.508 55.8395 160.351 59.3892C162.194 62.9389 164.583 68.8096 165.744 72.3593C166.904 75.909 168.542 82.0527 169.362 86.012C170.59 91.8826 170.932 95.3641 170.932 105.126C170.932 115.024 170.727 118.369 169.362 124.581C168.542 128.745 166.904 135.025 165.744 138.575C164.583 142.125 162.672 147.244 161.443 149.838C160.214 152.432 157.757 156.528 156.05 158.917C154.344 161.238 151.135 164.515 149.019 166.222C146.835 167.928 142.875 170.181 140.281 171.273C137.687 172.365 132.704 173.799 129.359 174.413C124.512 175.369 120.826 175.505 111.952 175.232C103.556 174.959 99.3915 174.481 95.5687 173.457C92.7699 172.707 88.9472 171.273 87.0358 170.317C85.1927 169.362 82.1891 167.45 80.4825 166.017C78.7759 164.652 76.0454 161.989 74.4753 160.078C72.9053 158.235 70.243 153.866 68.6047 150.521C67.0346 147.176 64.7819 141.442 63.6214 137.892C62.4609 134.343 61.0957 128.813 60.4813 125.605C59.9352 122.396 59.116 116.594 58.7065 112.635C58.1603 107.378 58.1603 103.556 58.7065 98.2994C59.116 94.3401 59.8669 88.8108 60.413 86.012C60.9592 83.2132 62.1196 78.2299 63.0753 74.9533C64.0993 71.6084 65.6693 67.0347 66.625 64.7138C67.5807 62.3246 69.5603 58.4335 70.9939 55.9761C72.4957 53.5186 75.2945 49.9689 77.2741 47.9892C79.2538 46.0779 82.7352 43.3473 84.9879 41.982C87.2406 40.6168 90.7903 39.0467 92.8382 38.4323Z" fill="#fcf5ed"/>
<path d="M95.0227 164.856C94.8862 163.764 94.9544 162.399 95.1592 161.921C95.5005 161.238 99.7329 161.102 133.455 161.443V166.904H95.2275L95.0227 164.856Z" fill="#222222"/>
<path d="M109.904 165.198C109.358 166.017 109.222 165.812 109.222 164.378V164.31C109.222 162.945 109.563 162.467 110.519 162.467C111.406 162.467 111.816 162.945 111.816 164.31C111.816 165.744 111.679 165.948 111.201 165.198C110.655 164.31 110.519 164.31 109.904 165.198Z" fill="#fcf5ed"/>
<path d="M105.331 165.88C104.102 165.948 103.76 165.607 103.76 164.242C103.76 163.081 104.102 162.535 104.989 162.535C105.945 162.535 106.013 162.672 105.126 163.218C104.238 163.832 104.238 163.901 105.126 163.901C106.013 163.901 106.013 163.969 105.126 164.515C104.238 165.061 104.307 165.198 105.467 165.471C106.696 165.744 106.696 165.812 105.331 165.88Z" fill="#fcf5ed"/>
<path d="M94.8862 160.419V157.689V154.958H133.796V160.419H94.8862Z" fill="#222222"/>
<path d="M117.413 159.532C116.867 159.395 116.321 158.44 116.185 157.484C115.98 155.914 116.185 155.641 117.55 155.709C119.052 155.709 119.052 155.777 117.755 156.323C116.844 156.733 116.731 156.938 117.413 156.938C118.301 157.006 118.301 157.074 117.413 157.689C116.526 158.303 116.526 158.44 117.413 159.122C118.301 159.737 118.301 159.805 117.413 159.532Z" fill="#fcf5ed"/>
<path d="M110.997 157.893C110.86 158.986 110.792 158.917 110.723 157.484C110.723 156.05 110.997 155.572 111.816 155.777C112.498 155.914 112.976 156.665 112.976 157.484C112.976 158.235 112.771 158.781 112.498 158.644C112.157 158.508 112.089 157.893 112.294 157.347C112.498 156.801 112.362 156.323 111.952 156.323C111.543 156.323 111.133 157.006 110.997 157.893Z" fill="#fcf5ed"/>
<path d="M105.808 159.395C105.194 159.395 104.785 158.713 104.716 157.689C104.648 156.323 104.716 156.255 104.921 157.552C104.989 158.371 105.467 159.054 105.808 159.054C106.218 159.054 106.628 158.235 106.764 157.211C107.037 155.436 107.037 155.504 106.901 157.347C106.901 158.644 106.491 159.395 105.808 159.395Z" fill="#fcf5ed"/>
<path d="M103.01 126.629C103.829 124.717 105.331 122.533 106.355 121.714C107.378 120.826 108.471 120.144 108.812 120.144C109.153 120.144 108.471 120.895 107.31 121.85C105.604 123.147 105.262 123.83 105.808 124.581C106.218 125.127 106.901 125.537 107.31 125.4C107.788 125.263 109.563 124.786 111.269 124.308C112.976 123.83 115.365 123.625 116.526 123.83C117.755 124.035 118.71 124.035 118.71 123.693C118.642 123.42 118.642 122.806 118.71 122.328C118.71 121.919 119.325 121.509 119.939 121.509C120.963 121.509 121.031 121.372 120.144 120.826C119.461 120.371 119.393 120.144 119.939 120.144C120.417 120.144 121.782 120.963 122.943 121.987C124.103 123.079 125.673 125.605 126.424 127.653C127.516 130.656 127.721 132.568 127.516 137.21C127.243 141.715 126.834 143.763 125.468 146.425C124.308 148.61 122.874 150.316 121.304 151.204C119.939 151.955 118.574 152.296 118.301 152.023C118.028 151.75 118.301 151.545 118.915 151.545C119.598 151.545 121.099 150.726 122.26 149.634C123.42 148.61 124.717 146.425 125.263 144.719C125.741 143.012 126.424 140.418 126.629 138.916C126.902 137.414 126.902 134.752 126.697 132.909C126.492 131.134 126.083 129.837 125.741 129.974C125.468 130.178 124.786 130.042 124.24 129.632C123.352 129.155 123.42 129.018 124.376 129.018C125.059 129.018 125.605 128.745 125.605 128.335C125.605 127.926 125.127 126.697 124.581 125.605C124.035 124.444 123.42 123.557 123.216 123.557C123.011 123.557 122.669 123.966 122.396 124.376C121.987 125.059 122.123 125.059 122.874 124.649C123.762 124.035 123.762 124.103 122.874 125.195C122.055 126.083 121.714 126.151 121.372 125.468C121.031 124.922 121.372 124.24 122.055 123.693C123.079 122.943 123.079 122.738 122.192 122.192C121.509 121.782 120.826 121.896 120.144 122.533C119.256 123.352 119.325 123.83 120.826 126.765C121.85 128.813 122.601 131.612 122.738 134.138C122.943 136.39 122.669 139.735 122.26 141.647C121.85 143.49 120.895 145.674 120.144 146.425C119.188 147.381 118.983 148.063 119.461 148.814C119.802 149.361 119.939 150.043 119.666 150.316C119.461 150.658 118.983 150.862 118.642 150.862C118.369 150.862 118.096 150.248 118.096 149.497C118.096 148.268 117.618 148.132 114.341 148.132C111.611 148.132 110.519 148.405 110.246 149.156C110.018 149.884 109.95 149.838 110.041 149.019C110.177 148.405 109.631 147.244 108.812 146.425C108.061 145.674 107.037 143.422 106.628 141.442C106.15 139.531 105.808 136.8 105.808 135.503C105.808 133.523 105.535 133.114 104.238 133.046C102.805 133.046 102.805 132.977 105.467 131.817L104.102 131.749C103.351 131.68 103.146 131.544 103.556 131.339C104.034 131.202 104.853 131.339 105.262 131.68C105.945 132.158 106.286 131.885 106.628 130.52C106.832 129.496 107.31 127.994 107.652 127.107C108.129 125.81 107.993 125.605 106.628 125.946C105.535 126.219 105.058 125.946 104.921 125.059C104.784 124.444 104.17 125.605 103.556 127.653C102.873 129.701 102.395 132.226 102.395 133.25C102.395 134.82 102.668 135.093 103.76 134.82C104.671 134.593 105.126 134.82 105.126 135.503C105.126 136.117 104.511 136.527 103.556 136.527C102.122 136.527 102.054 136.663 102.6 140.418C102.873 142.602 103.76 145.606 104.648 147.108C105.467 148.678 107.174 150.384 108.539 150.999C110.177 151.886 110.519 152.228 109.563 152.228C108.812 152.159 107.105 150.999 105.74 149.634C104.034 147.927 102.873 145.811 102.054 143.012C101.235 140.213 100.962 137.551 101.166 134.479C101.371 132.022 102.19 128.472 103.01 126.629Z" fill="#222222"/>
<path d="M112.157 146.562C111.884 146.289 112.157 145.674 112.84 145.128C113.795 144.445 114.546 144.377 115.775 144.923C116.662 145.333 117.345 145.879 117.413 146.22C117.413 146.493 117.208 146.766 116.867 146.766C116.594 146.766 116.116 146.562 115.843 146.289C115.502 145.947 114.887 145.742 114.478 145.742C114 145.674 113.454 146.016 113.181 146.425C112.908 146.766 112.43 146.903 112.157 146.562Z" fill="#fcf5ed"/>
<path d="M119.12 142.671C118.71 142.671 118.437 141.578 118.369 140.281C118.369 138.916 118.642 137.892 119.12 137.892C119.598 137.892 119.871 138.916 119.871 140.281C119.802 141.578 119.529 142.671 119.12 142.671Z" fill="#fcf5ed"/>
<path d="M109.563 141.305C108.88 141.305 108.539 140.691 108.607 139.462C108.607 137.756 108.675 137.687 109.222 138.916C109.699 140.077 109.836 140.077 109.836 139.121C109.904 138.438 110.177 137.892 110.587 137.892C110.996 137.892 111.133 138.37 110.928 138.916C110.723 139.462 110.587 140.213 110.587 140.623C110.587 141.032 110.109 141.305 109.563 141.305Z" fill="#fcf5ed"/>
<path d="M117.55 133.455C117.481 132.295 117.823 131.68 118.574 131.475C119.256 131.339 119.871 131.202 120.007 131.134C120.075 131.134 120.075 131.885 120.007 132.977C119.939 134.001 120.075 135.23 120.349 135.708C120.69 136.254 120.212 136.527 118.778 136.527C117.618 136.527 116.731 136.254 116.731 135.844C116.731 135.435 116.935 135.162 117.208 135.162C117.55 135.162 117.686 134.342 117.55 133.455Z" fill="#fcf5ed"/>
<path d="M112.976 132.295C113.59 131.748 113.863 130.929 113.59 130.247C113.317 129.428 113.522 129.018 114.137 129.018C114.614 129.018 114.956 129.496 114.887 130.042C114.751 130.588 114.887 131.066 115.16 131.066C115.502 131.066 115.707 132.295 115.707 133.865C115.707 135.366 115.502 136.8 115.16 136.937C114.887 137.073 114.683 137.892 114.683 138.78C114.683 139.599 115.16 140.828 115.707 141.51C116.253 142.125 116.594 142.944 116.389 143.353C116.184 143.763 115.775 144.036 115.365 144.036C114.956 144.036 114.819 143.558 115.024 143.012C115.229 142.466 115.092 142.125 114.683 142.329C114.273 142.534 113.932 141.851 113.795 140.828C113.659 138.916 113.659 138.984 112.43 141.51C111.816 142.875 111.133 143.968 110.996 143.899C110.792 143.763 111.406 141.51 112.362 138.916C113.249 136.322 114 134.069 114 134.001C114 133.865 113.386 133.933 112.635 134.138C111.884 134.342 111.269 134.206 111.269 133.796C111.269 133.387 110.86 133.319 110.382 133.592C109.836 133.956 109.722 133.842 110.041 133.25C110.382 132.772 110.246 132.431 109.768 132.431C109.358 132.431 109.222 132.226 109.426 131.953C109.699 131.612 110.314 131.817 110.928 132.295C111.747 132.977 112.157 132.977 112.976 132.295Z" fill="#fcf5ed"/>
<path d="M116.731 119.939C115.434 120.075 113.454 120.075 112.293 119.939C111.133 119.802 112.225 119.666 114.683 119.666C117.14 119.666 118.028 119.802 116.731 119.939Z" fill="#222222"/>
<path d="M137.892 109.904L137.96 97.2072L138.097 84.5102L142.261 84.7832C145.674 85.0563 146.698 85.4659 147.927 86.9677C149.36 88.606 149.497 89.4252 149.497 97.6168C149.497 106.15 149.429 106.559 147.79 108.198C146.425 109.631 145.538 109.904 137.892 109.904Z" fill="#222222"/>
<path d="M141.169 97.7533C141.101 92.9066 141.305 88.7425 141.647 88.5377C141.988 88.2647 142.602 88.0599 143.148 88.0599C143.626 88.0599 144.514 88.5377 145.06 89.0838C145.811 89.8347 146.084 91.8144 146.084 97.4802C146.084 102.327 145.811 105.057 145.265 105.672C144.787 106.081 143.763 106.491 142.875 106.491C141.308 106.491 141.305 106.355 141.169 97.7888L141.169 97.7533Z" fill="#fcf5ed"/>
<path d="M122.874 109.904V97.2755V84.6467H126.287C128.131 84.6467 130.588 85.1246 131.749 85.6707C133.25 86.4216 134.001 87.4455 134.479 89.4252C134.889 90.927 134.957 92.9749 134.752 93.9988C134.479 95.091 133.728 96.5246 133.046 97.2755C131.817 98.5725 131.885 98.7773 135.844 109.904H133.796C131.817 109.904 131.68 109.699 130.042 104.443C128.904 100.802 127.994 98.9821 127.311 98.9821C126.492 98.9821 126.287 100.074 126.287 104.443C126.287 109.836 126.287 109.904 122.874 109.904Z" fill="#222222"/>
<path d="M127.857 96.2515C126.424 96.2515 126.287 95.9784 126.287 92.1557C126.287 88.9473 126.492 88.0599 127.311 88.0599C127.857 88.0599 128.95 88.3329 129.701 88.7425C130.724 89.2204 131.066 90.1078 131.066 91.9509C131.066 93.3844 130.724 94.9545 130.247 95.3641C129.769 95.8419 128.745 96.2515 127.857 96.2515Z" fill="#fcf5ed"/>
<path d="M106.764 109.017C106.901 108.607 108.129 102.873 109.563 96.4563V96.388C112.02 85.1928 112.225 84.6467 113.727 84.6467C114.614 84.6467 115.365 84.7833 115.365 84.988C115.365 85.1928 116.458 90.1761 117.755 96.0467C119.052 101.986 120.28 107.515 120.485 108.334C120.758 109.631 120.553 109.904 119.12 109.904C118.164 109.904 117.277 109.495 117.14 109.017C117.004 108.607 116.662 107.378 116.458 106.286C116.116 104.716 115.707 104.443 113.659 104.443C112.157 104.443 111.133 104.784 110.928 105.467C110.723 106.013 110.587 107.242 110.587 108.198C110.587 109.631 110.246 109.904 108.539 109.904C107.242 109.904 106.559 109.631 106.764 109.017Z" fill="#222222"/>
<path d="M112.225 99.5281C112.43 98.6407 112.771 96.7293 113.044 95.2275C113.522 92.77 113.59 92.6335 114 94.2036C114.273 95.1593 114.683 97.0706 114.887 98.4359C115.365 100.893 115.229 101.03 113.659 101.03C112.225 101.03 112.02 100.757 112.225 99.5281Z" fill="#fcf5ed"/>
<path d="M95.1593 108.402C93.5893 106.559 93.521 106.15 93.521 95.5689V84.6467H96.9342V94.5449C96.9342 100.006 97.0707 104.921 97.2755 105.467C97.4803 106.013 98.3677 106.491 99.3234 106.491C100.279 106.491 101.166 106.013 101.371 105.467C101.576 104.921 101.713 100.006 101.713 84.6467H105.126V95.5689C105.126 106.15 105.058 106.559 103.487 108.334C102.259 109.768 101.235 110.245 99.3234 110.245C97.412 110.245 96.3881 109.768 95.1593 108.402Z" fill="#222222"/>
<path d="M77.9569 96.388C78.1617 88.0599 78.23 87.9233 80.0731 86.285C81.1653 85.3976 82.7354 84.6467 83.691 84.6467C84.5785 84.6467 86.1485 85.0563 87.2407 85.6024C88.2647 86.0802 89.2887 87.0359 89.63 87.6503C89.903 88.2647 90.1078 89.4934 90.1078 90.4491C90.1078 91.8144 89.7665 92.1557 88.4012 92.1557C87.1725 92.1557 86.6946 91.8144 86.6946 90.7904C86.6946 90.0395 86.0803 89.1521 85.3294 88.7425C84.3737 88.2647 83.6228 88.3329 82.9401 88.879C82.0527 89.6299 81.8479 91.3365 81.9162 97.7533C81.9162 104.784 82.0527 105.877 83.1449 106.286C83.7593 106.491 84.7833 106.423 85.3294 106.013C85.8755 105.604 86.4216 104.102 86.5581 102.463C86.6946 100.074 86.4899 99.6647 85.3294 99.6647C84.3054 99.6647 83.9641 99.1868 83.9641 97.9581C83.9641 96.388 84.2372 96.2515 90.1078 96.2515V101.166C90.1761 105.126 89.903 106.559 88.7425 107.993C87.9916 109.085 86.4899 110.041 85.3294 110.245C84.1689 110.45 82.394 110.109 81.2336 109.563C80.0731 109.017 78.8443 107.72 78.4348 106.628C78.0252 105.535 77.8204 101.303 77.9569 96.388Z" fill="#222222"/>
<path d="M130.383 82.5988V69.9701V57.3413H135.844C141.237 57.3413 141.305 57.3413 141.305 59.0479C141.305 60.618 141.101 60.7545 134.479 60.7545V68.2635H137.551C140.35 68.2635 140.623 68.4 140.623 69.9701C140.623 71.5401 140.35 71.6766 134.479 71.6766V79.1856H137.892C141.101 79.1856 141.305 79.3221 141.305 80.8922C141.305 82.5988 141.237 82.5988 130.383 82.5988Z" fill="#222222"/>
<path d="M117.413 82.5988V69.9701V57.3413H122.874C128.267 57.3413 128.335 57.3413 128.335 59.0479C128.335 60.6862 128.131 60.7545 120.826 60.7545V68.2635H123.898C126.697 68.2635 126.97 68.4 126.97 69.9701C126.97 71.5401 126.697 71.6766 120.826 71.6766V77.1377C120.826 82.5305 120.826 82.5988 117.413 82.5988Z" fill="#222222"/>
<path d="M101.303 81.7114C101.44 81.3018 102.668 75.5677 104.102 69.0826C106.559 57.9557 106.764 57.3413 108.334 57.3413C109.426 57.3413 110.041 57.8192 110.246 58.8431C110.45 59.7305 111.679 65.2599 112.976 71.1305C114.273 77.0695 115.365 82.0527 115.365 82.2575C115.365 82.4623 114.614 82.5988 113.659 82.5988C112.362 82.5988 111.884 82.1892 111.543 80.6874C111.338 79.6635 110.996 78.4347 110.86 77.9569C110.723 77.5473 109.495 77.1377 108.198 77.1377C105.945 77.1377 105.808 77.2742 105.262 79.8683C104.853 82.3257 104.58 82.5988 102.873 82.5988C101.713 82.5988 101.098 82.2575 101.303 81.7114Z" fill="#222222"/>
<path d="M106.764 72.9054C106.901 72.4276 107.242 70.5162 107.515 68.6048C107.925 66.0108 108.198 65.533 108.539 66.5569C108.812 67.3078 109.222 69.2192 109.495 70.7893C109.904 73.5881 109.836 73.7246 108.198 73.7246C107.174 73.7246 106.559 73.3833 106.764 72.9054Z" fill="#fcf5ed"/>
<path d="M88.0598 63.9629C88.1281 61.4371 88.5377 60.2766 89.7664 59.0479C90.9952 57.7509 92.1556 57.3413 94.2035 57.3413C96.388 57.3413 97.2754 57.7509 98.6407 59.3892C99.5964 60.5497 100.347 62.188 100.347 63.1437C100.347 64.509 100.006 64.8503 98.6407 64.8503C97.4802 64.8503 96.7293 64.3042 96.2514 63.1437C95.8419 62.188 95.091 61.3006 94.5449 61.0958C93.9988 60.891 93.0431 61.1641 92.4287 61.5736C91.7461 62.1198 91.473 63.212 91.6095 64.509C91.7461 66.2156 92.3604 66.8299 95.4323 68.2635C98.3676 69.6287 99.1868 70.4479 99.7329 72.3593C100.142 73.6563 100.279 75.8407 100.074 77.1377C99.8694 78.4347 99.0503 80.2096 98.2994 81.0287C97.2754 82.2575 96.1832 82.5988 93.8622 82.5988C91.2682 82.5988 90.5173 82.2575 89.0838 80.5509C88.1281 79.3904 87.3772 77.8886 87.3772 77.1377C87.3772 76.0455 87.855 75.7724 89.4251 75.7724C91.0634 75.7724 91.5413 76.1138 91.6095 77.2742C91.7461 78.503 92.2239 78.8443 93.8622 78.8443C95.8419 78.8443 95.9101 78.7078 95.9101 75.7724C95.9101 72.8371 95.7736 72.6323 92.8383 71.1305C91.1317 70.3114 89.3568 69.0826 88.879 68.4C88.4011 67.7856 88.0598 65.7377 88.0598 63.9629Z" fill="#222222"/>
</svg>
