<svg width="65" height="66" viewBox="0 0 65 66" fill="none" xmlns="http://www.w3.org/2000/svg">
<rect y="0.5" width="65" height="65" rx="32.5" fill="#013F24"/>
<g clip-path="url(#clip0_188_2591)">
<g clip-path="url(#clip1_188_2591)">
<g clip-path="url(#clip2_188_2591)">
<path d="M28.253 39.494L28.977 39.917C30.198 40.6291 31.5866 41.0029 33 41C34.5823 41 36.129 40.5308 37.4446 39.6518C38.7602 38.7727 39.7855 37.5233 40.3911 36.0615C40.9966 34.5997 41.155 32.9911 40.8463 31.4393C40.5376 29.8874 39.7757 28.462 38.6569 27.3431C37.538 26.2243 36.1126 25.4624 34.5607 25.1537C33.0089 24.845 31.4004 25.0035 29.9385 25.609C28.4767 26.2145 27.2273 27.2398 26.3483 28.5554C25.4692 29.871 25 31.4177 25 33C25 34.436 25.377 35.813 26.084 37.024L26.506 37.748L25.853 40.149L28.253 39.494ZM23.004 43L24.356 38.032C23.4652 36.5049 22.9971 34.768 23 33C23 27.477 27.477 23 33 23C38.523 23 43 27.477 43 33C43 38.523 38.523 43 33 43C31.2328 43.0029 29.4967 42.5352 27.97 41.645L23.004 43ZM29.391 28.308C29.525 28.298 29.66 28.298 29.794 28.304C29.848 28.308 29.902 28.314 29.956 28.32C30.115 28.338 30.29 28.435 30.349 28.569C30.647 29.245 30.937 29.926 31.217 30.609C31.279 30.761 31.242 30.956 31.124 31.146C31.0429 31.2745 30.9551 31.3986 30.861 31.518C30.748 31.663 30.505 31.929 30.505 31.929C30.505 31.929 30.406 32.047 30.444 32.194C30.458 32.25 30.504 32.331 30.546 32.399L30.605 32.494C30.861 32.921 31.205 33.354 31.625 33.762C31.745 33.878 31.862 33.997 31.988 34.108C32.456 34.521 32.986 34.858 33.558 35.108L33.563 35.11C33.648 35.147 33.691 35.167 33.815 35.22C33.877 35.246 33.941 35.269 34.006 35.286C34.0732 35.3031 34.1439 35.2999 34.2093 35.2767C34.2746 35.2536 34.3316 35.2116 34.373 35.156C35.097 34.279 35.163 34.222 35.169 34.222V34.224C35.2193 34.1771 35.2791 34.1415 35.3443 34.1196C35.4095 34.0977 35.4786 34.09 35.547 34.097C35.607 34.101 35.668 34.112 35.724 34.137C36.255 34.38 37.124 34.759 37.124 34.759L37.706 35.02C37.804 35.067 37.893 35.178 37.896 35.285C37.9 35.352 37.906 35.46 37.883 35.658C37.851 35.917 37.773 36.228 37.695 36.391C37.6416 36.5022 37.5707 36.6042 37.485 36.693C37.3841 36.7989 37.2736 36.8954 37.155 36.981C37.114 37.0119 37.0723 37.0419 37.03 37.071C36.9056 37.1499 36.7778 37.2233 36.647 37.291C36.3895 37.4278 36.1052 37.5063 35.814 37.521C35.629 37.531 35.444 37.545 35.258 37.535C35.25 37.535 34.69 37.448 34.69 37.448C33.2683 37.074 31.9534 36.3735 30.85 35.402C30.624 35.203 30.415 34.989 30.201 34.776C29.311 33.891 28.639 32.936 28.231 32.034C28.0222 31.5913 27.9094 31.1094 27.9 30.62C27.8959 30.0129 28.0944 29.4217 28.464 28.94C28.537 28.846 28.606 28.748 28.725 28.635C28.852 28.515 28.932 28.451 29.019 28.407C29.1347 28.349 29.2609 28.315 29.39 28.307L29.391 28.308Z" fill="#fcf5ed"/>
</g>
</g>
</g>
<defs>
<clipPath id="clip0_188_2591">
<rect width="24" height="24" fill="#fcf5ed" transform="translate(21 21.5)"/>
</clipPath>
<clipPath id="clip1_188_2591">
<rect width="24" height="24" fill="#fcf5ed" transform="translate(21 21.5)"/>
</clipPath>
<clipPath id="clip2_188_2591">
<rect width="24" height="24" fill="#fcf5ed" transform="translate(21 21)"/>
</clipPath>
</defs>
</svg>
