<svg width="40" height="40" viewBox="0 0 40 40" fill="none" xmlns="http://www.w3.org/2000/svg">
<g clip-path="url(#clip0_592_1113)">
<path d="M12.0883 30.8233L13.2949 31.5283C15.3298 32.7151 17.6443 33.3381 19.9999 33.3333C22.637 33.3333 25.2149 32.5513 27.4075 31.0862C29.6002 29.6212 31.3092 27.5388 32.3183 25.1024C33.3275 22.6661 33.5915 19.9852 33.0771 17.3988C32.5626 14.8124 31.2927 12.4366 29.428 10.5719C27.5633 8.70719 25.1876 7.43731 22.6011 6.92284C20.0147 6.40837 17.3338 6.67242 14.8975 7.68159C12.4611 8.69075 10.3788 10.3997 8.91368 12.5924C7.44859 14.785 6.66661 17.3629 6.66661 20C6.66661 22.3933 7.29494 24.6883 8.47327 26.7066L9.17661 27.9133L8.08827 31.915L12.0883 30.8233ZM3.33994 36.6666L5.59327 28.3866C4.1085 25.8414 3.32843 22.9466 3.33327 20C3.33327 10.795 10.7949 3.33331 19.9999 3.33331C29.2049 3.33331 36.6666 10.795 36.6666 20C36.6666 29.205 29.2049 36.6666 19.9999 36.6666C17.0546 36.6714 14.161 35.8919 11.6166 34.4083L3.33994 36.6666ZM13.9849 12.18C14.2083 12.1633 14.4333 12.1633 14.6566 12.1733C14.7466 12.18 14.8366 12.19 14.9266 12.2C15.1916 12.23 15.4833 12.3916 15.5816 12.615C16.0783 13.7416 16.5616 14.8766 17.0283 16.015C17.1316 16.2683 17.0699 16.5933 16.8733 16.91C16.738 17.1241 16.5917 17.3311 16.4349 17.53C16.2466 17.7716 15.8416 18.215 15.8416 18.215C15.8416 18.215 15.6766 18.4116 15.7399 18.6566C15.7633 18.75 15.8399 18.885 15.9099 18.9983L16.0083 19.1566C16.4349 19.8683 17.0083 20.59 17.7083 21.27C17.9083 21.4633 18.1033 21.6616 18.3133 21.8466C19.0933 22.535 19.9766 23.0966 20.9299 23.5133L20.9383 23.5166C21.0799 23.5783 21.1516 23.6116 21.3583 23.7C21.4616 23.7433 21.5683 23.7816 21.6766 23.81C21.7886 23.8385 21.9065 23.8331 22.0153 23.7945C22.1242 23.756 22.2192 23.6859 22.2883 23.5933C23.4949 22.1316 23.6049 22.0366 23.6149 22.0366V22.04C23.6988 21.9618 23.7984 21.9024 23.907 21.8659C24.0157 21.8294 24.1309 21.8166 24.2449 21.8283C24.3449 21.835 24.4466 21.8533 24.5399 21.895C25.4249 22.3 26.8733 22.9316 26.8733 22.9316L27.8433 23.3666C28.0066 23.445 28.1549 23.63 28.1599 23.8083C28.1666 23.92 28.1766 24.1 28.1383 24.43C28.0849 24.8616 27.9549 25.38 27.8249 25.6516C27.7359 25.837 27.6177 26.007 27.4749 26.155C27.3068 26.3316 27.1227 26.4922 26.9249 26.635C26.8565 26.6864 26.7871 26.7364 26.7166 26.785C26.5093 26.9165 26.2963 27.0388 26.0783 27.1516C25.6492 27.3796 25.1752 27.5104 24.6899 27.535C24.3816 27.5516 24.0733 27.575 23.7633 27.5583C23.7499 27.5583 22.8166 27.4133 22.8166 27.4133C20.447 26.79 18.2556 25.6224 16.4166 24.0033C16.0399 23.6716 15.6916 23.315 15.3349 22.96C13.8516 21.485 12.7316 19.8933 12.0516 18.39C11.7036 17.6521 11.5156 16.849 11.4999 16.0333C11.4931 15.0214 11.8239 14.0361 12.4399 13.2333C12.5616 13.0766 12.6766 12.9133 12.8749 12.725C13.0866 12.525 13.2199 12.4183 13.3649 12.345C13.5577 12.2484 13.768 12.1917 13.9833 12.1783L13.9849 12.18Z" fill="#FCF5ED"/>
</g>
<defs>
<clipPath id="clip0_592_1113">
<rect width="40" height="40" fill="white"/>
</clipPath>
</defs>
</svg>
