<svg width="40" height="40" viewBox="0 0 40 40" fill="none" xmlns="http://www.w3.org/2000/svg">
<g clip-path="url(#clip0_592_1105)">
<path d="M35.9049 10.83C36.6666 13.8 36.6666 20 36.6666 20C36.6666 20 36.6666 26.2 35.9049 29.17C35.4816 30.8117 34.2433 32.1034 32.6749 32.54C29.8266 33.3334 19.9999 33.3334 19.9999 33.3334C19.9999 33.3334 10.1783 33.3334 7.32492 32.54C5.74992 32.0967 4.51325 30.8067 4.09492 29.17C3.33325 26.2 3.33325 20 3.33325 20C3.33325 20 3.33325 13.8 4.09492 10.83C4.51825 9.18835 5.75659 7.89669 7.32492 7.46002C10.1783 6.66669 19.9999 6.66669 19.9999 6.66669C19.9999 6.66669 29.8266 6.66669 32.6749 7.46002C34.2499 7.90335 35.4866 9.19335 35.9049 10.83ZM16.6666 25.8334L26.6666 20L16.6666 14.1667V25.8334Z" fill="#FCF5ED"/>
</g>
<defs>
<clipPath id="clip0_592_1105">
<rect width="40" height="40" fill="white"/>
</clipPath>
</defs>
</svg>
