<svg width="65" height="65" viewBox="0 0 65 65" fill="#fcf5ed" xmlns="http://www.w3.org/2000/svg">
<rect width="65" height="65" rx="32.5" fill="#013F24"/>
<g clip-path="url(#clip0_338_1084)">
<path d="M42.543 26.498C43 28.28 43 32 43 32C43 32 43 35.72 42.543 37.502C42.289 38.487 41.546 39.262 40.605 39.524C38.896 40 33 40 33 40C33 40 27.107 40 25.395 39.524C24.45 39.258 23.708 38.484 23.457 37.502C23 35.72 23 32 23 32C23 32 23 28.28 23.457 26.498C23.711 25.513 24.454 24.738 25.395 24.476C27.107 24 33 24 33 24C33 24 38.896 24 40.605 24.476C41.55 24.742 42.292 25.516 42.543 26.498ZM31 35.5L37 32L31 28.5V35.5Z" fill="#fcf5ed"/>
</g>
<defs>
<clipPath id="clip0_338_1084">
<rect width="24" height="24" fill="#fcf5ed" transform="translate(21 20)"/>
</clipPath>
</defs>
</svg>
