<svg width="205" height="56" viewBox="0 0 205 56" fill="none" xmlns="http://www.w3.org/2000/svg">
<path d="M46.3028 15.79V47.382C46.3028 47.5668 46.2297 47.744 46.0995 47.8746C45.9694 48.0053 45.7929 48.0787 45.6088 48.0787L34.8332 48.086C34.6491 48.086 34.4726 48.0126 34.3424 47.882C34.2123 47.7513 34.1392 47.5741 34.1392 47.3893L34.1757 7.65001C34.1757 7.52063 34.2116 7.3938 34.2793 7.28375C34.3471 7.17369 34.4441 7.08475 34.5593 7.02689C34.6746 6.96903 34.8037 6.94453 34.932 6.95615C35.0604 6.96777 35.183 7.01504 35.2861 7.09267L46.0252 15.2327C46.1114 15.2976 46.1814 15.3817 46.2296 15.4784C46.2777 15.5752 46.3028 15.6819 46.3028 15.79Z" fill="#FCF5ED"/>
<path d="M29.3247 47.69L29.332 9.95267C29.3317 9.90319 29.3428 9.85431 29.3643 9.8098C29.3858 9.7653 29.4173 9.72636 29.4562 9.696L31.2022 8.354C31.2499 8.31684 31.3069 8.29388 31.367 8.28776C31.427 8.28163 31.4875 8.29258 31.5416 8.31936C31.5957 8.34613 31.6412 8.38765 31.6729 8.43916C31.7046 8.49068 31.7213 8.55011 31.7209 8.61067L31.699 47.7707C31.699 47.8143 31.6903 47.8575 31.6732 47.8976C31.6561 47.9378 31.6312 47.974 31.5997 48.0042C31.5683 48.0343 31.5311 48.0578 31.4904 48.0731C31.4497 48.0884 31.4064 48.0953 31.3629 48.0933L29.6315 48.0127C29.5488 48.0089 29.4708 47.9732 29.4136 47.9131C29.3565 47.853 29.3246 47.7731 29.3247 47.69Z" fill="#FCF5ED"/>
<path d="M27.0528 12.2333L27.1331 47.6167C27.1316 47.7155 27.0932 47.8103 27.0256 47.8822C26.958 47.9541 26.8661 47.998 26.7678 48.0053L24.8173 48.1447C24.7631 48.1487 24.7086 48.1415 24.6573 48.1234C24.606 48.1053 24.559 48.0768 24.5192 48.0396C24.4794 48.0024 24.4477 47.9574 24.4261 47.9073C24.4045 47.8573 24.3934 47.8032 24.3936 47.7487V13.9053C24.3938 13.8499 24.4056 13.7952 24.4283 13.7447C24.451 13.6941 24.4839 13.649 24.5251 13.612L26.3953 11.94C26.4519 11.8892 26.522 11.8558 26.5971 11.844C26.6721 11.8321 26.749 11.8423 26.8185 11.8733C26.8879 11.9043 26.947 11.9547 26.9886 12.0186C27.0301 12.0825 27.0524 12.1571 27.0528 12.2333Z" fill="#FCF5ED"/>
<path d="M80.0615 19.2587C75.5613 15.1887 70.2867 21.6273 74.5093 25.646C76.0946 27.164 78.973 26.9 80.3099 25.074C80.4122 24.9273 80.529 24.9151 80.6605 25.0373L82.5746 26.8267C82.6623 26.9049 82.6623 26.9856 82.5746 27.0687C79.0095 30.42 73.3404 30.3393 70.8054 25.9027C70.0457 24.5729 69.7778 23.0622 70.0018 21.3707C70.8054 15.3647 77.4388 13.5827 81.9536 16.8387C82.0084 16.8784 82.0546 16.9289 82.0893 16.9872C82.124 17.0454 82.1465 17.1102 82.1554 17.1775C82.1643 17.2448 82.1594 17.3131 82.141 17.3785C82.1227 17.4438 82.0912 17.5047 82.0486 17.5573L80.6679 19.2147C80.4828 19.4445 80.2807 19.4591 80.0615 19.2587Z" fill="#FCF5ED"/>
<path d="M105.134 19.9627C107.318 21.5613 112.22 21.0627 111.899 25.294C111.772 27.01 111.044 28.1736 109.714 28.7847C107.231 29.9287 104.52 29.5742 101.583 27.7213C101.106 27.4231 101.057 27.0638 101.437 26.6433L102.54 25.426C102.799 25.1425 103.074 25.1229 103.366 25.3673C104.571 26.4013 107.26 27.274 108.67 26.086C108.786 25.9886 108.875 25.8637 108.931 25.7226C108.986 25.5814 109.006 25.4284 108.988 25.2773C108.97 25.1261 108.914 24.9815 108.827 24.8565C108.74 24.7314 108.623 24.6298 108.487 24.5607C107.528 24.0816 106.517 23.7173 105.455 23.468C99.2968 22.0233 101.028 14.91 106.661 15.196C108.127 15.2742 109.556 15.6873 110.949 16.4353C111.417 16.6847 111.495 17.0245 111.183 17.4547L110.211 18.7967C109.939 19.178 109.612 19.2269 109.232 18.9433C107.708 17.7847 106.371 17.5402 105.222 18.21C104.301 18.7478 104.272 19.332 105.134 19.9627Z" fill="#FCF5ED"/>
<path d="M196.489 23.2553L197.183 22.324C197.417 22.0062 197.668 21.9916 197.936 22.28L199.346 23.8053C199.497 23.9716 199.492 24.1353 199.331 24.2967L198.345 25.2793C198.218 25.4055 198.145 25.5757 198.14 25.7555C198.134 25.9354 198.197 26.1112 198.316 26.2473L200.544 28.7847C200.846 29.1269 200.768 29.2956 200.31 29.2907L198.016 29.2687C197.622 29.2687 197.298 29.1196 197.045 28.8213L196.38 28.0587C196.18 27.8289 195.971 27.8191 195.751 28.0293C190.696 32.884 184.501 24.634 190.302 21.3633C190.545 21.2216 190.586 21.0358 190.426 20.806C189.388 19.2953 188.789 17.902 190.25 16.3253C193.421 12.908 198.988 17.7407 194.794 21.422C194.745 21.465 194.705 21.5186 194.678 21.5787C194.652 21.6389 194.639 21.7043 194.64 21.7701C194.641 21.836 194.657 21.9007 194.687 21.9597C194.716 22.0187 194.758 22.0705 194.809 22.1113C195.174 22.4047 195.479 22.7689 195.722 23.204C195.951 23.6196 196.207 23.6367 196.489 23.2553ZM193.655 17.7773L192.237 17.7627C192.199 17.7617 192.161 17.7683 192.125 17.7822C192.089 17.796 192.057 17.8168 192.029 17.8434C192.001 17.8699 191.979 17.9017 191.963 17.937C191.947 17.9722 191.939 18.0101 191.938 18.0487V18.3053C191.935 18.5086 191.956 18.7103 191.999 18.8989C192.043 19.0874 192.108 19.2591 192.192 19.4042C192.275 19.5493 192.375 19.6648 192.486 19.7443C192.596 19.8238 192.716 19.8656 192.837 19.8673H192.997C193.241 19.871 193.478 19.7116 193.654 19.4242C193.831 19.1368 193.934 18.7449 193.94 18.3347V18.078C193.941 18.0395 193.934 18.0011 193.92 17.9652C193.906 17.9292 193.886 17.8963 193.859 17.8684C193.833 17.8405 193.801 17.8181 193.766 17.8024C193.731 17.7868 193.693 17.7783 193.655 17.7773ZM194.298 25.404L192.544 23.226C192.509 23.1825 192.465 23.1464 192.416 23.1198C192.367 23.0933 192.313 23.0768 192.257 23.0713C192.201 23.0659 192.145 23.0716 192.092 23.088C192.038 23.1045 191.988 23.1315 191.945 23.1673L191.324 23.6733C190.945 23.9817 190.68 24.4007 190.588 24.838C190.497 25.2753 190.585 25.6952 190.835 26.0053L191.244 26.5113C191.368 26.6646 191.528 26.7862 191.714 26.8691C191.901 26.9521 192.11 26.9948 192.331 26.9948C192.551 26.9948 192.779 26.9521 193 26.8691C193.22 26.7862 193.431 26.6646 193.618 26.5113L194.239 25.998C194.325 25.9265 194.379 25.8242 194.39 25.713C194.401 25.6019 194.368 25.4909 194.298 25.404Z" fill="#FCF5ED"/>
<path d="M22.2969 15.6433L22.2896 47.888C22.2896 47.9243 22.2823 47.9602 22.2683 47.9936C22.2543 48.027 22.2337 48.0572 22.2078 48.0825C22.1819 48.1078 22.1513 48.1276 22.1176 48.1408C22.084 48.154 22.0481 48.1603 22.0119 48.1593L19.8787 48.086C19.8083 48.0841 19.7414 48.0547 19.6923 48.004C19.6432 47.9533 19.6157 47.8854 19.6157 47.8147L19.5281 17.4767C19.5281 17.4358 19.5372 17.3954 19.555 17.3586C19.5727 17.3218 19.5984 17.2894 19.6304 17.264L21.8585 15.4307C21.8984 15.399 21.9463 15.3792 21.9968 15.3735C22.0473 15.3679 22.0984 15.3767 22.1442 15.3989C22.19 15.4211 22.2286 15.4558 22.2556 15.4991C22.2826 15.5423 22.2969 15.5923 22.2969 15.6433Z" fill="#FCF5ED"/>
<path d="M118.868 24.2527L118.992 28.5793C119.002 28.9705 118.812 29.1733 118.423 29.188L116.414 29.2687C116.337 29.2716 116.262 29.2592 116.19 29.2323C116.119 29.2053 116.054 29.1643 115.999 29.1117C115.944 29.059 115.9 28.9959 115.869 28.9258C115.839 28.8558 115.823 28.7804 115.822 28.704L115.814 15.8927C115.814 15.702 115.907 15.5896 116.092 15.5553C117.086 15.3744 117.945 15.3818 118.671 15.5773C118.743 15.5968 118.806 15.639 118.851 15.6974C118.896 15.7557 118.92 15.827 118.919 15.9L118.89 20.1607C118.89 20.63 119.124 20.8647 119.591 20.8647L123.551 20.894C124.062 20.894 124.316 20.6398 124.311 20.1313L124.274 15.8633C124.274 15.57 124.418 15.4282 124.705 15.438L126.948 15.4967C127.028 15.4986 127.104 15.5319 127.16 15.5894C127.216 15.647 127.248 15.7242 127.248 15.8047L127.284 28.8433C127.284 29.0829 127.165 29.2051 126.926 29.21L124.713 29.232C124.411 29.232 124.262 29.0829 124.267 28.7847L124.333 24.1793C124.338 23.8029 124.152 23.6171 123.777 23.622L119.438 23.6587C119.048 23.6636 118.858 23.8616 118.868 24.2527Z" fill="#FCF5ED"/>
<path d="M138.79 25.8953L135.452 20.7913C135.422 20.7477 135.379 20.7147 135.329 20.6973C135.279 20.6799 135.225 20.6788 135.174 20.6944C135.124 20.7099 135.08 20.7412 135.048 20.7837C135.016 20.8262 134.999 20.8776 134.999 20.9307L135.123 28.946C135.123 29.0109 135.098 29.0732 135.053 29.1198C135.008 29.1663 134.946 29.1934 134.882 29.1953L132.456 29.2173C132.391 29.2173 132.327 29.1911 132.281 29.1443C132.234 29.0975 132.208 29.0341 132.208 28.968L132.237 15.7093C132.237 15.6432 132.263 15.5798 132.31 15.533C132.357 15.4863 132.42 15.46 132.486 15.46L135.357 15.4747C135.399 15.4745 135.441 15.4851 135.478 15.5057C135.515 15.5262 135.546 15.5559 135.569 15.592L138.754 20.8647C138.776 20.9011 138.807 20.9311 138.844 20.952C138.881 20.9729 138.923 20.9838 138.966 20.9838C139.008 20.9838 139.05 20.9729 139.087 20.952C139.124 20.9311 139.155 20.9011 139.177 20.8647L142.392 15.6433C142.413 15.6093 142.442 15.5809 142.476 15.5604C142.511 15.54 142.549 15.5282 142.589 15.526L145.438 15.4013C145.471 15.4003 145.503 15.4058 145.534 15.4175C145.564 15.4291 145.592 15.4467 145.616 15.4691C145.64 15.4916 145.659 15.5186 145.672 15.5485C145.686 15.5783 145.693 15.6106 145.694 15.6433L145.782 28.9973C145.782 29.0307 145.775 29.0637 145.762 29.0945C145.749 29.1252 145.73 29.153 145.706 29.1763C145.682 29.1995 145.654 29.2177 145.623 29.2298C145.592 29.2419 145.559 29.2476 145.526 29.2467L143.027 29.1733C142.963 29.1714 142.902 29.1443 142.857 29.0978C142.812 29.0512 142.786 28.9889 142.786 28.924L142.874 20.9893C142.876 20.9342 142.86 20.8799 142.828 20.835C142.796 20.7901 142.75 20.7571 142.698 20.7411C142.645 20.7252 142.589 20.7272 142.537 20.7469C142.486 20.7666 142.442 20.8029 142.414 20.85L139.207 25.8953C139.184 25.9301 139.153 25.9587 139.117 25.9785C139.081 25.9983 139.04 26.0087 138.998 26.0087C138.957 26.0087 138.916 25.9983 138.88 25.9785C138.844 25.9587 138.813 25.9301 138.79 25.8953Z" fill="#FCF5ED"/>
<path d="M153.306 26.4893C152.926 27.032 152.654 27.6284 152.488 28.2787C152.342 28.8653 151.967 29.1733 151.363 29.2027L149.938 29.2613C149.315 29.2858 149.123 29.0095 149.361 28.4327L154.629 15.8853C154.745 15.6018 154.957 15.4624 155.264 15.4673L156.908 15.504C157.147 15.5083 157.38 15.5827 157.579 15.7181C157.777 15.8535 157.932 16.0441 158.026 16.2667L163.308 28.836C163.329 28.8864 163.337 28.9415 163.331 28.9959C163.325 29.0503 163.305 29.1023 163.274 29.1471C163.243 29.1918 163.2 29.2278 163.151 29.2516C163.102 29.2754 163.048 29.2864 162.993 29.2833L160.999 29.188C160.512 29.1635 160.176 28.924 159.991 28.4693L159.238 26.5847C159.182 26.4465 159.086 26.3284 158.962 26.246C158.839 26.1635 158.693 26.1206 158.544 26.1227L153.92 26.1667C153.657 26.1667 153.452 26.2742 153.306 26.4893ZM154.599 22.9987C154.573 23.0665 154.564 23.1397 154.572 23.2119C154.581 23.2842 154.607 23.3533 154.648 23.4132C154.689 23.4732 154.744 23.5222 154.808 23.556C154.872 23.5898 154.943 23.6074 155.016 23.6073L157.434 23.5853C157.507 23.5847 157.578 23.5663 157.642 23.5315C157.706 23.4968 157.761 23.4469 157.801 23.3861C157.841 23.3254 157.866 23.2556 157.874 23.183C157.881 23.1103 157.87 23.037 157.843 22.9693L156.608 19.904C156.574 19.8219 156.517 19.7519 156.443 19.7029C156.369 19.6539 156.282 19.6281 156.193 19.6289C156.105 19.6297 156.018 19.657 155.945 19.7073C155.872 19.7576 155.816 19.8286 155.783 19.9113L154.599 22.9987Z" fill="#FCF5ED"/>
<path d="M170.62 21.6493C170.021 20.7693 169.727 20.8622 169.736 21.928L169.78 28.9167C169.785 29.166 169.661 29.2882 169.408 29.2833L167.136 29.2467C166.941 29.2467 166.844 29.1489 166.844 28.9533L166.851 16.0613C166.851 15.68 167.041 15.4869 167.421 15.482L169.021 15.46C169.194 15.4579 169.366 15.4974 169.521 15.5752C169.676 15.6531 169.81 15.7669 169.912 15.9073L174.996 22.9547C175.576 23.7515 175.858 23.6587 175.844 22.676L175.778 16.0907C175.773 15.7093 175.961 15.5113 176.341 15.4967L178.189 15.4307C178.647 15.4111 178.876 15.6335 178.876 16.098L178.898 28.7113C178.898 28.8503 178.845 28.9841 178.75 29.085C178.655 29.186 178.524 29.2465 178.386 29.254C177.049 29.342 176.224 29.408 175.296 28.1833C173.572 25.8904 172.013 23.7124 170.62 21.6493Z" fill="#FCF5ED"/>
<path d="M89.0984 23.5633C89.0911 27.6627 94.709 27.604 94.8186 23.8053C94.9063 20.8622 94.9233 18.2271 94.8698 15.9C94.8649 15.6409 94.9915 15.5113 95.2497 15.5113H97.4486C97.509 15.5112 97.5688 15.5235 97.6244 15.5474C97.6799 15.5712 97.73 15.6061 97.7717 15.65C97.8134 15.6939 97.8458 15.7459 97.8668 15.8027C97.8879 15.8595 97.8972 15.9201 97.8942 15.9807C97.7968 18.342 97.7871 20.7962 97.865 23.3433C97.9454 26.0493 96.5281 28.7553 93.7228 29.21C88.5554 30.0558 85.9887 27.8264 86.0228 22.522C86.0374 20.3073 86.0423 18.1195 86.0374 15.9587C86.0374 15.6604 86.1835 15.5113 86.4757 15.5113H88.6893C89.0059 15.5113 89.1617 15.6702 89.1569 15.988C89.1179 18.5009 89.0984 21.026 89.0984 23.5633Z" fill="#FCF5ED"/>
<path d="M60.753 34.2993L60.7457 47.734C60.7457 47.8215 60.7111 47.9055 60.6494 47.9674C60.5878 48.0292 60.5041 48.064 60.4169 48.064L48.9108 48.108C48.8236 48.108 48.74 48.0732 48.6783 48.0114C48.6167 47.9495 48.582 47.8655 48.582 47.778L48.6039 25.448C48.6039 25.3867 48.6209 25.3267 48.653 25.2745C48.6851 25.2224 48.7311 25.1803 48.7857 25.1529C48.8403 25.1254 48.9014 25.1138 48.9622 25.1193C49.023 25.1248 49.0811 25.1472 49.1299 25.184L60.6215 34.0353C60.6623 34.0661 60.6955 34.1059 60.7183 34.1518C60.7411 34.1976 60.753 34.2481 60.753 34.2993Z" fill="#FCF5ED"/>
<path d="M17.2779 27.054L17.256 47.822C17.2551 47.8657 17.2454 47.9087 17.2274 47.9485C17.2095 47.9883 17.1837 48.024 17.1516 48.0535C17.1195 48.083 17.0817 48.1056 17.0406 48.12C16.9996 48.1344 16.956 48.1403 16.9126 48.1373L15.0278 47.998C14.9464 47.9924 14.8701 47.956 14.8145 47.896C14.7589 47.8361 14.7281 47.7572 14.7283 47.6753L14.7209 28.7407C14.721 28.6948 14.7309 28.6495 14.7498 28.6078C14.7687 28.5661 14.7962 28.5289 14.8305 28.4987L16.7446 26.812C16.791 26.7712 16.8481 26.7446 16.9092 26.7355C16.9702 26.7264 17.0326 26.7351 17.0888 26.7606C17.1451 26.7862 17.1928 26.8274 17.2263 26.8794C17.2599 26.9314 17.2777 26.992 17.2779 27.054Z" fill="#FCF5ED"/>
<path d="M12.5585 30.728L12.5074 47.712C12.5074 47.7995 12.4727 47.8835 12.4111 47.9454C12.3494 48.0072 12.2658 48.042 12.1786 48.042L10.2865 48.0493C10.1993 48.0493 10.1157 48.0146 10.0541 47.9527C9.9924 47.8908 9.95776 47.8069 9.95776 47.7193L9.97238 32.3707C9.97281 32.3231 9.98348 32.2762 10.0037 32.2332C10.0238 32.1901 10.053 32.152 10.0893 32.1213L12.0179 30.4787C12.0656 30.4383 12.1238 30.4124 12.1856 30.404C12.2474 30.3956 12.3104 30.405 12.367 30.4311C12.4237 30.4573 12.4718 30.4991 12.5057 30.5517C12.5397 30.6042 12.558 30.6654 12.5585 30.728Z" fill="#FCF5ED"/>
<path d="M7.87578 34.226L7.88309 47.8367C7.8831 47.871 7.87625 47.905 7.86295 47.9366C7.84964 47.9682 7.83015 47.9969 7.80563 48.0208C7.78111 48.0447 7.75205 48.0635 7.72018 48.0759C7.68831 48.0884 7.65428 48.0943 7.62009 48.0933L5.45766 48.02C5.39112 48.0181 5.32794 47.9902 5.28156 47.9423C5.23518 47.8943 5.20924 47.8301 5.20927 47.7633L5.20197 35.9787C5.2011 35.9394 5.20922 35.9005 5.22568 35.8649C5.24215 35.8293 5.26652 35.798 5.29694 35.7733L7.45937 34.028C7.4968 33.9976 7.54202 33.9785 7.58982 33.9728C7.63762 33.967 7.68605 33.975 7.72955 33.9957C7.77305 34.0163 7.80986 34.0489 7.83572 34.0897C7.86159 34.1304 7.87548 34.1777 7.87578 34.226Z" fill="#FCF5ED"/>
<path d="M84.5982 42.652C84.8417 43.4049 85.0876 43.4049 85.336 42.652L87.8783 34.8053C88.0293 34.3458 88.3459 34.1136 88.8281 34.1087L90.6544 34.1013C91.1269 34.0965 91.2827 34.3165 91.122 34.7613L86.6072 47.404C86.4562 47.8245 86.1567 48.0273 85.7086 48.0127L84.0283 47.9613C83.6095 47.9467 83.3368 47.7389 83.2101 47.338L80.7628 39.5573C80.5047 38.7262 80.2441 38.7262 79.9811 39.5573L77.4826 47.514C77.3803 47.8513 77.1539 48.02 76.8032 48.02L75.0061 48.0127C74.8136 48.0129 74.6258 47.953 74.4687 47.8413C74.3116 47.7297 74.1931 47.5717 74.1294 47.3893L69.4246 34.204C69.3906 34.1062 69.4246 34.0598 69.5269 34.0647L72.4126 34.094C72.5636 34.094 72.661 34.1649 72.7048 34.3067L75.2617 42.102C75.6952 43.4171 76.0897 43.4049 76.4452 42.0653C77.0784 39.6747 77.8674 37.1813 78.8122 34.5853C78.934 34.2578 79.1678 34.094 79.5135 34.094H81.4203C81.6833 34.094 81.8562 34.2187 81.939 34.468L84.5982 42.652Z" fill="#FCF5ED"/>
<path d="M95.4981 45.072L94.5264 47.426C94.4593 47.5893 94.3466 47.7293 94.2024 47.8284C94.0582 47.9274 93.8889 47.9813 93.7155 47.9833L91.8307 47.9907C91.4216 47.9955 91.2974 47.8098 91.4581 47.4333C93.4063 42.9209 95.1401 38.7922 96.6596 35.0473C97.2368 33.6247 99.706 33.61 100.298 35.0547C102.066 39.3471 103.797 43.4611 105.492 47.3967C105.687 47.8464 105.541 48.0591 105.054 48.0347L103.045 47.9393C102.67 47.9198 102.416 47.734 102.285 47.382L101.408 45.0647C101.306 44.8007 101.114 44.6687 100.831 44.6687L96.0606 44.6907C95.7879 44.6907 95.6004 44.8178 95.4981 45.072ZM97.9746 38.6553L96.9153 41.6327C96.8913 41.7027 96.8859 41.7779 96.8997 41.8507C96.9135 41.9235 96.946 41.9914 96.9939 42.0477C97.0419 42.104 97.1037 42.1468 97.1732 42.1717C97.2427 42.1967 97.3175 42.203 97.3902 42.19C98.038 42.0678 98.6784 42.0629 99.3116 42.1753C99.4374 42.199 99.5671 42.1837 99.6839 42.1314C99.8006 42.0791 99.8989 41.9923 99.966 41.8822C100.033 41.7722 100.066 41.644 100.06 41.5145C100.054 41.3849 100.009 41.26 99.9325 41.156C99.4211 40.4813 99.1265 39.7455 99.0486 38.9487C99.0193 38.67 98.8732 38.4842 98.6102 38.3913C98.4154 38.3229 98.2352 38.3644 98.0696 38.516C98.0263 38.5545 97.9937 38.6024 97.9746 38.6553Z" fill="#FCF5ED"/>
<path d="M112.534 39.6233L116.983 34.7613C117.157 34.5732 117.366 34.4218 117.598 34.316C117.83 34.2102 118.081 34.1522 118.335 34.1453L120.468 34.0793C121.028 34.0598 121.113 34.2529 120.724 34.6587L115.888 39.6967C115.712 39.8824 115.7 40.0804 115.851 40.2907L121.33 47.888C121.34 47.9013 121.345 47.9169 121.346 47.9332C121.348 47.9496 121.344 47.9659 121.337 47.9803C121.329 47.9948 121.318 48.0069 121.304 48.0152C121.289 48.0235 121.273 48.0277 121.257 48.0273C120.191 48.0224 119.126 47.998 118.065 47.954C117.889 47.9491 117.75 47.8758 117.648 47.734L113.988 42.6373C113.866 42.4711 113.706 42.4173 113.506 42.476C111.439 43.07 112.016 46.0327 112.038 47.602C112.039 47.6511 112.03 47.6999 112.012 47.7457C111.994 47.7914 111.968 47.8332 111.934 47.8686C111.9 47.904 111.859 47.9324 111.814 47.9521C111.77 47.9717 111.721 47.9824 111.672 47.9833L109.605 47.998C109.298 48.0029 109.145 47.8489 109.145 47.536L109.079 34.7027C109.079 34.6246 109.094 34.5474 109.124 34.4753C109.154 34.4033 109.197 34.3378 109.252 34.2826C109.307 34.2275 109.372 34.1837 109.444 34.1539C109.516 34.124 109.593 34.1087 109.671 34.1087H111.534C111.874 34.1087 112.042 34.2798 112.038 34.622L111.972 39.396C111.962 39.968 112.15 40.0438 112.534 39.6233Z" fill="#FCF5ED"/>
<path d="M128.227 45.292L134.371 45.336C134.5 45.3357 134.625 45.3847 134.72 45.4732C134.815 45.5616 134.873 45.683 134.882 45.8127L134.992 47.404C134.996 47.4738 134.985 47.5438 134.961 47.6095C134.938 47.6752 134.9 47.7353 134.853 47.7861C134.805 47.8369 134.747 47.8774 134.683 47.905C134.619 47.9326 134.55 47.9468 134.48 47.9467L125.18 48.0127C125.113 48.0127 125.047 47.9994 124.985 47.9736C124.923 47.9478 124.866 47.91 124.819 47.8623C124.771 47.8146 124.734 47.7581 124.708 47.6958C124.682 47.6335 124.669 47.5667 124.669 47.4993L124.647 34.6293C124.646 34.5607 124.659 34.4925 124.685 34.4289C124.71 34.3653 124.748 34.3075 124.797 34.259C124.845 34.2104 124.903 34.1721 124.966 34.1463C125.029 34.1205 125.097 34.1077 125.166 34.1087L134.371 34.1673C134.506 34.1673 134.636 34.2214 134.732 34.3177C134.828 34.414 134.882 34.5445 134.882 34.6807L134.867 36.272C134.866 36.4056 134.812 36.5332 134.718 36.6277C134.624 36.7222 134.496 36.7761 134.363 36.778L128.212 36.8C128.078 36.8 127.949 36.8531 127.853 36.9477C127.757 37.0424 127.703 37.1711 127.701 37.306L127.672 39.022C127.67 39.0906 127.681 39.159 127.706 39.2229C127.731 39.2869 127.768 39.3453 127.816 39.3945C127.864 39.4437 127.921 39.4829 127.984 39.5096C128.047 39.5363 128.114 39.55 128.183 39.55L133.647 39.5867C133.775 39.588 133.897 39.6368 133.99 39.7236C134.083 39.8104 134.141 39.9289 134.151 40.056L134.327 41.8233C134.334 41.8949 134.326 41.9672 134.304 42.0356C134.281 42.1039 134.245 42.1667 134.196 42.22C134.148 42.2732 134.089 42.3157 134.024 42.3446C133.958 42.3736 133.887 42.3884 133.815 42.388L128.183 42.41C128.114 42.41 128.047 42.4237 127.984 42.4504C127.921 42.4771 127.864 42.5163 127.816 42.5655C127.768 42.6147 127.731 42.6731 127.706 42.737C127.681 42.801 127.67 42.8694 127.672 42.938L127.715 44.7933C127.719 44.9269 127.775 45.0537 127.87 45.1469C127.966 45.24 128.094 45.2921 128.227 45.292Z" fill="#FCF5ED"/>
<path d="M142.195 43.0553L141.997 47.3747C141.992 47.5098 141.937 47.6381 141.842 47.7344C141.748 47.8307 141.621 47.8881 141.486 47.8953L139.755 47.9833C139.682 47.9873 139.609 47.9764 139.54 47.9514C139.472 47.9264 139.409 47.8877 139.356 47.8377C139.303 47.7877 139.26 47.7273 139.231 47.6604C139.201 47.5934 139.186 47.5212 139.185 47.448L139.068 34.5927C139.067 34.5202 139.08 34.4482 139.108 34.381C139.135 34.3138 139.175 34.2528 139.226 34.2015C139.277 34.1503 139.338 34.1098 139.405 34.0825C139.472 34.0552 139.544 34.0417 139.616 34.0427L148.989 34.1893C149.06 34.1912 149.13 34.2071 149.195 34.2362C149.259 34.2652 149.318 34.3068 149.367 34.3586C149.416 34.4103 149.454 34.4712 149.479 34.5378C149.505 34.6044 149.517 34.6754 149.515 34.7467L149.464 36.1987C149.458 36.3338 149.403 36.4621 149.308 36.5584C149.214 36.6547 149.087 36.7121 148.952 36.7193L142.691 37.0053C142.553 37.0109 142.422 37.0696 142.326 37.1692C142.229 37.2688 142.175 37.4017 142.173 37.5407L142.151 39.132C142.149 39.2734 142.202 39.4101 142.299 39.5128C142.396 39.6156 142.529 39.6763 142.67 39.682L148.141 39.924C148.278 39.9295 148.408 39.9871 148.505 40.0852C148.601 40.1832 148.656 40.3143 148.66 40.452L148.704 42.0433C148.706 42.1164 148.693 42.1892 148.666 42.2572C148.64 42.3253 148.599 42.3872 148.548 42.4392C148.497 42.4913 148.436 42.5324 148.369 42.5601C148.301 42.5879 148.229 42.6017 148.156 42.6007L142.743 42.5347C142.602 42.5326 142.466 42.5859 142.363 42.6832C142.261 42.7804 142.2 42.914 142.195 43.0553Z" fill="#FCF5ED"/>
<path d="M155.843 34.09L153.973 34.0834C153.654 34.0823 153.395 34.3408 153.394 34.6608L153.35 47.2153C153.349 47.5353 153.607 47.7956 153.925 47.7967L155.796 47.8032C156.114 47.8044 156.374 47.5459 156.375 47.2259L156.418 34.6713C156.42 34.3514 156.162 34.0911 155.843 34.09Z" fill="#FCF5ED"/>
<path d="M164.411 39.5427L169.963 39.616C170.086 39.6179 170.203 39.6682 170.289 39.756C170.375 39.8438 170.423 39.9621 170.423 40.0853L170.438 41.8967C170.438 42.0199 170.39 42.1382 170.303 42.226C170.217 42.3138 170.1 42.3641 169.978 42.366L164.367 42.4687C164.304 42.4696 164.242 42.4831 164.185 42.5085C164.128 42.5339 164.076 42.5706 164.033 42.6165C163.99 42.6623 163.957 42.7163 163.935 42.7753C163.913 42.8344 163.904 42.8972 163.907 42.96L163.994 44.7053C164 44.8247 164.051 44.9374 164.136 45.0206C164.222 45.1037 164.336 45.1509 164.455 45.1527L170.73 45.2847C170.849 45.2864 170.963 45.3337 171.048 45.4168C171.134 45.4999 171.185 45.6126 171.19 45.732L171.256 47.2867C171.259 47.3495 171.249 47.4123 171.228 47.4713C171.206 47.5304 171.172 47.5844 171.13 47.6302C171.087 47.6761 171.035 47.7128 170.978 47.7382C170.92 47.7635 170.858 47.7771 170.796 47.778L161.474 47.866C161.412 47.867 161.351 47.8558 161.294 47.8331C161.237 47.8104 161.185 47.7766 161.141 47.7337C161.097 47.6908 161.062 47.6396 161.037 47.5831C161.013 47.5265 161 47.4656 160.999 47.404L160.794 34.512C160.794 34.4498 160.805 34.3879 160.828 34.3301C160.851 34.2724 160.885 34.2197 160.929 34.1754C160.972 34.131 161.024 34.0958 161.081 34.0718C161.139 34.0477 161.2 34.0353 161.262 34.0353L170.73 34.0573C170.85 34.0592 170.965 34.1074 171.051 34.1921C171.137 34.2768 171.186 34.3913 171.19 34.512L171.234 36.294C171.235 36.3563 171.224 36.4181 171.201 36.4759C171.178 36.5337 171.143 36.5863 171.1 36.6306C171.056 36.675 171.004 36.7102 170.947 36.7343C170.89 36.7583 170.829 36.7707 170.766 36.7707L164.447 36.8147C164.327 36.8165 164.212 36.8648 164.126 36.9494C164.041 37.0341 163.991 37.1487 163.987 37.2693L163.95 39.066C163.949 39.1276 163.961 39.1889 163.983 39.2462C164.006 39.3035 164.039 39.3558 164.082 39.4C164.125 39.4443 164.176 39.4797 164.232 39.5042C164.289 39.5286 164.349 39.5417 164.411 39.5427Z" fill="#FCF5ED"/>
<path d="M179 45.2407L184.99 45.138C185.055 45.137 185.119 45.149 185.179 45.1734C185.239 45.1977 185.293 45.2339 185.339 45.2797C185.384 45.3255 185.42 45.3801 185.445 45.4401C185.469 45.5002 185.481 45.5645 185.48 45.6293L185.451 47.514C185.449 47.6411 185.397 47.7623 185.307 47.8515C185.217 47.9407 185.095 47.9907 184.968 47.9907L176.107 48.0127C175.979 48.0127 175.856 47.9617 175.766 47.8709C175.676 47.7801 175.625 47.657 175.625 47.5287L175.61 34.5487C175.61 34.4826 175.623 34.4171 175.649 34.3564C175.675 34.2957 175.714 34.241 175.761 34.1956C175.809 34.1503 175.866 34.1153 175.928 34.0927C175.99 34.0702 176.056 34.0607 176.121 34.0647L178.072 34.1747C178.195 34.1822 178.31 34.2364 178.394 34.3264C178.478 34.4164 178.525 34.5352 178.525 34.6587L178.51 44.7567C178.51 44.8209 178.523 44.8844 178.548 44.9436C178.572 45.0028 178.609 45.0565 178.654 45.1015C178.7 45.1466 178.754 45.1821 178.813 45.206C178.872 45.2298 178.936 45.2416 179 45.2407Z" fill="#FCF5ED"/>
<path d="M189.038 34.3873C189.038 34.3095 189.068 34.2349 189.123 34.1799C189.178 34.1249 189.252 34.094 189.33 34.094H194.188C196.096 34.094 197.927 34.7839 199.276 36.0121C200.626 37.2402 201.384 38.9058 201.384 40.6427V41.4347C201.384 43.1715 200.626 44.8372 199.276 46.0653C197.927 47.2934 196.096 47.9833 194.188 47.9833H189.33C189.252 47.9833 189.178 47.9524 189.123 47.8974C189.068 47.8424 189.038 47.7678 189.038 47.69V34.3873ZM191.879 37.1227L191.909 44.94C191.911 45.0243 191.945 45.1045 192.005 45.1634C192.065 45.2224 192.146 45.2553 192.23 45.2553H193.932C194.517 45.2532 195.096 45.147 195.635 44.9427C196.175 44.7384 196.664 44.4401 197.076 44.0648C197.488 43.6895 197.814 43.2446 198.036 42.7556C198.257 42.2665 198.37 41.7429 198.367 41.2147V40.7893C198.361 39.7245 197.888 38.7056 197.051 37.9562C196.214 37.2068 195.082 36.7884 193.903 36.7927H192.201C192.158 36.7926 192.116 36.8012 192.076 36.8179C192.037 36.8346 192.001 36.859 191.971 36.8897C191.941 36.9205 191.918 36.9569 191.902 36.9969C191.886 37.0369 191.878 37.0797 191.879 37.1227Z" fill="#FCF5ED"/>
</svg>
