<svg width="273" height="56" viewBox="0 0 273 56" fill="none" xmlns="http://www.w3.org/2000/svg">
<path d="M264.092 49.846C264.092 49.9821 264.038 50.1127 263.942 50.209C263.846 50.3052 263.715 50.3593 263.579 50.3593H220.62C220.484 50.3593 220.354 50.3052 220.258 50.209C220.161 50.1127 220.107 49.9821 220.107 49.846V6.88733C220.107 6.81991 220.12 6.75316 220.146 6.69088C220.172 6.6286 220.21 6.57201 220.258 6.52434C220.305 6.47668 220.362 6.43887 220.424 6.41307C220.486 6.38727 220.553 6.37399 220.62 6.37399H263.579C263.647 6.37399 263.713 6.38727 263.776 6.41307C263.838 6.43887 263.894 6.47668 263.942 6.52434C263.99 6.57201 264.028 6.6286 264.053 6.69088C264.079 6.75316 264.092 6.81991 264.092 6.88733V49.846ZM262.985 7.94333C262.985 7.84024 262.944 7.74139 262.871 7.6685C262.798 7.59561 262.7 7.55466 262.597 7.55466H221.676C221.573 7.55466 221.475 7.59561 221.402 7.6685C221.329 7.74139 221.288 7.84024 221.288 7.94333V48.8633C221.288 48.9664 221.329 49.0653 221.402 49.1382C221.475 49.211 221.573 49.252 221.676 49.252H262.597C262.7 49.252 262.798 49.211 262.871 49.1382C262.944 49.0653 262.985 48.9664 262.985 48.8633V7.94333Z" fill="#FCF5ED"/>
<path d="M128.433 22.5073C128.433 26.1969 126.968 29.7353 124.359 32.3441C121.75 34.953 118.211 36.4187 114.522 36.4187C110.832 36.4187 107.294 34.953 104.685 32.3441C102.076 29.7353 100.611 26.1969 100.611 22.5073C100.611 18.8178 102.076 15.2794 104.685 12.6705C107.294 10.0617 110.832 8.59601 114.522 8.59601C116.349 8.59601 118.158 8.95584 119.846 9.65495C121.533 10.3541 123.067 11.3788 124.359 12.6705C125.651 13.9623 126.675 15.4959 127.374 17.1837C128.073 18.8715 128.433 20.6805 128.433 22.5073ZM123.652 22.5073C123.652 20.0879 122.691 17.7675 120.98 16.0566C119.269 14.3458 116.949 13.3847 114.529 13.3847C112.11 13.3847 109.789 14.3458 108.079 16.0566C106.368 17.7675 105.407 20.0879 105.407 22.5073C105.407 24.9268 106.368 27.2472 108.079 28.958C109.789 30.6689 112.11 31.63 114.529 31.63C116.949 31.63 119.269 30.6689 120.98 28.958C122.691 27.2472 123.652 24.9268 123.652 22.5073Z" fill="#FCF5ED"/>
<path d="M229.523 16.824L227.675 16.8167C227.45 16.8167 227.306 16.9193 227.243 17.1247L226.891 18.2173C226.798 18.5107 226.595 18.6476 226.282 18.628L225.989 18.606C225.676 18.5864 225.578 18.43 225.695 18.1367L227.939 12.402C228.002 12.2449 228.11 12.1101 228.25 12.0152C228.39 11.9204 228.555 11.87 228.724 11.8708C228.892 11.8716 229.056 11.9235 229.194 12.0197C229.331 12.1158 229.436 12.2517 229.494 12.4093L231.701 18.2467C231.716 18.2856 231.722 18.3273 231.718 18.3688C231.715 18.4103 231.702 18.4504 231.681 18.4863C231.66 18.5222 231.631 18.5528 231.596 18.5761C231.562 18.5994 231.522 18.6146 231.481 18.6207L231.122 18.6647C230.829 18.7087 230.631 18.5913 230.528 18.3127L230.147 17.2567C230.039 16.9682 229.831 16.824 229.523 16.824ZM228.915 13.6853C228.898 13.6404 228.868 13.6017 228.829 13.5743C228.789 13.547 228.742 13.5323 228.695 13.5323C228.647 13.5323 228.6 13.547 228.561 13.5743C228.521 13.6017 228.491 13.6404 228.475 13.6853L227.829 15.57C227.818 15.605 227.815 15.6422 227.82 15.6787C227.826 15.7151 227.84 15.7498 227.861 15.7797C227.883 15.8097 227.911 15.8343 227.943 15.8513C227.976 15.8684 228.012 15.8775 228.049 15.878L229.34 15.8927C229.378 15.8926 229.415 15.8835 229.448 15.866C229.482 15.8485 229.51 15.8232 229.532 15.7923C229.554 15.7613 229.567 15.7256 229.572 15.6882C229.577 15.6508 229.573 15.6128 229.56 15.5773L228.915 13.6853Z" fill="#FCF5ED"/>
<path d="M233.395 13.502C233.367 13.5915 233.358 13.6858 233.367 13.7791C233.377 13.8724 233.405 13.9629 233.45 14.045C233.495 14.1272 233.557 14.1994 233.63 14.2573C233.704 14.3152 233.789 14.3576 233.879 14.382L236.101 15.0127C236.502 15.1245 236.845 15.3833 237.064 15.7378C237.282 16.0923 237.36 16.5167 237.282 16.9267C236.776 19.596 232.794 19.288 231.995 16.802C231.936 16.6162 231.995 16.4793 232.171 16.3913L232.435 16.2667C232.485 16.2425 232.54 16.2288 232.595 16.2264C232.651 16.2241 232.707 16.2332 232.759 16.2531C232.811 16.273 232.859 16.3033 232.899 16.3422C232.939 16.3811 232.971 16.4278 232.992 16.4793C233.52 17.7211 234.398 18.0829 235.625 17.5647C236.089 17.3691 236.272 17.0611 236.175 16.6407C236.139 16.4844 236.062 16.3403 235.953 16.2231C235.843 16.1059 235.705 16.0197 235.551 15.9733L233.505 15.3573C232.616 15.0836 232.193 14.4822 232.237 13.5533C232.246 13.2405 232.347 12.9765 232.537 12.7613C233.295 11.9058 234.314 11.6418 235.595 11.9693C236.319 12.1551 236.754 12.5193 236.901 13.062C237.214 14.206 236.94 14.3698 236.079 13.5533C235.483 12.9862 234.886 12.7345 234.29 12.798C233.826 12.8469 233.527 13.0816 233.395 13.502Z" fill="#FCF5ED"/>
<path d="M241.733 17.198L241.44 18.2173C241.342 18.5498 241.125 18.6818 240.787 18.6133L240.545 18.5693C240.495 18.5608 240.447 18.5412 240.406 18.512C240.364 18.4828 240.329 18.4448 240.304 18.4006C240.279 18.3565 240.264 18.3073 240.26 18.2566C240.256 18.2059 240.263 18.1549 240.281 18.1073L242.437 12.4533C242.498 12.2915 242.606 12.1518 242.747 12.053C242.889 11.9541 243.058 11.9007 243.23 11.8999C243.403 11.8991 243.572 11.9509 243.715 12.0485C243.857 12.146 243.967 12.2847 244.029 12.446L246.251 18.188C246.373 18.496 246.268 18.6451 245.935 18.6353L245.605 18.628C245.462 18.624 245.324 18.5743 245.211 18.486C245.098 18.3977 245.015 18.2754 244.975 18.1367L244.718 17.2347C244.64 16.9609 244.459 16.824 244.175 16.824L242.254 16.8167C241.985 16.8118 241.811 16.9389 241.733 17.198ZM242.907 14.0887L242.43 15.3133C242.278 15.6898 242.405 15.8829 242.811 15.8927L243.625 15.9073C244.031 15.9122 244.163 15.724 244.021 15.3427L243.545 14.096C243.334 13.5436 243.122 13.5411 242.907 14.0887Z" fill="#FCF5ED"/>
<path d="M239.193 12.0364L238.577 12.0343C238.435 12.0338 238.32 12.1483 238.319 12.2901L238.298 18.318C238.298 18.4598 238.412 18.5751 238.554 18.5756L239.17 18.5777C239.312 18.5782 239.427 18.4637 239.427 18.322L239.448 12.294C239.449 12.1522 239.334 12.0369 239.193 12.0364Z" fill="#FCF5ED"/>
<path d="M9.97054 27.296L20.2079 27.2593C20.309 27.2593 20.406 27.2995 20.4775 27.371C20.549 27.4425 20.5892 27.5395 20.5892 27.6407L20.6185 31.014C20.6185 31.0641 20.6087 31.1137 20.5895 31.1599C20.5703 31.2062 20.5423 31.2482 20.5068 31.2836C20.4714 31.3191 20.4294 31.3471 20.3831 31.3663C20.3369 31.3855 20.2873 31.3953 20.2372 31.3953L9.9412 31.41C9.89113 31.41 9.84154 31.4199 9.79527 31.439C9.74901 31.4582 9.70697 31.4863 9.67156 31.5217C9.63615 31.5571 9.60806 31.5991 9.5889 31.6454C9.56973 31.6917 9.55987 31.7413 9.55987 31.7913L9.60387 42.1167C9.60389 42.2165 9.56472 42.3124 9.49478 42.3838C9.42485 42.4551 9.32973 42.4961 9.22987 42.498L5.3872 42.5493C5.33651 42.5503 5.28613 42.5412 5.23902 42.5224C5.1919 42.5037 5.149 42.4758 5.11281 42.4403C5.07662 42.4048 5.04787 42.3624 5.02825 42.3156C5.00863 42.2689 4.99853 42.2187 4.99854 42.168L5.0132 15.9807C5.0132 15.8795 5.05338 15.7825 5.12489 15.711C5.19641 15.6395 5.2934 15.5993 5.39454 15.5993L21.9019 15.6213C22.003 15.6213 22.1 15.6615 22.1715 15.733C22.243 15.8045 22.2832 15.9015 22.2832 16.0027L22.2759 19.3833C22.2759 19.4845 22.2357 19.5815 22.1642 19.653C22.0927 19.7245 21.9957 19.7647 21.8945 19.7647L9.95587 19.7207C9.85473 19.7207 9.75774 19.7608 9.68623 19.8324C9.61471 19.9039 9.57454 20.0009 9.57454 20.102L9.5892 26.9147C9.5892 27.0158 9.62938 27.1128 9.70089 27.1843C9.77241 27.2558 9.8694 27.296 9.97054 27.296Z" fill="#FCF5ED"/>
<path d="M31.7946 35.3553L29.4333 42.2047C29.4061 42.2847 29.3549 42.3544 29.2867 42.4043C29.2184 42.4542 29.1365 42.4818 29.052 42.4833L24.8206 42.5567C24.753 42.5587 24.6859 42.5441 24.6253 42.5139C24.5647 42.4838 24.5125 42.4392 24.4734 42.3841C24.4342 42.3289 24.4092 42.2649 24.4007 42.1978C24.3922 42.1307 24.4004 42.0625 24.4246 41.9993L34.0973 15.8413C34.1261 15.7615 34.1789 15.6925 34.2485 15.6439C34.3181 15.5954 34.4011 15.5695 34.486 15.57L38.556 15.614C38.6387 15.6145 38.7194 15.6399 38.7875 15.687C38.8555 15.7341 38.9077 15.8007 38.9373 15.878L48.5733 41.9627C48.5972 42.0253 48.6055 42.0928 48.5973 42.1593C48.5892 42.2258 48.5649 42.2893 48.5266 42.3443C48.4882 42.3993 48.437 42.444 48.3774 42.4746C48.3178 42.5053 48.2516 42.5208 48.1846 42.52L44.056 42.4907C43.9723 42.4897 43.891 42.4631 43.8229 42.4146C43.7547 42.3662 43.703 42.298 43.6746 42.2193L41.1593 35.2967C41.1305 35.2168 41.0777 35.1479 41.0081 35.0993C40.9384 35.0507 40.8555 35.0249 40.7706 35.0254L32.1833 35.0767C32.0975 35.0767 32.0139 35.1036 31.9442 35.1536C31.8745 35.2036 31.8222 35.2741 31.7946 35.3553ZM33.3786 30.6327C33.3657 30.6691 33.3618 30.7081 33.367 30.7464C33.3723 30.7847 33.3867 30.8211 33.4089 30.8527C33.4312 30.8843 33.4607 30.9101 33.495 30.928C33.5293 30.9458 33.5673 30.9552 33.606 30.9553L39.3993 30.9627C39.4379 30.9626 39.476 30.9532 39.5103 30.9353C39.5445 30.9175 39.574 30.8917 39.5963 30.8601C39.6185 30.8285 39.6329 30.792 39.6382 30.7537C39.6435 30.7154 39.6395 30.6764 39.6266 30.64L36.7446 22.4413C36.7276 22.3947 36.6967 22.3545 36.656 22.326C36.6153 22.2976 36.5669 22.2823 36.5173 22.2823C36.4677 22.2823 36.4192 22.2976 36.3786 22.326C36.3379 22.3545 36.307 22.3947 36.29 22.4413L33.3786 30.6327Z" fill="#FCF5ED"/>
<path d="M67.0166 31.1973C69.0015 34.6684 70.8642 38.3987 72.6046 42.388C72.6107 42.4025 72.613 42.4182 72.6115 42.4339C72.61 42.4495 72.6046 42.4645 72.5959 42.4775C72.5872 42.4906 72.5754 42.5013 72.5616 42.5087C72.5478 42.5161 72.5323 42.52 72.5166 42.52L67.9039 42.498C67.7475 42.498 67.6326 42.4271 67.5593 42.2853L62.7193 32.7593C62.6356 32.5958 62.5092 32.4587 62.3539 32.3629C62.1986 32.2671 62.0205 32.2165 61.8393 32.2167L58.1873 32.224C57.9282 32.224 57.7986 32.3536 57.7986 32.6127L57.7766 42.0873C57.7766 42.2047 57.7297 42.3174 57.646 42.4011C57.5623 42.4848 57.4486 42.5327 57.3293 42.5347L53.7579 42.5493C53.6257 42.5493 53.4989 42.4976 53.4053 42.4054C53.3118 42.3133 53.2593 42.1883 53.2593 42.058V16.0907C53.2593 15.7436 53.4304 15.5749 53.7726 15.5847C55.9237 15.6336 58.2899 15.6189 60.8713 15.5407C63.8828 15.4478 66.1415 15.9049 67.6473 16.912C72.1866 19.926 72.1206 27.7433 67.1926 30.552C66.9188 30.7084 66.8602 30.9236 67.0166 31.1973ZM57.8426 20.058L57.7253 27.6993C57.7243 27.7542 57.7342 27.8088 57.7543 27.8599C57.7744 27.9109 57.8044 27.9576 57.8425 27.9971C57.8806 28.0366 57.9262 28.0682 57.9765 28.0901C58.0269 28.112 58.0811 28.1237 58.1359 28.1247L62.3599 28.1907C63.3692 28.206 64.3433 27.8105 65.068 27.0912C65.7928 26.372 66.2088 25.3879 66.2246 24.3553L66.2393 23.666C66.2472 23.1545 66.1566 22.6465 65.9725 22.171C65.7885 21.6955 65.5146 21.2618 65.1666 20.8947C64.8186 20.5276 64.4033 20.2344 63.9444 20.0317C63.4854 19.829 62.9919 19.7208 62.4919 19.7133L58.2679 19.6473C58.2131 19.6464 58.1585 19.6562 58.1074 19.6763C58.0563 19.6964 58.0097 19.7264 57.9702 19.7646C57.9307 19.8027 57.8991 19.8482 57.8772 19.8986C57.8553 19.9489 57.8436 20.0031 57.8426 20.058Z" fill="#FCF5ED"/>
<path d="M83.0325 33.4633L83.0545 42.212C83.0555 42.2482 83.0492 42.2843 83.036 42.3181C83.0228 42.3518 83.003 42.3826 82.9777 42.4086C82.9524 42.4346 82.9222 42.4552 82.8887 42.4693C82.8553 42.4834 82.8194 42.4907 82.7832 42.4907H78.8159C78.7342 42.4907 78.6558 42.4582 78.5981 42.4004C78.5403 42.3427 78.5079 42.2643 78.5079 42.1827L78.4712 16.076C78.4712 15.8364 78.591 15.7093 78.8305 15.6947C83.651 15.4111 87.3934 15.4624 90.0579 15.8487C96.6065 16.802 98.6965 26.24 93.9739 30.6473C91.2092 33.2287 87.2272 33.0747 83.6925 32.8473C83.2476 32.818 83.0276 33.0233 83.0325 33.4633ZM83.0399 20.036L83.0105 28.396C83.0105 28.4855 83.0461 28.5713 83.1093 28.6345C83.1726 28.6978 83.2584 28.7333 83.3479 28.7333L87.6672 28.748C88.7893 28.7518 89.8671 28.2973 90.6634 27.4845C91.4596 26.6718 91.9092 25.5673 91.9132 24.414V24.0767C91.9152 23.5055 91.8077 22.9396 91.5968 22.4113C91.386 21.8829 91.0759 21.4024 90.6844 20.9972C90.2928 20.5921 89.8274 20.2701 89.3148 20.0498C88.8021 19.8295 88.2522 19.7152 87.6965 19.7133L83.3772 19.6987C83.3329 19.6987 83.289 19.7074 83.2481 19.7243C83.2072 19.7413 83.17 19.7661 83.1387 19.7975C83.1073 19.8288 83.0825 19.866 83.0655 19.9069C83.0486 19.9478 83.0399 19.9917 83.0399 20.036Z" fill="#FCF5ED"/>
<path d="M139.067 15.5993H135.327C135.169 15.5993 135.041 15.7274 135.041 15.8853V42.256C135.041 42.414 135.169 42.542 135.327 42.542H139.067C139.224 42.542 139.353 42.414 139.353 42.256V15.8853C139.353 15.7274 139.224 15.5993 139.067 15.5993Z" fill="#FCF5ED"/>
<path d="M165.452 15.6287L169.639 15.614C169.701 15.614 169.761 15.6387 169.805 15.6827C169.849 15.7267 169.874 15.7864 169.874 15.8487L169.867 42.2633C169.867 42.3256 169.842 42.3853 169.798 42.4293C169.754 42.4733 169.694 42.498 169.632 42.498L166.046 42.4907C166.007 42.4913 165.968 42.4823 165.934 42.4644C165.899 42.4464 165.87 42.4202 165.848 42.388L153.403 24.6413C153.374 24.6008 153.333 24.5706 153.285 24.5551C153.238 24.5396 153.187 24.5396 153.139 24.5551C153.092 24.5706 153.051 24.6009 153.022 24.6414C152.993 24.682 152.977 24.7308 152.978 24.7807L153.022 42.2487C153.022 42.3109 152.997 42.3706 152.953 42.4146C152.909 42.4586 152.849 42.4833 152.787 42.4833L148.651 42.498C148.589 42.498 148.529 42.4733 148.485 42.4293C148.441 42.3853 148.417 42.3256 148.417 42.2633L148.409 15.8633C148.409 15.8011 148.434 15.7414 148.478 15.6974C148.522 15.6534 148.582 15.6287 148.644 15.6287L152.501 15.6067C152.54 15.606 152.579 15.615 152.613 15.633C152.648 15.6509 152.677 15.6771 152.699 15.7093L164.946 33.324C164.975 33.3645 165.016 33.3948 165.064 33.4103C165.111 33.4258 165.162 33.4258 165.21 33.4102C165.257 33.3947 165.298 33.3644 165.327 33.3239C165.356 33.2833 165.372 33.2346 165.371 33.1847L165.217 15.8633C165.217 15.8011 165.242 15.7414 165.286 15.6974C165.33 15.6534 165.39 15.6287 165.452 15.6287Z" fill="#FCF5ED"/>
<path d="M188.941 20.0947L188.933 42.0873C188.933 42.1962 188.89 42.3007 188.813 42.3777C188.736 42.4547 188.631 42.498 188.523 42.498L185.032 42.4833C184.923 42.4833 184.818 42.4401 184.741 42.3631C184.664 42.286 184.621 42.1816 184.621 42.0727L184.643 20.1533C184.643 20.0444 184.6 19.94 184.523 19.8629C184.446 19.7859 184.341 19.7427 184.233 19.7427L175.623 19.75C175.516 19.75 175.412 19.7078 175.335 19.6323C175.259 19.5569 175.214 19.4543 175.213 19.3467L175.169 16.0467C175.168 15.9921 175.177 15.9379 175.198 15.8873C175.218 15.8366 175.248 15.7904 175.286 15.7515C175.324 15.7126 175.37 15.6817 175.42 15.6606C175.471 15.6395 175.525 15.6287 175.579 15.6287L198.056 15.6507C198.11 15.6507 198.164 15.6615 198.215 15.6826C198.265 15.7037 198.311 15.7346 198.349 15.7735C198.387 15.8124 198.417 15.8586 198.437 15.9093C198.458 15.9599 198.468 16.0141 198.467 16.0687L198.401 19.3613C198.399 19.469 198.354 19.5715 198.278 19.647C198.201 19.7224 198.098 19.7647 197.99 19.7647L189.351 19.684C189.242 19.684 189.138 19.7273 189.061 19.8043C188.984 19.8813 188.941 19.9857 188.941 20.0947Z" fill="#FCF5ED"/>
<path d="M229.993 24.6633L229.054 24.722C228.984 24.7264 228.916 24.7044 228.862 24.6607C228.809 24.617 228.775 24.5549 228.768 24.4873L228.724 24.1573C228.685 23.8835 228.802 23.7564 229.076 23.776L231.093 23.908C231.347 23.9275 231.476 24.0669 231.481 24.326L231.518 26.8193C231.523 27.2055 231.349 27.3229 230.997 27.1713L230.741 27.0613C230.477 26.9489 230.217 26.9562 229.963 27.0833C224.493 29.804 223.598 18.6427 229.985 20.8207C230.543 21.0113 230.912 21.3487 231.093 21.8327C231.577 23.1135 231.308 23.2969 230.286 22.3827C229.89 22.0233 229.523 21.642 228.959 21.5687C225.314 21.07 226.194 28.264 229.795 26.1667C230.195 25.932 230.411 25.5824 230.44 25.118C230.444 25.0571 230.436 24.996 230.415 24.9388C230.394 24.8817 230.361 24.8297 230.318 24.7866C230.276 24.7435 230.225 24.7101 230.169 24.6889C230.112 24.6676 230.052 24.6589 229.993 24.6633Z" fill="#FCF5ED"/>
<path d="M233.843 25.0373L233.865 26.8927C233.865 27.0172 233.816 27.1365 233.729 27.2245C233.643 27.3126 233.525 27.362 233.403 27.362H233.161C232.853 27.362 232.701 27.208 232.706 26.9V21.158C232.706 20.8696 232.85 20.718 233.139 20.7033C234.116 20.6496 235.141 20.652 236.211 20.7107C237.847 20.7987 238.617 22.6467 237.399 23.7907C237.257 23.9227 237.238 24.0693 237.341 24.2307C237.864 25.0618 238.079 26.0029 237.986 27.054C237.982 27.0907 237.971 27.1263 237.954 27.1587C237.936 27.1911 237.913 27.2198 237.884 27.243C237.855 27.2662 237.822 27.2834 237.787 27.2938C237.752 27.3042 237.715 27.3074 237.678 27.3033L237.069 27.2373C236.83 27.208 236.727 27.0736 236.761 26.834C236.844 26.2816 236.81 25.756 236.659 25.2573C236.561 24.9396 236.351 24.744 236.028 24.6707C235.446 24.5485 234.842 24.5289 234.217 24.612C234.113 24.6246 234.017 24.6749 233.949 24.7534C233.88 24.8318 233.842 24.9329 233.843 25.0373ZM233.85 21.9793V23.446C233.85 23.5238 233.881 23.5984 233.936 23.6534C233.991 23.7084 234.065 23.7393 234.143 23.7393L235.566 23.732C235.734 23.7317 235.901 23.709 236.056 23.6653C236.211 23.6216 236.352 23.5577 236.471 23.4773C236.589 23.3968 236.683 23.3015 236.747 23.1967C236.811 23.0919 236.843 22.9798 236.842 22.8667V22.5293C236.84 22.3026 236.705 22.0859 236.466 21.9265C236.227 21.7671 235.903 21.678 235.566 21.6787L234.143 21.686C234.065 21.686 233.991 21.7169 233.936 21.7719C233.881 21.8269 233.85 21.9015 233.85 21.9793Z" fill="#FCF5ED"/>
<path d="M240.523 23.402L243.361 23.424C243.412 23.4257 243.46 23.4461 243.497 23.4813C243.533 23.5165 243.556 23.564 243.559 23.6147L243.589 24.128C243.59 24.155 243.585 24.1819 243.576 24.2071C243.566 24.2324 243.552 24.2556 243.534 24.2754C243.515 24.2951 243.493 24.3111 243.469 24.3223C243.444 24.3335 243.418 24.3397 243.391 24.3407L240.501 24.37C240.448 24.3719 240.398 24.3944 240.361 24.4327C240.324 24.471 240.303 24.5221 240.303 24.5753L240.325 26.086C240.325 26.113 240.331 26.1397 240.341 26.1646C240.351 26.1895 240.366 26.2121 240.385 26.2312C240.404 26.2502 240.427 26.2654 240.452 26.2757C240.477 26.286 240.504 26.2913 240.531 26.2913L243.728 26.3647C243.777 26.3661 243.825 26.3855 243.861 26.4192C243.898 26.4529 243.921 26.4987 243.926 26.548L243.992 27.032C243.995 27.0607 243.992 27.0898 243.983 27.1173C243.974 27.1448 243.96 27.1702 243.94 27.1916C243.921 27.2131 243.897 27.2302 243.871 27.2419C243.844 27.2535 243.815 27.2595 243.787 27.2593L239.365 27.2887C239.338 27.2887 239.311 27.2833 239.286 27.273C239.261 27.2627 239.238 27.2476 239.219 27.2285C239.2 27.2094 239.185 27.1868 239.175 27.1619C239.165 27.137 239.159 27.1103 239.159 27.0833L239.123 20.9013C239.123 20.8469 239.144 20.7946 239.183 20.7561C239.221 20.7176 239.273 20.696 239.328 20.696L243.625 20.6667C243.653 20.6666 243.68 20.6722 243.706 20.683C243.731 20.6937 243.754 20.7095 243.773 20.7294C243.792 20.7492 243.807 20.7727 243.817 20.7985C243.827 20.8243 243.832 20.8517 243.831 20.8793L243.809 21.5613C243.807 21.6145 243.784 21.6649 243.746 21.7018C243.708 21.7387 243.656 21.7594 243.603 21.7593L240.509 21.7887C240.454 21.7887 240.402 21.8103 240.363 21.8488C240.325 21.8873 240.303 21.9395 240.303 21.994L240.325 23.204C240.327 23.2559 240.348 23.3052 240.385 23.342C240.422 23.3787 240.471 23.4002 240.523 23.402Z" fill="#FCF5ED"/>
<path d="M246.097 24.546L246.045 26.0713C246.044 26.0993 246.049 26.1271 246.059 26.1533C246.068 26.1795 246.083 26.2035 246.102 26.2239C246.121 26.2443 246.144 26.2608 246.17 26.2724C246.195 26.2839 246.223 26.2904 246.251 26.2913L249.477 26.3573C249.529 26.3588 249.578 26.379 249.616 26.4141C249.654 26.4491 249.677 26.4967 249.683 26.548L249.749 27.032C249.753 27.0617 249.751 27.0919 249.742 27.1207C249.734 27.1495 249.72 27.1761 249.7 27.199C249.681 27.2218 249.657 27.2403 249.63 27.2533C249.603 27.2662 249.573 27.2733 249.543 27.274L245.143 27.2813C245.115 27.2813 245.088 27.2758 245.062 27.2651C245.036 27.2545 245.013 27.2388 244.993 27.219C244.973 27.1993 244.958 27.1759 244.947 27.1501C244.936 27.1242 244.931 27.0966 244.931 27.0687L244.938 20.894C244.938 20.8376 244.96 20.7835 245 20.7436C245.04 20.7037 245.094 20.6813 245.151 20.6813H249.375C249.431 20.6813 249.485 20.7037 249.525 20.7436C249.565 20.7835 249.587 20.8376 249.587 20.894L249.595 21.5393C249.595 21.5957 249.572 21.6498 249.532 21.6897C249.493 21.7296 249.438 21.752 249.382 21.752L246.273 21.8107C246.219 21.8125 246.168 21.8347 246.13 21.8728C246.091 21.911 246.069 21.9621 246.067 22.016L246.053 23.1893C246.053 23.2457 246.075 23.2998 246.115 23.3397C246.155 23.3796 246.209 23.402 246.265 23.402L249.118 23.4167C249.147 23.4167 249.175 23.4224 249.201 23.4335C249.227 23.4447 249.251 23.461 249.271 23.4815C249.291 23.5021 249.306 23.5264 249.317 23.553C249.327 23.5797 249.332 23.6081 249.331 23.6367L249.316 24.1793C249.316 24.2079 249.31 24.2362 249.299 24.2625C249.288 24.2887 249.272 24.3125 249.251 24.3324C249.231 24.3522 249.206 24.3677 249.18 24.378C249.153 24.3882 249.125 24.393 249.096 24.392L246.309 24.3407C246.254 24.3406 246.201 24.362 246.161 24.4003C246.122 24.4387 246.099 24.4909 246.097 24.546Z" fill="#FCF5ED"/>
<path d="M251.729 23.4093L251.773 26.9367C251.774 26.9835 251.765 27.0301 251.747 27.0734C251.729 27.1167 251.703 27.1558 251.669 27.1882C251.635 27.2206 251.595 27.2456 251.551 27.2617C251.507 27.2777 251.46 27.2844 251.413 27.2813L251.127 27.2667C250.814 27.2471 250.658 27.0785 250.658 26.7607L250.695 22.324C250.709 20.1338 251.318 19.9553 252.521 21.7887C253.093 22.6638 253.66 23.5878 254.222 24.5607C254.735 25.4456 254.977 25.3771 254.948 24.3553L254.853 21.202C254.848 20.894 254.997 20.7278 255.3 20.7033L255.608 20.6813C255.896 20.6569 256.041 20.7889 256.041 21.0773L256.019 25.6167C256.014 27.8607 255.376 28.0587 254.105 26.2107C253.479 25.2965 252.878 24.3113 252.301 23.2553C251.905 22.5269 251.714 22.5782 251.729 23.4093Z" fill="#FCF5ED"/>
<path d="M239.064 34.7393L238.683 35.8613C238.654 35.9446 238.596 36.0145 238.52 36.0578C238.445 36.101 238.356 36.1146 238.272 36.096L237.81 35.9933C237.58 35.9444 237.507 35.81 237.59 35.59L239.511 30.5667C240.206 28.748 240.905 28.7456 241.609 30.5593L243.559 35.546C243.582 35.6058 243.59 35.6703 243.582 35.7338C243.574 35.7973 243.551 35.8579 243.514 35.9102C243.477 35.9624 243.427 36.0047 243.37 36.0333C243.313 36.0619 243.249 36.0759 243.185 36.074C242.511 36.0544 242.161 35.6878 242.137 34.974C242.133 34.8091 242.066 34.6519 241.95 34.5347C241.835 34.4174 241.678 34.3489 241.513 34.3433L239.775 34.2553C239.62 34.2485 239.467 34.2919 239.339 34.3791C239.211 34.4664 239.114 34.5927 239.064 34.7393ZM240.025 33.4707L241.095 33.4853C241.146 33.4853 241.194 33.4652 241.23 33.4295C241.266 33.3937 241.286 33.3452 241.286 33.2947V33.192C241.29 32.9069 241.275 32.6244 241.243 32.3607C241.211 32.0969 241.162 31.8571 241.098 31.6548C241.035 31.4525 240.959 31.2919 240.874 31.1819C240.789 31.072 240.697 31.0149 240.604 31.014H240.575C240.386 31.0121 240.202 31.239 240.063 31.6447C239.924 32.0504 239.842 32.6017 239.834 33.1773V33.28C239.834 33.3306 239.854 33.3791 239.89 33.4148C239.926 33.4506 239.974 33.4707 240.025 33.4707Z" fill="#FCF5ED"/>
<path d="M226.891 33.7567L226.905 35.8613C226.905 35.9884 226.842 36.0544 226.715 36.0593H226.15C225.901 36.0642 225.776 35.9444 225.776 35.7L225.783 29.848C225.783 29.5889 225.913 29.4569 226.172 29.452C227.844 29.408 231.144 28.7993 231.107 31.4027C231.1 31.9527 230.748 32.1727 230.55 32.62C230.462 32.8156 230.469 33.0062 230.572 33.192C230.983 33.94 231.173 34.7784 231.144 35.7073C231.139 35.9616 231.009 36.0813 230.755 36.0667L230.381 36.0373C230.063 36.0178 229.929 35.8516 229.978 35.5387C230.076 34.8591 229.961 34.2456 229.633 33.698C229.526 33.5122 229.364 33.4144 229.149 33.4047L227.367 33.302C227.049 33.2824 226.891 33.434 226.891 33.7567ZM229.935 31.034C229.935 30.9522 229.92 30.871 229.889 30.7953C229.858 30.7196 229.812 30.6507 229.754 30.5926C229.696 30.5345 229.628 30.4884 229.552 30.4568C229.477 30.4252 229.396 30.4088 229.314 30.4086L227.481 30.4021C227.399 30.4018 227.318 30.4177 227.242 30.4487C227.166 30.4798 227.097 30.5255 227.039 30.5831C226.981 30.6408 226.935 30.7094 226.903 30.7849C226.872 30.8604 226.855 30.9414 226.855 31.0233L226.853 31.7713C226.852 31.8532 226.868 31.9343 226.899 32.01C226.93 32.0857 226.976 32.1546 227.034 32.2127C227.091 32.2708 227.16 32.3169 227.235 32.3485C227.311 32.3801 227.392 32.3965 227.474 32.3968L229.307 32.4032C229.389 32.4035 229.47 32.3877 229.546 32.3566C229.622 32.3255 229.69 32.2799 229.748 32.2222C229.807 32.1645 229.853 32.0959 229.884 32.0204C229.916 31.9449 229.932 31.8639 229.933 31.782L229.935 31.034Z" fill="#FCF5ED"/>
<path d="M233.593 34.9813L236.666 34.974C236.709 34.9743 236.751 34.9879 236.787 35.0128C236.822 35.0377 236.849 35.0727 236.864 35.1133L237.113 35.7513C237.125 35.7834 237.129 35.8177 237.125 35.8516C237.12 35.8854 237.108 35.9177 237.089 35.9457C237.069 35.9738 237.043 35.9967 237.013 36.0127C236.983 36.0286 236.949 36.0371 236.915 36.0373L232.42 36.0667C232.364 36.0667 232.309 36.0443 232.27 36.0044C232.23 35.9645 232.207 35.9104 232.207 35.854V29.6794C232.207 29.6229 232.23 29.5689 232.27 29.529C232.309 29.4891 232.364 29.4667 232.42 29.4667L236.842 29.4594C236.873 29.4598 236.904 29.4671 236.933 29.4809C236.961 29.4947 236.986 29.5146 237.005 29.5391C237.025 29.5637 237.039 29.5923 237.046 29.6229C237.053 29.6534 237.054 29.6853 237.047 29.716L236.952 30.2073C236.944 30.2548 236.92 30.298 236.884 30.3299C236.848 30.3619 236.802 30.3807 236.754 30.3833L233.557 30.4567C233.529 30.4576 233.501 30.4641 233.476 30.4756C233.45 30.4872 233.427 30.5037 233.408 30.5241C233.389 30.5446 233.374 30.5685 233.365 30.5947C233.355 30.6209 233.35 30.6488 233.351 30.6767L233.388 31.96C233.39 32.0151 233.413 32.0674 233.453 32.1057C233.492 32.144 233.545 32.1654 233.601 32.1653L236.446 32.18C236.5 32.1799 236.552 32.2003 236.591 32.237C236.631 32.2738 236.655 32.3242 236.659 32.378L236.703 32.8547C236.706 32.8844 236.702 32.9144 236.693 32.9428C236.684 32.9712 236.669 32.9974 236.649 33.0195C236.629 33.0416 236.604 33.0593 236.577 33.0713C236.549 33.0834 236.52 33.0895 236.49 33.0893L233.52 33.1627C233.491 33.1626 233.462 33.1686 233.435 33.1802C233.408 33.1917 233.384 33.2087 233.364 33.2301C233.344 33.2514 233.329 33.2766 233.319 33.3041C233.309 33.3316 233.305 33.3609 233.307 33.39L233.381 34.776C233.382 34.8311 233.406 34.8834 233.445 34.9217C233.485 34.96 233.538 34.9814 233.593 34.9813Z" fill="#FCF5ED"/>
<path d="M245.715 34.974H248.575C248.631 34.9755 248.683 34.9972 248.724 35.035C248.765 35.0729 248.79 35.1242 248.795 35.1793L248.854 35.8173C248.857 35.849 248.853 35.8809 248.843 35.9111C248.833 35.9413 248.817 35.969 248.796 35.9925C248.774 36.016 248.748 36.0347 248.719 36.0475C248.69 36.0603 248.658 36.0668 248.626 36.0667L244.527 36.052C244.467 36.052 244.409 36.028 244.366 35.9854C244.324 35.9428 244.3 35.8849 244.3 35.8247L244.292 29.7087C244.292 29.6782 244.299 29.648 244.31 29.6199C244.322 29.5919 244.34 29.5665 244.362 29.5453C244.384 29.524 244.409 29.5075 244.438 29.4965C244.466 29.4855 244.497 29.4803 244.527 29.4813L245.282 29.496C245.341 29.4979 245.397 29.5227 245.439 29.5651C245.48 29.6075 245.503 29.6643 245.502 29.7233L245.488 34.7467C245.488 34.8069 245.512 34.8648 245.554 34.9074C245.597 34.95 245.655 34.974 245.715 34.974Z" fill="#FCF5ED"/>
<path d="M235.309 42.8427C235.307 42.6805 235.25 42.5241 235.147 42.3998C235.044 42.2756 234.902 42.1911 234.745 42.1607C233.337 41.8673 230.667 41.398 231.459 39.3153C231.65 38.8167 231.995 38.4671 232.493 38.2667C234.033 37.6409 235.231 38.0027 236.087 39.352C236.38 39.8164 236.253 40.034 235.705 40.0047C235.26 39.9802 234.935 39.792 234.73 39.44C234.588 39.1956 234.378 39.0464 234.099 38.9927C233.664 38.9096 233.256 38.9731 232.875 39.1833C232.744 39.2567 232.639 39.3671 232.571 39.5005C232.504 39.6339 232.477 39.7843 232.495 39.9327C232.513 40.0812 232.575 40.2209 232.673 40.3342C232.77 40.4475 232.899 40.5294 233.043 40.5693C233.865 40.7893 234.649 41.0387 235.397 41.3173C236.666 41.7867 236.798 43.554 235.749 44.302C234.571 45.138 233.241 45.1307 231.76 44.28C231.598 44.1865 231.461 44.057 231.357 43.9018C231.254 43.7465 231.189 43.5698 231.166 43.3853C231.068 42.6227 231.305 42.3464 231.877 42.5567C232.065 42.6221 232.22 42.7589 232.31 42.938C232.799 43.906 233.588 44.2018 234.679 43.8253C235.109 43.6738 235.319 43.3462 235.309 42.8427Z" fill="#FCF5ED"/>
<path d="M227.096 43.7153L230.286 43.774C230.332 43.7738 230.377 43.7887 230.414 43.8165C230.451 43.8443 230.478 43.8835 230.491 43.928L230.631 44.456C230.64 44.4877 230.641 44.5212 230.635 44.5536C230.629 44.5861 230.616 44.6167 230.596 44.643C230.576 44.6693 230.55 44.6907 230.52 44.7053C230.491 44.7199 230.458 44.7275 230.425 44.7273L225.996 44.72C225.939 44.72 225.885 44.6976 225.845 44.6577C225.806 44.6178 225.783 44.5637 225.783 44.5073V38.3693C225.783 38.3129 225.806 38.2588 225.845 38.219C225.885 38.1791 225.939 38.1567 225.996 38.1567L230.301 38.1347C230.357 38.1347 230.411 38.1571 230.451 38.197C230.491 38.2368 230.513 38.2909 230.513 38.3473L230.521 38.9633C230.521 39.0197 230.498 39.0738 230.458 39.1137C230.418 39.1536 230.364 39.176 230.308 39.176L227.133 39.2127C227.076 39.2127 227.022 39.2351 226.982 39.275C226.942 39.3148 226.92 39.3689 226.92 39.4253V40.694C226.92 40.7504 226.942 40.8045 226.982 40.8444C227.022 40.8843 227.076 40.9067 227.133 40.9067L230.015 40.8847C230.067 40.8844 230.118 40.9038 230.158 40.939C230.197 40.9742 230.222 41.0228 230.227 41.0753L230.293 41.5887C230.296 41.6178 230.293 41.6472 230.284 41.6751C230.276 41.703 230.261 41.7288 230.242 41.7508C230.222 41.7728 230.199 41.7906 230.172 41.8031C230.146 41.8156 230.117 41.8225 230.088 41.8233L227.14 41.86C227.085 41.86 227.032 41.8814 226.992 41.9197C226.952 41.958 226.929 42.0102 226.927 42.0653L226.891 43.4953C226.89 43.5233 226.894 43.5511 226.904 43.5773C226.914 43.6035 226.929 43.6275 226.948 43.6479C226.967 43.6683 226.99 43.6848 227.015 43.6964C227.04 43.708 227.068 43.7144 227.096 43.7153Z" fill="#FCF5ED"/>
<path d="M240.017 39.4253L240.061 44.4633C240.061 44.5204 240.039 44.5753 239.999 44.6164C239.96 44.6574 239.906 44.6814 239.848 44.6833L239.034 44.7127C239.005 44.7136 238.976 44.7087 238.948 44.6981C238.92 44.6875 238.895 44.6714 238.874 44.6509C238.853 44.6303 238.836 44.6058 238.825 44.5786C238.813 44.5514 238.807 44.5222 238.807 44.4927L238.814 39.44C238.815 39.3829 238.792 39.328 238.753 39.287C238.713 39.2459 238.659 39.2219 238.602 39.22L237.01 39.1687C236.96 39.168 236.912 39.1502 236.873 39.1182C236.834 39.0862 236.808 39.0419 236.798 38.9927L236.68 38.4207C236.674 38.3883 236.675 38.3549 236.683 38.3229C236.691 38.2909 236.706 38.2611 236.727 38.2358C236.748 38.2104 236.775 38.1901 236.805 38.1765C236.835 38.1628 236.867 38.156 236.9 38.1567H241.894C241.925 38.1566 241.955 38.1627 241.982 38.1747C242.01 38.1867 242.035 38.2042 242.055 38.2262C242.076 38.2482 242.092 38.2742 242.102 38.3026C242.112 38.331 242.116 38.3612 242.114 38.3913L242.07 38.956C242.067 39.0105 242.043 39.0617 242.004 39.0997C241.964 39.1377 241.912 39.1596 241.858 39.1613L240.23 39.2053C240.173 39.2072 240.119 39.2312 240.079 39.2723C240.039 39.3134 240.017 39.3682 240.017 39.4253Z" fill="#FCF5ED"/>
<path d="M245.297 43.0187H243.567C243.298 43.0187 243.119 43.1458 243.031 43.4L242.635 44.5C242.542 44.7493 242.366 44.8544 242.107 44.8153L241.77 44.7567C241.718 44.7483 241.669 44.7283 241.625 44.6983C241.582 44.6683 241.546 44.629 241.52 44.5833C241.494 44.5376 241.479 44.4866 241.475 44.4341C241.471 44.3816 241.479 44.3289 241.499 44.28L243.376 39.462C244.104 37.5847 244.838 37.5822 245.576 39.4547L247.497 44.3533C247.513 44.392 247.519 44.4338 247.514 44.4752C247.51 44.5167 247.496 44.5564 247.473 44.5911C247.45 44.6257 247.418 44.6542 247.382 44.6741C247.345 44.694 247.304 44.7047 247.263 44.7053H246.661C246.436 44.7053 246.29 44.5978 246.221 44.3827L245.928 43.4807C245.825 43.1775 245.615 43.0235 245.297 43.0187ZM243.919 42.1313L245.033 42.1167C245.054 42.1157 245.073 42.1108 245.092 42.1022C245.11 42.0936 245.127 42.0814 245.14 42.0664C245.154 42.0514 245.164 42.0339 245.171 42.0148C245.178 41.9958 245.181 41.9756 245.18 41.9553V41.882C245.17 41.3057 245.094 40.7545 244.969 40.349C244.844 39.9435 244.68 39.7168 244.513 39.7187H244.351C244.268 39.7194 244.187 39.7768 244.112 39.8875C244.037 39.9982 243.97 40.1601 243.915 40.3638C243.86 40.5676 243.818 40.8091 243.791 41.0747C243.763 41.3403 243.752 41.6246 243.757 41.9113L243.765 41.9847C243.767 42.0242 243.784 42.0615 243.812 42.0888C243.841 42.1162 243.879 42.1314 243.919 42.1313Z" fill="#FCF5ED"/>
<path d="M248.348 39.2347C247.908 39.3227 247.607 39.3178 247.446 39.22C246.385 38.5795 246.476 38.2275 247.717 38.164C249.116 38.0955 250.499 38.12 251.868 38.2373C252.489 38.2911 252.56 38.5209 252.081 38.9267C251.709 39.2395 251.191 39.3398 250.526 39.2273C250.478 39.2188 250.428 39.2211 250.381 39.2341C250.334 39.2471 250.29 39.2705 250.252 39.3026C250.214 39.3347 250.184 39.3747 250.163 39.42C250.142 39.4653 250.131 39.5146 250.13 39.5647L250.181 44.3167C250.181 44.5709 250.054 44.698 249.8 44.698H249.265C249.02 44.698 248.898 44.5758 248.898 44.3313L248.92 39.704C248.92 39.3178 248.729 39.1613 248.348 39.2347Z" fill="#FCF5ED"/>
<path d="M254.229 43.7153L257.471 43.7593C257.498 43.7593 257.526 43.7648 257.552 43.7755C257.578 43.7862 257.601 43.8019 257.621 43.8216C257.641 43.8414 257.656 43.8648 257.667 43.8906C257.678 43.9164 257.683 43.9441 257.683 43.972L257.676 44.5587C257.676 44.6151 257.653 44.6692 257.614 44.709C257.574 44.7489 257.52 44.7713 257.463 44.7713L253.107 44.7127C253.051 44.7127 252.997 44.6903 252.957 44.6504C252.917 44.6105 252.895 44.5564 252.895 44.5L252.924 38.384C252.926 38.3301 252.948 38.279 252.986 38.2408C253.024 38.2027 253.075 38.1805 253.129 38.1787L257.412 38.1127C257.467 38.1126 257.52 38.134 257.56 38.1723C257.599 38.2107 257.623 38.2629 257.625 38.318L257.661 38.9487C257.662 38.9772 257.657 39.0057 257.647 39.0323C257.637 39.059 257.621 39.0833 257.602 39.1038C257.582 39.1243 257.558 39.1407 257.532 39.1518C257.505 39.163 257.477 39.1687 257.449 39.1687L254.251 39.2127C254.196 39.2126 254.143 39.234 254.103 39.2723C254.064 39.3107 254.04 39.3629 254.039 39.418L254.017 40.7013C254.017 40.7577 254.039 40.8118 254.079 40.8517C254.119 40.8916 254.173 40.914 254.229 40.914L257.082 40.87C257.136 40.8699 257.188 40.8903 257.227 40.927C257.267 40.9638 257.291 41.0142 257.295 41.068L257.324 41.618C257.325 41.6465 257.32 41.675 257.31 41.7016C257.3 41.7283 257.284 41.7526 257.264 41.7731C257.244 41.7937 257.221 41.81 257.194 41.8211C257.168 41.8323 257.14 41.838 257.111 41.838L254.229 41.8527C254.173 41.8527 254.119 41.8751 254.079 41.915C254.039 41.9548 254.017 42.0089 254.017 42.0653V43.5027C254.017 43.5591 254.039 43.6132 254.079 43.653C254.119 43.6929 254.173 43.7153 254.229 43.7153Z" fill="#FCF5ED"/>
<path d="M126.82 39.0147H102.239C101.959 39.0147 101.733 39.2412 101.733 39.5207V41.9993C101.733 42.2788 101.959 42.5053 102.239 42.5053H126.82C127.099 42.5053 127.326 42.2788 127.326 41.9993V39.5207C127.326 39.2412 127.099 39.0147 126.82 39.0147Z" fill="#FCF5ED"/>
</svg>
