<svg width="66" height="66" viewBox="0 0 66 66" fill="none" xmlns="http://www.w3.org/2000/svg">
<rect x="0.166504" y="0.5" width="65" height="65" rx="32.5" fill="#FCF5ED"/>
<g clip-path="url(#clip0_12_1228)">
<path d="M33.1665 23.5C35.8835 23.5 36.2225 23.51 37.2885 23.56C38.3535 23.61 39.0785 23.777 39.7165 24.025C40.3765 24.279 40.9325 24.623 41.4885 25.178C41.997 25.6779 42.3905 26.2826 42.6415 26.95C42.8885 27.587 43.0565 28.313 43.1065 29.378C43.1535 30.444 43.1665 30.783 43.1665 33.5C43.1665 36.217 43.1565 36.556 43.1065 37.622C43.0565 38.687 42.8885 39.412 42.6415 40.05C42.3912 40.7178 41.9976 41.3226 41.4885 41.822C40.9885 42.3303 40.3838 42.7238 39.7165 42.975C39.0795 43.222 38.3535 43.39 37.2885 43.44C36.2225 43.487 35.8835 43.5 33.1665 43.5C30.4495 43.5 30.1105 43.49 29.0445 43.44C27.9795 43.39 27.2545 43.222 26.6165 42.975C25.9488 42.7245 25.344 42.3309 24.8445 41.822C24.3359 41.3222 23.9424 40.7175 23.6915 40.05C23.4435 39.413 23.2765 38.687 23.2265 37.622C23.1795 36.556 23.1665 36.217 23.1665 33.5C23.1665 30.783 23.1765 30.444 23.2265 29.378C23.2765 28.312 23.4435 27.588 23.6915 26.95C23.9417 26.2822 24.3353 25.6773 24.8445 25.178C25.3442 24.6692 25.9489 24.2757 26.6165 24.025C27.2545 23.777 27.9785 23.61 29.0445 23.56C30.1105 23.513 30.4495 23.5 33.1665 23.5ZM33.1665 28.5C31.8404 28.5 30.5687 29.0268 29.631 29.9645C28.6933 30.9021 28.1665 32.1739 28.1665 33.5C28.1665 34.8261 28.6933 36.0979 29.631 37.0355C30.5687 37.9732 31.8404 38.5 33.1665 38.5C34.4926 38.5 35.7644 37.9732 36.702 37.0355C37.6397 36.0979 38.1665 34.8261 38.1665 33.5C38.1665 32.1739 37.6397 30.9021 36.702 29.9645C35.7644 29.0268 34.4926 28.5 33.1665 28.5ZM39.6665 28.25C39.6665 27.9185 39.5348 27.6005 39.3004 27.3661C39.066 27.1317 38.748 27 38.4165 27C38.085 27 37.767 27.1317 37.5326 27.3661C37.2982 27.6005 37.1665 27.9185 37.1665 28.25C37.1665 28.5815 37.2982 28.8995 37.5326 29.1339C37.767 29.3683 38.085 29.5 38.4165 29.5C38.748 29.5 39.066 29.3683 39.3004 29.1339C39.5348 28.8995 39.6665 28.5815 39.6665 28.25ZM33.1665 30.5C33.9622 30.5 34.7252 30.8161 35.2878 31.3787C35.8504 31.9413 36.1665 32.7044 36.1665 33.5C36.1665 34.2956 35.8504 35.0587 35.2878 35.6213C34.7252 36.1839 33.9622 36.5 33.1665 36.5C32.3709 36.5 31.6078 36.1839 31.0452 35.6213C30.4826 35.0587 30.1665 34.2956 30.1665 33.5C30.1665 32.7044 30.4826 31.9413 31.0452 31.3787C31.6078 30.8161 32.3709 30.5 33.1665 30.5Z" fill="#013F24"/>
</g>
<defs>
<clipPath id="clip0_12_1228">
<rect width="24" height="24" fill="white" transform="translate(21.1665 21.5)"/>
</clipPath>
</defs>
</svg>
